<ttFont>
    <TTGlyph name="A" xMin="20" yMin="0" xMax="644" yMax="700">
      <contour>
        <pt x="467" y="700" on="1"/>
        <pt x="644" y="0" on="1"/>
        <pt x="546" y="0" on="1"/>
        <pt x="504" y="166" on="1"/>
        <pt x="194" y="166" on="1"/>
        <pt x="118" y="0" on="1"/>
        <pt x="20" y="0" on="1"/>
        <pt x="343" y="700" on="1"/>
      </contour>
      <contour>
        <pt x="394" y="601" on="1"/>
        <pt x="235" y="256" on="1"/>
        <pt x="481" y="256" on="1"/>
        <pt x="396" y="601" on="1"/>
      </contour>
    </TTGlyph>
    <TTGlyph name="AE" xMin="-20" yMin="0" xMax="991" yMax="700">
      <contour>
        <pt x="652" y="315" on="1"/>
        <pt x="628" y="90" on="1"/>
        <pt x="927" y="90" on="1"/>
        <pt x="918" y="0" on="1"/>
        <pt x="519" y="0" on="1"/>
        <pt x="536" y="166" on="1"/>
        <pt x="230" y="166" on="1"/>
        <pt x="98" y="0" on="1"/>
        <pt x="-20" y="0" on="1"/>
        <pt x="543" y="700" on="1"/>
        <pt x="991" y="700" on="1"/>
        <pt x="982" y="610" on="1"/>
        <pt x="683" y="610" on="1"/>
        <pt x="661" y="405" on="1"/>
        <pt x="900" y="405" on="1"/>
        <pt x="891" y="315" on="1"/>
      </contour>
      <contour>
        <pt x="580" y="601" on="1"/>
        <pt x="302" y="256" on="1"/>
        <pt x="545" y="256" on="1"/>
        <pt x="582" y="601" on="1"/>
      </contour>
    </TTGlyph>
    <TTGlyph name="Aacute" xMin="20" yMin="0" xMax="644" yMax="908">
      <contour>
        <pt x="467" y="700" on="1"/>
        <pt x="644" y="0" on="1"/>
        <pt x="546" y="0" on="1"/>
        <pt x="504" y="166" on="1"/>
        <pt x="194" y="166" on="1"/>
        <pt x="118" y="0" on="1"/>
        <pt x="20" y="0" on="1"/>
        <pt x="343" y="700" on="1"/>
      </contour>
      <contour>
        <pt x="394" y="601" on="1"/>
        <pt x="235" y="256" on="1"/>
        <pt x="481" y="256" on="1"/>
        <pt x="396" y="601" on="1"/>
      </contour>
      <contour>
        <pt x="307" y="780" on="1"/>
        <pt x="414" y="908" on="1"/>
        <pt x="544" y="908" on="1"/>
        <pt x="387" y="780" on="1"/>
      </contour>
    </TTGlyph>
    <TTGlyph name="Acircumflex" xMin="20" yMin="0" xMax="644" yMax="918">
      <contour>
        <pt x="467" y="700" on="1"/>
        <pt x="644" y="0" on="1"/>
        <pt x="546" y="0" on="1"/>
        <pt x="504" y="166" on="1"/>
        <pt x="194" y="166" on="1"/>
        <pt x="118" y="0" on="1"/>
        <pt x="20" y="0" on="1"/>
        <pt x="343" y="700" on="1"/>
      </contour>
      <contour>
        <pt x="394" y="601" on="1"/>
        <pt x="235" y="256" on="1"/>
        <pt x="481" y="256" on="1"/>
        <pt x="396" y="601" on="1"/>
      </contour>
      <contour>
        <pt x="353" y="918" on="1"/>
        <pt x="463" y="918" on="1"/>
        <pt x="550" y="780" on="1"/>
        <pt x="475" y="780" on="1"/>
        <pt x="402" y="860" on="1"/>
        <pt x="314" y="780" on="1"/>
        <pt x="239" y="780" on="1"/>
      </contour>
    </TTGlyph>
    <TTGlyph name="Adieresis" xMin="20" yMin="0" xMax="644" yMax="890">
      <contour>
        <pt x="467" y="700" on="1"/>
        <pt x="644" y="0" on="1"/>
        <pt x="546" y="0" on="1"/>
        <pt x="504" y="166" on="1"/>
        <pt x="194" y="166" on="1"/>
        <pt x="118" y="0" on="1"/>
        <pt x="20" y="0" on="1"/>
        <pt x="343" y="700" on="1"/>
      </contour>
      <contour>
        <pt x="394" y="601" on="1"/>
        <pt x="235" y="256" on="1"/>
        <pt x="481" y="256" on="1"/>
        <pt x="396" y="601" on="1"/>
      </contour>
      <contour>
        <pt x="232" y="785" on="1"/>
        <pt x="243" y="890" on="1"/>
        <pt x="348" y="890" on="1"/>
        <pt x="337" y="785" on="1"/>
      </contour>
      <contour>
        <pt x="451" y="785" on="1"/>
        <pt x="462" y="890" on="1"/>
        <pt x="567" y="890" on="1"/>
        <pt x="556" y="785" on="1"/>
      </contour>
    </TTGlyph>
    <TTGlyph name="Agrave" xMin="20" yMin="0" xMax="644" yMax="908">
      <contour>
        <pt x="467" y="700" on="1"/>
        <pt x="644" y="0" on="1"/>
        <pt x="546" y="0" on="1"/>
        <pt x="504" y="166" on="1"/>
        <pt x="194" y="166" on="1"/>
        <pt x="118" y="0" on="1"/>
        <pt x="20" y="0" on="1"/>
        <pt x="343" y="700" on="1"/>
      </contour>
      <contour>
        <pt x="394" y="601" on="1"/>
        <pt x="235" y="256" on="1"/>
        <pt x="481" y="256" on="1"/>
        <pt x="396" y="601" on="1"/>
      </contour>
      <contour>
        <pt x="393" y="908" on="1"/>
        <pt x="474" y="780" on="1"/>
        <pt x="394" y="780" on="1"/>
        <pt x="263" y="908" on="1"/>
      </contour>
    </TTGlyph>
    <TTGlyph name="Aring" xMin="20" yMin="0" xMax="644" yMax="898">
      <contour>
        <pt x="546" y="682" on="1"/>
        <pt x="480" y="646" on="1"/>
        <pt x="644" y="0" on="1"/>
        <pt x="546" y="0" on="1"/>
        <pt x="504" y="166" on="1"/>
        <pt x="194" y="166" on="1"/>
        <pt x="118" y="0" on="1"/>
        <pt x="20" y="0" on="1"/>
        <pt x="319" y="647" on="1"/>
        <pt x="261" y="682" on="1"/>
        <pt x="279" y="851" on="1"/>
        <pt x="366" y="898" on="1"/>
        <pt x="487" y="898" on="1"/>
        <pt x="564" y="851" on="1"/>
      </contour>
      <contour>
        <pt x="394" y="601" on="1"/>
        <pt x="235" y="256" on="1"/>
        <pt x="481" y="256" on="1"/>
        <pt x="396" y="601" on="1"/>
      </contour>
      <contour>
        <pt x="352" y="833" on="1"/>
        <pt x="338" y="700" on="1"/>
        <pt x="473" y="700" on="1"/>
        <pt x="487" y="833" on="1"/>
      </contour>
    </TTGlyph>
    <TTGlyph name="Atilde" xMin="20" yMin="0" xMax="644" yMax="924">
      <contour>
        <pt x="467" y="700" on="1"/>
        <pt x="644" y="0" on="1"/>
        <pt x="546" y="0" on="1"/>
        <pt x="504" y="166" on="1"/>
        <pt x="194" y="166" on="1"/>
        <pt x="118" y="0" on="1"/>
        <pt x="20" y="0" on="1"/>
        <pt x="343" y="700" on="1"/>
      </contour>
      <contour>
        <pt x="394" y="601" on="1"/>
        <pt x="235" y="256" on="1"/>
        <pt x="481" y="256" on="1"/>
        <pt x="396" y="601" on="1"/>
      </contour>
      <contour>
        <pt x="319" y="857" on="1"/>
        <pt x="317" y="857" on="1"/>
        <pt x="308" y="775" on="1"/>
        <pt x="240" y="775" on="1"/>
        <pt x="250" y="869" on="1"/>
        <pt x="350" y="924" on="1"/>
        <pt x="483" y="842" on="1"/>
        <pt x="485" y="842" on="1"/>
        <pt x="494" y="924" on="1"/>
        <pt x="562" y="924" on="1"/>
        <pt x="552" y="830" on="1"/>
        <pt x="452" y="775" on="1"/>
      </contour>
    </TTGlyph>
    <TTGlyph name="B" xMin="90" yMin="0" xMax="631" yMax="700">
      <contour>
        <pt x="608" y="413" on="1"/>
        <pt x="516" y="363" on="1"/>
        <pt x="515" y="361" on="1"/>
        <pt x="597" y="311" on="1"/>
        <pt x="572" y="67" on="1"/>
        <pt x="449" y="0" on="1"/>
        <pt x="90" y="0" on="1"/>
        <pt x="163" y="700" on="1"/>
        <pt x="522" y="700" on="1"/>
        <pt x="631" y="633" on="1"/>
      </contour>
      <contour>
        <pt x="223" y="317" on="1"/>
        <pt x="199" y="90" on="1"/>
        <pt x="474" y="90" on="1"/>
        <pt x="498" y="317" on="1"/>
      </contour>
      <contour>
        <pt x="254" y="610" on="1"/>
        <pt x="232" y="407" on="1"/>
        <pt x="507" y="407" on="1"/>
        <pt x="529" y="610" on="1"/>
      </contour>
    </TTGlyph>
    <TTGlyph name="C" xMin="96" yMin="-5" xMax="652" yMax="705">
      <contour>
        <pt x="503" y="175" on="1"/>
        <pt x="603" y="175" on="1"/>
        <pt x="591" y="62" on="1"/>
        <pt x="468" y="-5" on="1"/>
        <pt x="205" y="-5" on="1"/>
        <pt x="96" y="62" on="1"/>
        <pt x="157" y="638" on="1"/>
        <pt x="280" y="705" on="1"/>
        <pt x="543" y="705" on="1"/>
        <pt x="652" y="638" on="1"/>
        <pt x="640" y="525" on="1"/>
        <pt x="540" y="525" on="1"/>
        <pt x="549" y="615" on="1"/>
        <pt x="254" y="615" on="1"/>
        <pt x="198" y="85" on="1"/>
        <pt x="493" y="85" on="1"/>
      </contour>
    </TTGlyph>
    <TTGlyph name="Ccedilla" xMin="96" yMin="-199" xMax="652" yMax="705">
      <contour>
        <pt x="503" y="175" on="1"/>
        <pt x="603" y="175" on="1"/>
        <pt x="591" y="62" on="1"/>
        <pt x="468" y="-5" on="1"/>
        <pt x="362" y="-5" on="1"/>
        <pt x="340" y="-37" on="1"/>
        <pt x="402" y="-75" on="1"/>
        <pt x="394" y="-149" on="1"/>
        <pt x="303" y="-199" on="1"/>
        <pt x="233" y="-199" on="1"/>
        <pt x="238" y="-149" on="1"/>
        <pt x="337" y="-149" on="1"/>
        <pt x="344" y="-84" on="1"/>
        <pt x="255" y="-84" on="1"/>
        <pt x="308" y="-5" on="1"/>
        <pt x="205" y="-5" on="1"/>
        <pt x="96" y="62" on="1"/>
        <pt x="157" y="638" on="1"/>
        <pt x="280" y="705" on="1"/>
        <pt x="543" y="705" on="1"/>
        <pt x="652" y="638" on="1"/>
        <pt x="640" y="525" on="1"/>
        <pt x="540" y="525" on="1"/>
        <pt x="549" y="615" on="1"/>
        <pt x="254" y="615" on="1"/>
        <pt x="198" y="85" on="1"/>
        <pt x="493" y="85" on="1"/>
      </contour>
    </TTGlyph>
    <TTGlyph name="D" xMin="90" yMin="0" xMax="681" yMax="700">
      <contour>
        <pt x="622" y="67" on="1"/>
        <pt x="499" y="0" on="1"/>
        <pt x="90" y="0" on="1"/>
        <pt x="163" y="700" on="1"/>
        <pt x="572" y="700" on="1"/>
        <pt x="681" y="633" on="1"/>
      </contour>
      <contour>
        <pt x="254" y="610" on="1"/>
        <pt x="199" y="90" on="1"/>
        <pt x="524" y="90" on="1"/>
        <pt x="579" y="610" on="1"/>
      </contour>
    </TTGlyph>
    <TTGlyph name="E" xMin="90" yMin="0" xMax="562" yMax="700">
      <contour>
        <pt x="223" y="315" on="1"/>
        <pt x="199" y="90" on="1"/>
        <pt x="498" y="90" on="1"/>
        <pt x="489" y="0" on="1"/>
        <pt x="90" y="0" on="1"/>
        <pt x="163" y="700" on="1"/>
        <pt x="562" y="700" on="1"/>
        <pt x="553" y="610" on="1"/>
        <pt x="254" y="610" on="1"/>
        <pt x="232" y="405" on="1"/>
        <pt x="471" y="405" on="1"/>
        <pt x="462" y="315" on="1"/>
      </contour>
    </TTGlyph>
    <TTGlyph name="Eacute" xMin="90" yMin="0" xMax="562" yMax="908">
      <contour>
        <pt x="223" y="315" on="1"/>
        <pt x="199" y="90" on="1"/>
        <pt x="498" y="90" on="1"/>
        <pt x="489" y="0" on="1"/>
        <pt x="90" y="0" on="1"/>
        <pt x="163" y="700" on="1"/>
        <pt x="562" y="700" on="1"/>
        <pt x="553" y="610" on="1"/>
        <pt x="254" y="610" on="1"/>
        <pt x="232" y="405" on="1"/>
        <pt x="471" y="405" on="1"/>
        <pt x="462" y="315" on="1"/>
      </contour>
      <contour>
        <pt x="287" y="780" on="1"/>
        <pt x="394" y="908" on="1"/>
        <pt x="524" y="908" on="1"/>
        <pt x="367" y="780" on="1"/>
      </contour>
    </TTGlyph>
    <TTGlyph name="Ecircumflex" xMin="90" yMin="0" xMax="562" yMax="918">
      <contour>
        <pt x="223" y="315" on="1"/>
        <pt x="199" y="90" on="1"/>
        <pt x="498" y="90" on="1"/>
        <pt x="489" y="0" on="1"/>
        <pt x="90" y="0" on="1"/>
        <pt x="163" y="700" on="1"/>
        <pt x="562" y="700" on="1"/>
        <pt x="553" y="610" on="1"/>
        <pt x="254" y="610" on="1"/>
        <pt x="232" y="405" on="1"/>
        <pt x="471" y="405" on="1"/>
        <pt x="462" y="315" on="1"/>
      </contour>
      <contour>
        <pt x="312" y="918" on="1"/>
        <pt x="422" y="918" on="1"/>
        <pt x="509" y="780" on="1"/>
        <pt x="434" y="780" on="1"/>
        <pt x="361" y="860" on="1"/>
        <pt x="273" y="780" on="1"/>
        <pt x="198" y="780" on="1"/>
      </contour>
    </TTGlyph>
    <TTGlyph name="Edieresis" xMin="90" yMin="0" xMax="562" yMax="890">
      <contour>
        <pt x="223" y="315" on="1"/>
        <pt x="199" y="90" on="1"/>
        <pt x="498" y="90" on="1"/>
        <pt x="489" y="0" on="1"/>
        <pt x="90" y="0" on="1"/>
        <pt x="163" y="700" on="1"/>
        <pt x="562" y="700" on="1"/>
        <pt x="553" y="610" on="1"/>
        <pt x="254" y="610" on="1"/>
        <pt x="232" y="405" on="1"/>
        <pt x="471" y="405" on="1"/>
        <pt x="462" y="315" on="1"/>
      </contour>
      <contour>
        <pt x="192" y="785" on="1"/>
        <pt x="203" y="890" on="1"/>
        <pt x="308" y="890" on="1"/>
        <pt x="297" y="785" on="1"/>
      </contour>
      <contour>
        <pt x="411" y="785" on="1"/>
        <pt x="422" y="890" on="1"/>
        <pt x="527" y="890" on="1"/>
        <pt x="516" y="785" on="1"/>
      </contour>
    </TTGlyph>
    <TTGlyph name="Egrave" xMin="90" yMin="0" xMax="562" yMax="908">
      <contour>
        <pt x="223" y="315" on="1"/>
        <pt x="199" y="90" on="1"/>
        <pt x="498" y="90" on="1"/>
        <pt x="489" y="0" on="1"/>
        <pt x="90" y="0" on="1"/>
        <pt x="163" y="700" on="1"/>
        <pt x="562" y="700" on="1"/>
        <pt x="553" y="610" on="1"/>
        <pt x="254" y="610" on="1"/>
        <pt x="232" y="405" on="1"/>
        <pt x="471" y="405" on="1"/>
        <pt x="462" y="315" on="1"/>
      </contour>
      <contour>
        <pt x="330" y="908" on="1"/>
        <pt x="411" y="780" on="1"/>
        <pt x="331" y="780" on="1"/>
        <pt x="200" y="908" on="1"/>
      </contour>
    </TTGlyph>
    <TTGlyph name="Eth" xMin="50" yMin="0" xMax="681" yMax="700">
      <contour>
        <pt x="50" y="291" on="1"/>
        <pt x="58" y="365" on="1"/>
        <pt x="128" y="365" on="1"/>
        <pt x="163" y="700" on="1"/>
        <pt x="572" y="700" on="1"/>
        <pt x="681" y="633" on="1"/>
        <pt x="622" y="67" on="1"/>
        <pt x="499" y="0" on="1"/>
        <pt x="90" y="0" on="1"/>
        <pt x="120" y="291" on="1"/>
      </contour>
      <contour>
        <pt x="254" y="610" on="1"/>
        <pt x="228" y="365" on="1"/>
        <pt x="334" y="365" on="1"/>
        <pt x="326" y="291" on="1"/>
        <pt x="220" y="291" on="1"/>
        <pt x="199" y="90" on="1"/>
        <pt x="524" y="90" on="1"/>
        <pt x="579" y="610" on="1"/>
      </contour>
    </TTGlyph>
    <TTGlyph name="Euro" xMin="55" yMin="-5" xMax="661" yMax="705">
      <contour>
        <pt x="506" y="461" on="1"/>
        <pt x="455" y="387" on="1"/>
        <pt x="247" y="387" on="1"/>
        <pt x="239" y="313" on="1"/>
        <pt x="405" y="313" on="1"/>
        <pt x="355" y="239" on="1"/>
        <pt x="232" y="239" on="1"/>
        <pt x="215" y="85" on="1"/>
        <pt x="502" y="85" on="1"/>
        <pt x="512" y="175" on="1"/>
        <pt x="612" y="175" on="1"/>
        <pt x="600" y="62" on="1"/>
        <pt x="477" y="-5" on="1"/>
        <pt x="222" y="-5" on="1"/>
        <pt x="113" y="62" on="1"/>
        <pt x="132" y="239" on="1"/>
        <pt x="55" y="239" on="1"/>
        <pt x="62" y="313" on="1"/>
        <pt x="139" y="313" on="1"/>
        <pt x="147" y="387" on="1"/>
        <pt x="70" y="387" on="1"/>
        <pt x="78" y="461" on="1"/>
        <pt x="155" y="461" on="1"/>
        <pt x="174" y="638" on="1"/>
        <pt x="297" y="705" on="1"/>
        <pt x="552" y="705" on="1"/>
        <pt x="661" y="638" on="1"/>
        <pt x="649" y="525" on="1"/>
        <pt x="549" y="525" on="1"/>
        <pt x="558" y="615" on="1"/>
        <pt x="271" y="615" on="1"/>
        <pt x="255" y="461" on="1"/>
      </contour>
    </TTGlyph>
    <TTGlyph name="F" xMin="90" yMin="0" xMax="572" yMax="700">
      <contour>
        <pt x="223" y="315" on="1"/>
        <pt x="190" y="0" on="1"/>
        <pt x="90" y="0" on="1"/>
        <pt x="163" y="700" on="1"/>
        <pt x="572" y="700" on="1"/>
        <pt x="563" y="610" on="1"/>
        <pt x="254" y="610" on="1"/>
        <pt x="232" y="405" on="1"/>
        <pt x="481" y="405" on="1"/>
        <pt x="472" y="315" on="1"/>
      </contour>
    </TTGlyph>
    <TTGlyph name="G" xMin="96" yMin="-5" xMax="652" yMax="705">
      <contour>
        <pt x="397" y="260" on="1"/>
        <pt x="406" y="350" on="1"/>
        <pt x="621" y="350" on="1"/>
        <pt x="591" y="62" on="1"/>
        <pt x="468" y="-5" on="1"/>
        <pt x="205" y="-5" on="1"/>
        <pt x="96" y="62" on="1"/>
        <pt x="157" y="638" on="1"/>
        <pt x="280" y="705" on="1"/>
        <pt x="543" y="705" on="1"/>
        <pt x="652" y="638" on="1"/>
        <pt x="640" y="525" on="1"/>
        <pt x="540" y="525" on="1"/>
        <pt x="549" y="615" on="1"/>
        <pt x="254" y="615" on="1"/>
        <pt x="198" y="85" on="1"/>
        <pt x="493" y="85" on="1"/>
        <pt x="512" y="260" on="1"/>
      </contour>
    </TTGlyph>
    <TTGlyph name="H" xMin="90" yMin="0" xMax="698" yMax="700">
      <contour>
        <pt x="223" y="315" on="1"/>
        <pt x="190" y="0" on="1"/>
        <pt x="90" y="0" on="1"/>
        <pt x="163" y="700" on="1"/>
        <pt x="263" y="700" on="1"/>
        <pt x="232" y="405" on="1"/>
        <pt x="567" y="405" on="1"/>
        <pt x="598" y="700" on="1"/>
        <pt x="698" y="700" on="1"/>
        <pt x="625" y="0" on="1"/>
        <pt x="525" y="0" on="1"/>
        <pt x="558" y="315" on="1"/>
      </contour>
    </TTGlyph>
    <TTGlyph name="I" xMin="90" yMin="0" xMax="263" yMax="700">
      <contour>
        <pt x="90" y="0" on="1"/>
        <pt x="163" y="700" on="1"/>
        <pt x="263" y="700" on="1"/>
        <pt x="190" y="0" on="1"/>
      </contour>
    </TTGlyph>
    <TTGlyph name="IJ" xMin="90" yMin="-5" xMax="798" yMax="700">
      <contour>
        <pt x="90" y="0" on="1"/>
        <pt x="163" y="700" on="1"/>
        <pt x="263" y="700" on="1"/>
        <pt x="190" y="0" on="1"/>
      </contour>
      <contour>
        <pt x="633" y="85" on="1"/>
        <pt x="698" y="700" on="1"/>
        <pt x="798" y="700" on="1"/>
        <pt x="731" y="62" on="1"/>
        <pt x="608" y="-5" on="1"/>
        <pt x="415" y="-5" on="1"/>
        <pt x="306" y="62" on="1"/>
        <pt x="323" y="225" on="1"/>
        <pt x="423" y="225" on="1"/>
        <pt x="408" y="85" on="1"/>
      </contour>
    </TTGlyph>
    <TTGlyph name="Iacute" xMin="90" yMin="0" xMax="364" yMax="908">
      <contour>
        <pt x="90" y="0" on="1"/>
        <pt x="163" y="700" on="1"/>
        <pt x="263" y="700" on="1"/>
        <pt x="190" y="0" on="1"/>
      </contour>
      <contour>
        <pt x="127" y="780" on="1"/>
        <pt x="234" y="908" on="1"/>
        <pt x="364" y="908" on="1"/>
        <pt x="207" y="780" on="1"/>
      </contour>
    </TTGlyph>
    <TTGlyph name="Icircumflex" xMin="47" yMin="0" xMax="358" yMax="918">
      <contour>
        <pt x="90" y="0" on="1"/>
        <pt x="163" y="700" on="1"/>
        <pt x="263" y="700" on="1"/>
        <pt x="190" y="0" on="1"/>
      </contour>
      <contour>
        <pt x="161" y="918" on="1"/>
        <pt x="271" y="918" on="1"/>
        <pt x="358" y="780" on="1"/>
        <pt x="283" y="780" on="1"/>
        <pt x="210" y="860" on="1"/>
        <pt x="122" y="780" on="1"/>
        <pt x="47" y="780" on="1"/>
      </contour>
    </TTGlyph>
    <TTGlyph name="Idieresis" xMin="40" yMin="0" xMax="375" yMax="890">
      <contour>
        <pt x="90" y="0" on="1"/>
        <pt x="163" y="700" on="1"/>
        <pt x="263" y="700" on="1"/>
        <pt x="190" y="0" on="1"/>
      </contour>
      <contour>
        <pt x="40" y="785" on="1"/>
        <pt x="51" y="890" on="1"/>
        <pt x="156" y="890" on="1"/>
        <pt x="145" y="785" on="1"/>
      </contour>
      <contour>
        <pt x="259" y="785" on="1"/>
        <pt x="270" y="890" on="1"/>
        <pt x="375" y="890" on="1"/>
        <pt x="364" y="785" on="1"/>
      </contour>
    </TTGlyph>
    <TTGlyph name="Igrave" xMin="66" yMin="0" xMax="277" yMax="908">
      <contour>
        <pt x="90" y="0" on="1"/>
        <pt x="163" y="700" on="1"/>
        <pt x="263" y="700" on="1"/>
        <pt x="190" y="0" on="1"/>
      </contour>
      <contour>
        <pt x="196" y="908" on="1"/>
        <pt x="277" y="780" on="1"/>
        <pt x="197" y="780" on="1"/>
        <pt x="66" y="908" on="1"/>
      </contour>
    </TTGlyph>
    <TTGlyph name="Itilde" xMin="68" yMin="0" xMax="390" yMax="934">
      <component glyphName="I" x="0" y="0" flags="0x1004"/>
      <component glyphName="tilde" x="-93" y="200" flags="0x1004"/>
    </TTGlyph>
    <TTGlyph name="J" xMin="26" yMin="-5" xMax="518" yMax="700">
      <contour>
        <pt x="353" y="85" on="1"/>
        <pt x="418" y="700" on="1"/>
        <pt x="518" y="700" on="1"/>
        <pt x="451" y="62" on="1"/>
        <pt x="328" y="-5" on="1"/>
        <pt x="135" y="-5" on="1"/>
        <pt x="26" y="62" on="1"/>
        <pt x="43" y="225" on="1"/>
        <pt x="143" y="225" on="1"/>
        <pt x="128" y="85" on="1"/>
      </contour>
    </TTGlyph>
    <TTGlyph name="Jcircumflex" xMin="26" yMin="-5" xMax="613" yMax="928">
      <component glyphName="J" x="0" y="0" flags="0x1004"/>
      <component glyphName="circumflex" x="130" y="200" flags="0x1004"/>
    </TTGlyph>
    <TTGlyph name="K" xMin="90" yMin="0" xMax="694" yMax="700">
      <contour>
        <pt x="90" y="0" on="1"/>
        <pt x="163" y="700" on="1"/>
        <pt x="263" y="700" on="1"/>
        <pt x="224" y="330" on="1"/>
        <pt x="226" y="330" on="1"/>
        <pt x="574" y="700" on="1"/>
        <pt x="694" y="700" on="1"/>
        <pt x="385" y="373" on="1"/>
        <pt x="653" y="0" on="1"/>
        <pt x="531" y="0" on="1"/>
        <pt x="316" y="301" on="1"/>
        <pt x="209" y="188" on="1"/>
        <pt x="190" y="0" on="1"/>
      </contour>
    </TTGlyph>
    <TTGlyph name="L" xMin="90" yMin="0" xMax="458" yMax="700">
      <contour>
        <pt x="90" y="0" on="1"/>
        <pt x="163" y="700" on="1"/>
        <pt x="263" y="700" on="1"/>
        <pt x="199" y="90" on="1"/>
        <pt x="458" y="90" on="1"/>
        <pt x="449" y="0" on="1"/>
      </contour>
    </TTGlyph>
    <TTGlyph name="Ldotaccent" xMin="90" yMin="0" xMax="458" yMax="700">
      <contour>
        <pt x="90" y="0" on="1"/>
        <pt x="163" y="700" on="1"/>
        <pt x="263" y="700" on="1"/>
        <pt x="199" y="90" on="1"/>
        <pt x="458" y="90" on="1"/>
        <pt x="449" y="0" on="1"/>
      </contour>
      <contour>
        <pt x="308" y="232" on="1"/>
        <pt x="320" y="352" on="1"/>
        <pt x="440" y="352" on="1"/>
        <pt x="428" y="232" on="1"/>
      </contour>
    </TTGlyph>
    <TTGlyph name="Lslash" xMin="50" yMin="0" xMax="458" yMax="700">
      <contour>
        <pt x="50" y="291" on="1"/>
        <pt x="58" y="365" on="1"/>
        <pt x="129" y="380" on="1"/>
        <pt x="163" y="700" on="1"/>
        <pt x="263" y="700" on="1"/>
        <pt x="232" y="402" on="1"/>
        <pt x="340" y="425" on="1"/>
        <pt x="332" y="351" on="1"/>
        <pt x="224" y="328" on="1"/>
        <pt x="199" y="90" on="1"/>
        <pt x="458" y="90" on="1"/>
        <pt x="449" y="0" on="1"/>
        <pt x="90" y="0" on="1"/>
        <pt x="122" y="306" on="1"/>
      </contour>
    </TTGlyph>
    <TTGlyph name="M" xMin="90" yMin="0" xMax="868" yMax="700">
      <contour>
        <pt x="700" y="0" on="1"/>
        <pt x="759" y="570" on="1"/>
        <pt x="757" y="570" on="1"/>
        <pt x="492" y="0" on="1"/>
        <pt x="392" y="0" on="1"/>
        <pt x="246" y="570" on="1"/>
        <pt x="244" y="570" on="1"/>
        <pt x="185" y="0" on="1"/>
        <pt x="90" y="0" on="1"/>
        <pt x="163" y="700" on="1"/>
        <pt x="304" y="700" on="1"/>
        <pt x="453" y="116" on="1"/>
        <pt x="455" y="116" on="1"/>
        <pt x="727" y="700" on="1"/>
        <pt x="868" y="700" on="1"/>
        <pt x="795" y="0" on="1"/>
      </contour>
    </TTGlyph>
    <TTGlyph name="N" xMin="90" yMin="0" xMax="718" yMax="700">
      <contour>
        <pt x="245" y="529" on="1"/>
        <pt x="190" y="0" on="1"/>
        <pt x="90" y="0" on="1"/>
        <pt x="163" y="700" on="1"/>
        <pt x="254" y="700" on="1"/>
        <pt x="560" y="171" on="1"/>
        <pt x="562" y="171" on="1"/>
        <pt x="618" y="700" on="1"/>
        <pt x="718" y="700" on="1"/>
        <pt x="645" y="0" on="1"/>
        <pt x="554" y="0" on="1"/>
        <pt x="247" y="529" on="1"/>
      </contour>
    </TTGlyph>
    <TTGlyph name="Nacute" xMin="90" yMin="0" xMax="718" yMax="918">
      <component glyphName="N" x="0" y="0" flags="0x1004"/>
      <component glyphName="acute" x="125" y="200" flags="0x1004"/>
    </TTGlyph>
    <TTGlyph name="Ntilde" xMin="90" yMin="0" xMax="718" yMax="924">
      <contour>
        <pt x="245" y="529" on="1"/>
        <pt x="190" y="0" on="1"/>
        <pt x="90" y="0" on="1"/>
        <pt x="163" y="700" on="1"/>
        <pt x="254" y="700" on="1"/>
        <pt x="560" y="171" on="1"/>
        <pt x="562" y="171" on="1"/>
        <pt x="618" y="700" on="1"/>
        <pt x="718" y="700" on="1"/>
        <pt x="645" y="0" on="1"/>
        <pt x="554" y="0" on="1"/>
        <pt x="247" y="529" on="1"/>
      </contour>
      <contour>
        <pt x="346" y="857" on="1"/>
        <pt x="344" y="857" on="1"/>
        <pt x="335" y="775" on="1"/>
        <pt x="267" y="775" on="1"/>
        <pt x="277" y="869" on="1"/>
        <pt x="377" y="924" on="1"/>
        <pt x="510" y="842" on="1"/>
        <pt x="512" y="842" on="1"/>
        <pt x="521" y="924" on="1"/>
        <pt x="589" y="924" on="1"/>
        <pt x="579" y="830" on="1"/>
        <pt x="479" y="775" on="1"/>
      </contour>
    </TTGlyph>
    <TTGlyph name="O" xMin="96" yMin="-5" xMax="682" yMax="705">
      <contour>
        <pt x="621" y="62" on="1"/>
        <pt x="498" y="-5" on="1"/>
        <pt x="205" y="-5" on="1"/>
        <pt x="96" y="62" on="1"/>
        <pt x="157" y="638" on="1"/>
        <pt x="280" y="705" on="1"/>
        <pt x="573" y="705" on="1"/>
        <pt x="682" y="638" on="1"/>
      </contour>
      <contour>
        <pt x="254" y="615" on="1"/>
        <pt x="198" y="85" on="1"/>
        <pt x="523" y="85" on="1"/>
        <pt x="579" y="615" on="1"/>
      </contour>
    </TTGlyph>
    <TTGlyph name="OE" xMin="97" yMin="0" xMax="987" yMax="700">
      <contour>
        <pt x="648" y="315" on="1"/>
        <pt x="624" y="90" on="1"/>
        <pt x="923" y="90" on="1"/>
        <pt x="914" y="0" on="1"/>
        <pt x="206" y="0" on="1"/>
        <pt x="97" y="67" on="1"/>
        <pt x="156" y="633" on="1"/>
        <pt x="279" y="700" on="1"/>
        <pt x="987" y="700" on="1"/>
        <pt x="978" y="610" on="1"/>
        <pt x="679" y="610" on="1"/>
        <pt x="657" y="405" on="1"/>
        <pt x="896" y="405" on="1"/>
        <pt x="887" y="315" on="1"/>
      </contour>
      <contour>
        <pt x="254" y="610" on="1"/>
        <pt x="199" y="90" on="1"/>
        <pt x="524" y="90" on="1"/>
        <pt x="579" y="610" on="1"/>
      </contour>
    </TTGlyph>
    <TTGlyph name="Oacute" xMin="96" yMin="-5" xMax="682" yMax="908">
      <contour>
        <pt x="621" y="62" on="1"/>
        <pt x="498" y="-5" on="1"/>
        <pt x="205" y="-5" on="1"/>
        <pt x="96" y="62" on="1"/>
        <pt x="157" y="638" on="1"/>
        <pt x="280" y="705" on="1"/>
        <pt x="573" y="705" on="1"/>
        <pt x="682" y="638" on="1"/>
      </contour>
      <contour>
        <pt x="254" y="615" on="1"/>
        <pt x="198" y="85" on="1"/>
        <pt x="523" y="85" on="1"/>
        <pt x="579" y="615" on="1"/>
      </contour>
      <contour>
        <pt x="340" y="780" on="1"/>
        <pt x="447" y="908" on="1"/>
        <pt x="577" y="908" on="1"/>
        <pt x="420" y="780" on="1"/>
      </contour>
    </TTGlyph>
    <TTGlyph name="Ocircumflex" xMin="96" yMin="-5" xMax="682" yMax="918">
      <contour>
        <pt x="621" y="62" on="1"/>
        <pt x="498" y="-5" on="1"/>
        <pt x="205" y="-5" on="1"/>
        <pt x="96" y="62" on="1"/>
        <pt x="157" y="638" on="1"/>
        <pt x="280" y="705" on="1"/>
        <pt x="573" y="705" on="1"/>
        <pt x="682" y="638" on="1"/>
      </contour>
      <contour>
        <pt x="254" y="615" on="1"/>
        <pt x="198" y="85" on="1"/>
        <pt x="523" y="85" on="1"/>
        <pt x="579" y="615" on="1"/>
      </contour>
      <contour>
        <pt x="373" y="918" on="1"/>
        <pt x="483" y="918" on="1"/>
        <pt x="570" y="780" on="1"/>
        <pt x="495" y="780" on="1"/>
        <pt x="422" y="860" on="1"/>
        <pt x="334" y="780" on="1"/>
        <pt x="259" y="780" on="1"/>
      </contour>
    </TTGlyph>
    <TTGlyph name="Odieresis" xMin="96" yMin="-5" xMax="682" yMax="890">
      <contour>
        <pt x="621" y="62" on="1"/>
        <pt x="498" y="-5" on="1"/>
        <pt x="205" y="-5" on="1"/>
        <pt x="96" y="62" on="1"/>
        <pt x="157" y="638" on="1"/>
        <pt x="280" y="705" on="1"/>
        <pt x="573" y="705" on="1"/>
        <pt x="682" y="638" on="1"/>
      </contour>
      <contour>
        <pt x="254" y="615" on="1"/>
        <pt x="198" y="85" on="1"/>
        <pt x="523" y="85" on="1"/>
        <pt x="579" y="615" on="1"/>
      </contour>
      <contour>
        <pt x="258" y="785" on="1"/>
        <pt x="269" y="890" on="1"/>
        <pt x="374" y="890" on="1"/>
        <pt x="363" y="785" on="1"/>
      </contour>
      <contour>
        <pt x="477" y="785" on="1"/>
        <pt x="488" y="890" on="1"/>
        <pt x="593" y="890" on="1"/>
        <pt x="582" y="785" on="1"/>
      </contour>
    </TTGlyph>
    <TTGlyph name="Ograve" xMin="96" yMin="-5" xMax="682" yMax="908">
      <contour>
        <pt x="621" y="62" on="1"/>
        <pt x="498" y="-5" on="1"/>
        <pt x="205" y="-5" on="1"/>
        <pt x="96" y="62" on="1"/>
        <pt x="157" y="638" on="1"/>
        <pt x="280" y="705" on="1"/>
        <pt x="573" y="705" on="1"/>
        <pt x="682" y="638" on="1"/>
      </contour>
      <contour>
        <pt x="254" y="615" on="1"/>
        <pt x="198" y="85" on="1"/>
        <pt x="523" y="85" on="1"/>
        <pt x="579" y="615" on="1"/>
      </contour>
      <contour>
        <pt x="400" y="908" on="1"/>
        <pt x="481" y="780" on="1"/>
        <pt x="401" y="780" on="1"/>
        <pt x="270" y="908" on="1"/>
      </contour>
    </TTGlyph>
    <TTGlyph name="Oslash" xMin="96" yMin="-5" xMax="682" yMax="705">
      <contour>
        <pt x="621" y="62" on="1"/>
        <pt x="498" y="-5" on="1"/>
        <pt x="205" y="-5" on="1"/>
        <pt x="96" y="62" on="1"/>
        <pt x="157" y="638" on="1"/>
        <pt x="280" y="705" on="1"/>
        <pt x="573" y="705" on="1"/>
        <pt x="682" y="638" on="1"/>
      </contour>
      <contour>
        <pt x="254" y="615" on="1"/>
        <pt x="205" y="150" on="1"/>
        <pt x="539" y="615" on="1"/>
      </contour>
      <contour>
        <pt x="238" y="85" on="1"/>
        <pt x="523" y="85" on="1"/>
        <pt x="572" y="550" on="1"/>
      </contour>
    </TTGlyph>
    <TTGlyph name="Otilde" xMin="96" yMin="-5" xMax="682" yMax="924">
      <contour>
        <pt x="621" y="62" on="1"/>
        <pt x="498" y="-5" on="1"/>
        <pt x="205" y="-5" on="1"/>
        <pt x="96" y="62" on="1"/>
        <pt x="157" y="638" on="1"/>
        <pt x="280" y="705" on="1"/>
        <pt x="573" y="705" on="1"/>
        <pt x="682" y="638" on="1"/>
      </contour>
      <contour>
        <pt x="254" y="615" on="1"/>
        <pt x="198" y="85" on="1"/>
        <pt x="523" y="85" on="1"/>
        <pt x="579" y="615" on="1"/>
      </contour>
      <contour>
        <pt x="340" y="857" on="1"/>
        <pt x="338" y="857" on="1"/>
        <pt x="329" y="775" on="1"/>
        <pt x="261" y="775" on="1"/>
        <pt x="271" y="869" on="1"/>
        <pt x="371" y="924" on="1"/>
        <pt x="504" y="842" on="1"/>
        <pt x="506" y="842" on="1"/>
        <pt x="515" y="924" on="1"/>
        <pt x="583" y="924" on="1"/>
        <pt x="573" y="830" on="1"/>
        <pt x="473" y="775" on="1"/>
      </contour>
    </TTGlyph>
    <TTGlyph name="P" xMin="90" yMin="0" xMax="621" yMax="700">
      <contour>
        <pt x="90" y="0" on="1"/>
        <pt x="163" y="700" on="1"/>
        <pt x="512" y="700" on="1"/>
        <pt x="621" y="633" on="1"/>
        <pt x="590" y="336" on="1"/>
        <pt x="467" y="269" on="1"/>
        <pt x="218" y="269" on="1"/>
        <pt x="190" y="0" on="1"/>
      </contour>
      <contour>
        <pt x="254" y="610" on="1"/>
        <pt x="227" y="359" on="1"/>
        <pt x="492" y="359" on="1"/>
        <pt x="519" y="610" on="1"/>
      </contour>
    </TTGlyph>
    <TTGlyph name="Q" xMin="96" yMin="-200" xMax="682" yMax="705">
      <contour>
        <pt x="254" y="615" on="1"/>
        <pt x="198" y="85" on="1"/>
        <pt x="523" y="85" on="1"/>
        <pt x="579" y="615" on="1"/>
      </contour>
      <contour>
        <pt x="390" y="-5" on="1"/>
        <pt x="205" y="-5" on="1"/>
        <pt x="96" y="62" on="1"/>
        <pt x="157" y="638" on="1"/>
        <pt x="280" y="705" on="1"/>
        <pt x="573" y="705" on="1"/>
        <pt x="682" y="638" on="1"/>
        <pt x="621" y="62" on="1"/>
        <pt x="498" y="-5" on="1"/>
        <pt x="590" y="-200" on="1"/>
        <pt x="479" y="-200" on="1"/>
      </contour>
    </TTGlyph>
    <TTGlyph name="R" xMin="90" yMin="0" xMax="631" yMax="700">
      <contour>
        <pt x="370" y="279" on="1"/>
        <pt x="219" y="279" on="1"/>
        <pt x="190" y="0" on="1"/>
        <pt x="90" y="0" on="1"/>
        <pt x="163" y="700" on="1"/>
        <pt x="522" y="700" on="1"/>
        <pt x="631" y="633" on="1"/>
        <pt x="601" y="346" on="1"/>
        <pt x="478" y="279" on="1"/>
        <pt x="610" y="0" on="1"/>
        <pt x="499" y="0" on="1"/>
      </contour>
      <contour>
        <pt x="254" y="610" on="1"/>
        <pt x="228" y="369" on="1"/>
        <pt x="503" y="369" on="1"/>
        <pt x="529" y="610" on="1"/>
      </contour>
    </TTGlyph>
    <TTGlyph name="Racute" xMin="90" yMin="0" xMax="631" yMax="918">
      <component glyphName="R" x="0" y="0" flags="0x1004"/>
      <component glyphName="acute" x="30" y="200" flags="0x1004"/>
    </TTGlyph>
    <TTGlyph name="Rcaron" xMin="90" yMin="0" xMax="631" yMax="928">
      <component glyphName="R" x="0" y="0" flags="0x1004"/>
      <component glyphName="caron" x="62" y="200" flags="0x1004"/>
    </TTGlyph>
    <TTGlyph name="Rcommaaccent" xMin="90" yMin="-335" xMax="631" yMax="700">
      <contour>
        <pt x="370" y="279" on="1"/>
        <pt x="219" y="279" on="1"/>
        <pt x="190" y="0" on="1"/>
        <pt x="90" y="0" on="1"/>
        <pt x="163" y="700" on="1"/>
        <pt x="522" y="700" on="1"/>
        <pt x="631" y="633" on="1"/>
        <pt x="601" y="346" on="1"/>
        <pt x="478" y="279" on="1"/>
        <pt x="610" y="0" on="1"/>
        <pt x="499" y="0" on="1"/>
      </contour>
      <contour>
        <pt x="254" y="610" on="1"/>
        <pt x="228" y="369" on="1"/>
        <pt x="503" y="369" on="1"/>
        <pt x="529" y="610" on="1"/>
      </contour>
      <contour>
        <pt x="236" y="-335" on="1"/>
        <pt x="266" y="-55" on="1"/>
        <pt x="386" y="-55" on="1"/>
        <pt x="382" y="-89" on="1"/>
        <pt x="270" y="-335" on="1"/>
      </contour>
    </TTGlyph>
    <TTGlyph name="S" xMin="86" yMin="-5" xMax="622" yMax="705">
      <contour>
        <pt x="128" y="370" on="1"/>
        <pt x="157" y="638" on="1"/>
        <pt x="280" y="705" on="1"/>
        <pt x="513" y="705" on="1"/>
        <pt x="622" y="638" on="1"/>
        <pt x="611" y="535" on="1"/>
        <pt x="511" y="535" on="1"/>
        <pt x="519" y="615" on="1"/>
        <pt x="254" y="615" on="1"/>
        <pt x="232" y="403" on="1"/>
        <pt x="481" y="403" on="1"/>
        <pt x="590" y="336" on="1"/>
        <pt x="561" y="62" on="1"/>
        <pt x="438" y="-5" on="1"/>
        <pt x="195" y="-5" on="1"/>
        <pt x="86" y="62" on="1"/>
        <pt x="97" y="165" on="1"/>
        <pt x="197" y="165" on="1"/>
        <pt x="188" y="85" on="1"/>
        <pt x="463" y="85" on="1"/>
        <pt x="486" y="303" on="1"/>
        <pt x="237" y="303" on="1"/>
      </contour>
    </TTGlyph>
    <TTGlyph name="Scaron" xMin="86" yMin="-5" xMax="622" yMax="918">
      <contour>
        <pt x="128" y="370" on="1"/>
        <pt x="157" y="638" on="1"/>
        <pt x="280" y="705" on="1"/>
        <pt x="513" y="705" on="1"/>
        <pt x="622" y="638" on="1"/>
        <pt x="611" y="535" on="1"/>
        <pt x="511" y="535" on="1"/>
        <pt x="519" y="615" on="1"/>
        <pt x="254" y="615" on="1"/>
        <pt x="232" y="403" on="1"/>
        <pt x="481" y="403" on="1"/>
        <pt x="590" y="336" on="1"/>
        <pt x="561" y="62" on="1"/>
        <pt x="438" y="-5" on="1"/>
        <pt x="195" y="-5" on="1"/>
        <pt x="86" y="62" on="1"/>
        <pt x="97" y="165" on="1"/>
        <pt x="197" y="165" on="1"/>
        <pt x="188" y="85" on="1"/>
        <pt x="463" y="85" on="1"/>
        <pt x="486" y="303" on="1"/>
        <pt x="237" y="303" on="1"/>
      </contour>
      <contour>
        <pt x="442" y="780" on="1"/>
        <pt x="332" y="780" on="1"/>
        <pt x="246" y="918" on="1"/>
        <pt x="321" y="918" on="1"/>
        <pt x="393" y="838" on="1"/>
        <pt x="482" y="918" on="1"/>
        <pt x="557" y="918" on="1"/>
      </contour>
    </TTGlyph>
    <TTGlyph name="T" xMin="94" yMin="0" xMax="601" yMax="700">
      <contour>
        <pt x="393" y="610" on="1"/>
        <pt x="329" y="0" on="1"/>
        <pt x="229" y="0" on="1"/>
        <pt x="293" y="610" on="1"/>
        <pt x="94" y="610" on="1"/>
        <pt x="103" y="700" on="1"/>
        <pt x="601" y="700" on="1"/>
        <pt x="592" y="610" on="1"/>
      </contour>
    </TTGlyph>
    <TTGlyph name="Thorn" xMin="90" yMin="0" xMax="609" yMax="730">
      <contour>
        <pt x="90" y="0" on="1"/>
        <pt x="166" y="730" on="1"/>
        <pt x="266" y="730" on="1"/>
        <pt x="251" y="587" on="1"/>
        <pt x="500" y="587" on="1"/>
        <pt x="609" y="520" on="1"/>
        <pt x="578" y="223" on="1"/>
        <pt x="455" y="156" on="1"/>
        <pt x="206" y="156" on="1"/>
        <pt x="190" y="0" on="1"/>
      </contour>
      <contour>
        <pt x="242" y="497" on="1"/>
        <pt x="215" y="246" on="1"/>
        <pt x="480" y="246" on="1"/>
        <pt x="507" y="497" on="1"/>
      </contour>
    </TTGlyph>
    <TTGlyph name="U" xMin="96" yMin="-5" xMax="688" yMax="700">
      <contour>
        <pt x="588" y="700" on="1"/>
        <pt x="688" y="700" on="1"/>
        <pt x="621" y="62" on="1"/>
        <pt x="498" y="-5" on="1"/>
        <pt x="205" y="-5" on="1"/>
        <pt x="96" y="62" on="1"/>
        <pt x="163" y="700" on="1"/>
        <pt x="263" y="700" on="1"/>
        <pt x="199" y="95" on="1"/>
        <pt x="524" y="95" on="1"/>
      </contour>
    </TTGlyph>
    <TTGlyph name="Uacute" xMin="96" yMin="-5" xMax="688" yMax="908">
      <contour>
        <pt x="588" y="700" on="1"/>
        <pt x="688" y="700" on="1"/>
        <pt x="621" y="62" on="1"/>
        <pt x="498" y="-5" on="1"/>
        <pt x="205" y="-5" on="1"/>
        <pt x="96" y="62" on="1"/>
        <pt x="163" y="700" on="1"/>
        <pt x="263" y="700" on="1"/>
        <pt x="199" y="95" on="1"/>
        <pt x="524" y="95" on="1"/>
      </contour>
      <contour>
        <pt x="357" y="780" on="1"/>
        <pt x="464" y="908" on="1"/>
        <pt x="594" y="908" on="1"/>
        <pt x="437" y="780" on="1"/>
      </contour>
    </TTGlyph>
    <TTGlyph name="Ucircumflex" xMin="96" yMin="-5" xMax="688" yMax="918">
      <contour>
        <pt x="588" y="700" on="1"/>
        <pt x="688" y="700" on="1"/>
        <pt x="621" y="62" on="1"/>
        <pt x="498" y="-5" on="1"/>
        <pt x="205" y="-5" on="1"/>
        <pt x="96" y="62" on="1"/>
        <pt x="163" y="700" on="1"/>
        <pt x="263" y="700" on="1"/>
        <pt x="199" y="95" on="1"/>
        <pt x="524" y="95" on="1"/>
      </contour>
      <contour>
        <pt x="373" y="918" on="1"/>
        <pt x="483" y="918" on="1"/>
        <pt x="570" y="780" on="1"/>
        <pt x="495" y="780" on="1"/>
        <pt x="422" y="860" on="1"/>
        <pt x="334" y="780" on="1"/>
        <pt x="259" y="780" on="1"/>
      </contour>
    </TTGlyph>
    <TTGlyph name="Udieresis" xMin="96" yMin="-5" xMax="688" yMax="890">
      <contour>
        <pt x="588" y="700" on="1"/>
        <pt x="688" y="700" on="1"/>
        <pt x="621" y="62" on="1"/>
        <pt x="498" y="-5" on="1"/>
        <pt x="205" y="-5" on="1"/>
        <pt x="96" y="62" on="1"/>
        <pt x="163" y="700" on="1"/>
        <pt x="263" y="700" on="1"/>
        <pt x="199" y="95" on="1"/>
        <pt x="524" y="95" on="1"/>
      </contour>
      <contour>
        <pt x="252" y="785" on="1"/>
        <pt x="263" y="890" on="1"/>
        <pt x="368" y="890" on="1"/>
        <pt x="357" y="785" on="1"/>
      </contour>
      <contour>
        <pt x="471" y="785" on="1"/>
        <pt x="482" y="890" on="1"/>
        <pt x="587" y="890" on="1"/>
        <pt x="576" y="785" on="1"/>
      </contour>
    </TTGlyph>
    <TTGlyph name="Ugrave" xMin="96" yMin="-5" xMax="688" yMax="908">
      <contour>
        <pt x="588" y="700" on="1"/>
        <pt x="688" y="700" on="1"/>
        <pt x="621" y="62" on="1"/>
        <pt x="498" y="-5" on="1"/>
        <pt x="205" y="-5" on="1"/>
        <pt x="96" y="62" on="1"/>
        <pt x="163" y="700" on="1"/>
        <pt x="263" y="700" on="1"/>
        <pt x="199" y="95" on="1"/>
        <pt x="524" y="95" on="1"/>
      </contour>
      <contour>
        <pt x="380" y="908" on="1"/>
        <pt x="461" y="780" on="1"/>
        <pt x="381" y="780" on="1"/>
        <pt x="250" y="908" on="1"/>
      </contour>
    </TTGlyph>
    <TTGlyph name="V" xMin="93" yMin="0" xMax="717" yMax="700">
      <contour>
        <pt x="717" y="700" on="1"/>
        <pt x="394" y="0" on="1"/>
        <pt x="270" y="0" on="1"/>
        <pt x="93" y="700" on="1"/>
        <pt x="194" y="700" on="1"/>
        <pt x="341" y="103" on="1"/>
        <pt x="343" y="103" on="1"/>
        <pt x="616" y="700" on="1"/>
      </contour>
    </TTGlyph>
    <TTGlyph name="W" xMin="103" yMin="0" xMax="999" yMax="700">
      <contour>
        <pt x="999" y="700" on="1"/>
        <pt x="746" y="0" on="1"/>
        <pt x="627" y="0" on="1"/>
        <pt x="537" y="561" on="1"/>
        <pt x="535" y="561" on="1"/>
        <pt x="329" y="0" on="1"/>
        <pt x="210" y="0" on="1"/>
        <pt x="103" y="700" on="1"/>
        <pt x="200" y="700" on="1"/>
        <pt x="282" y="128" on="1"/>
        <pt x="284" y="128" on="1"/>
        <pt x="495" y="700" on="1"/>
        <pt x="607" y="700" on="1"/>
        <pt x="697" y="128" on="1"/>
        <pt x="699" y="128" on="1"/>
        <pt x="902" y="700" on="1"/>
      </contour>
    </TTGlyph>
    <TTGlyph name="X" xMin="30" yMin="0" xMax="684" yMax="700">
      <contour>
        <pt x="30" y="0" on="1"/>
        <pt x="307" y="357" on="1"/>
        <pt x="113" y="700" on="1"/>
        <pt x="225" y="700" on="1"/>
        <pt x="371" y="440" on="1"/>
        <pt x="572" y="700" on="1"/>
        <pt x="684" y="700" on="1"/>
        <pt x="417" y="357" on="1"/>
        <pt x="621" y="0" on="1"/>
        <pt x="509" y="0" on="1"/>
        <pt x="353" y="275" on="1"/>
        <pt x="142" y="0" on="1"/>
      </contour>
    </TTGlyph>
    <TTGlyph name="Y" xMin="93" yMin="0" xMax="664" yMax="700">
      <contour>
        <pt x="255" y="0" on="1"/>
        <pt x="287" y="309" on="1"/>
        <pt x="93" y="700" on="1"/>
        <pt x="205" y="700" on="1"/>
        <pt x="346" y="402" on="1"/>
        <pt x="348" y="402" on="1"/>
        <pt x="552" y="700" on="1"/>
        <pt x="664" y="700" on="1"/>
        <pt x="387" y="308" on="1"/>
        <pt x="355" y="0" on="1"/>
      </contour>
    </TTGlyph>
    <TTGlyph name="Yacute" xMin="93" yMin="0" xMax="664" yMax="908">
      <contour>
        <pt x="255" y="0" on="1"/>
        <pt x="287" y="309" on="1"/>
        <pt x="93" y="700" on="1"/>
        <pt x="205" y="700" on="1"/>
        <pt x="346" y="402" on="1"/>
        <pt x="348" y="402" on="1"/>
        <pt x="552" y="700" on="1"/>
        <pt x="664" y="700" on="1"/>
        <pt x="387" y="308" on="1"/>
        <pt x="355" y="0" on="1"/>
      </contour>
      <contour>
        <pt x="317" y="780" on="1"/>
        <pt x="424" y="908" on="1"/>
        <pt x="554" y="908" on="1"/>
        <pt x="397" y="780" on="1"/>
      </contour>
    </TTGlyph>
    <TTGlyph name="Ydieresis" xMin="93" yMin="0" xMax="664" yMax="890">
      <contour>
        <pt x="255" y="0" on="1"/>
        <pt x="287" y="309" on="1"/>
        <pt x="93" y="700" on="1"/>
        <pt x="205" y="700" on="1"/>
        <pt x="346" y="402" on="1"/>
        <pt x="348" y="402" on="1"/>
        <pt x="552" y="700" on="1"/>
        <pt x="664" y="700" on="1"/>
        <pt x="387" y="308" on="1"/>
        <pt x="355" y="0" on="1"/>
      </contour>
      <contour>
        <pt x="205" y="785" on="1"/>
        <pt x="216" y="890" on="1"/>
        <pt x="321" y="890" on="1"/>
        <pt x="310" y="785" on="1"/>
      </contour>
      <contour>
        <pt x="424" y="785" on="1"/>
        <pt x="435" y="890" on="1"/>
        <pt x="540" y="890" on="1"/>
        <pt x="529" y="785" on="1"/>
      </contour>
    </TTGlyph>
    <TTGlyph name="Z" xMin="50" yMin="0" xMax="598" yMax="700">
      <contour>
        <pt x="134" y="610" on="1"/>
        <pt x="143" y="700" on="1"/>
        <pt x="598" y="700" on="1"/>
        <pt x="592" y="640" on="1"/>
        <pt x="189" y="92" on="1"/>
        <pt x="189" y="90" on="1"/>
        <pt x="534" y="90" on="1"/>
        <pt x="525" y="0" on="1"/>
        <pt x="50" y="0" on="1"/>
        <pt x="56" y="60" on="1"/>
        <pt x="458" y="608" on="1"/>
        <pt x="459" y="610" on="1"/>
      </contour>
    </TTGlyph>
    <TTGlyph name="Zcaron" xMin="50" yMin="0" xMax="598" yMax="918">
      <contour>
        <pt x="134" y="610" on="1"/>
        <pt x="143" y="700" on="1"/>
        <pt x="598" y="700" on="1"/>
        <pt x="592" y="640" on="1"/>
        <pt x="189" y="92" on="1"/>
        <pt x="189" y="90" on="1"/>
        <pt x="534" y="90" on="1"/>
        <pt x="525" y="0" on="1"/>
        <pt x="50" y="0" on="1"/>
        <pt x="56" y="60" on="1"/>
        <pt x="458" y="608" on="1"/>
        <pt x="459" y="610" on="1"/>
      </contour>
      <contour>
        <pt x="406" y="780" on="1"/>
        <pt x="296" y="780" on="1"/>
        <pt x="210" y="918" on="1"/>
        <pt x="285" y="918" on="1"/>
        <pt x="357" y="838" on="1"/>
        <pt x="446" y="918" on="1"/>
        <pt x="521" y="918" on="1"/>
      </contour>
    </TTGlyph>
    <TTGlyph name="a" xMin="86" yMin="-5" xMax="548" yMax="505">
      <contour>
        <pt x="220" y="418" on="1"/>
        <pt x="185" y="82" on="1"/>
        <pt x="406" y="82" on="1"/>
        <pt x="441" y="418" on="1"/>
      </contour>
      <contour>
        <pt x="548" y="505" on="1"/>
        <pt x="494" y="-5" on="1"/>
        <pt x="468" y="-5" on="1"/>
        <pt x="401" y="36" on="1"/>
        <pt x="326" y="-5" on="1"/>
        <pt x="195" y="-5" on="1"/>
        <pt x="86" y="62" on="1"/>
        <pt x="126" y="438" on="1"/>
        <pt x="249" y="505" on="1"/>
        <pt x="380" y="505" on="1"/>
        <pt x="446" y="464" on="1"/>
        <pt x="522" y="505" on="1"/>
      </contour>
    </TTGlyph>
    <TTGlyph name="a.alt" xMin="66" yMin="-5" xMax="500" yMax="500">
      <contour>
        <pt x="178" y="205" on="1"/>
        <pt x="165" y="82" on="1"/>
        <pt x="366" y="82" on="1"/>
        <pt x="379" y="205" on="1"/>
      </contour>
      <contour>
        <pt x="175" y="-5" on="1"/>
        <pt x="66" y="62" on="1"/>
        <pt x="83" y="225" on="1"/>
        <pt x="206" y="292" on="1"/>
        <pt x="388" y="292" on="1"/>
        <pt x="401" y="413" on="1"/>
        <pt x="153" y="413" on="1"/>
        <pt x="162" y="500" on="1"/>
        <pt x="391" y="500" on="1"/>
        <pt x="500" y="433" on="1"/>
        <pt x="454" y="-5" on="1"/>
        <pt x="428" y="-5" on="1"/>
        <pt x="361" y="36" on="1"/>
        <pt x="286" y="-5" on="1"/>
      </contour>
    </TTGlyph>
    <TTGlyph name="aacute" xMin="86" yMin="-5" xMax="548" yMax="718">
      <contour>
        <pt x="220" y="418" on="1"/>
        <pt x="185" y="82" on="1"/>
        <pt x="406" y="82" on="1"/>
        <pt x="441" y="418" on="1"/>
      </contour>
      <contour>
        <pt x="548" y="505" on="1"/>
        <pt x="494" y="-5" on="1"/>
        <pt x="468" y="-5" on="1"/>
        <pt x="401" y="36" on="1"/>
        <pt x="326" y="-5" on="1"/>
        <pt x="195" y="-5" on="1"/>
        <pt x="86" y="62" on="1"/>
        <pt x="126" y="438" on="1"/>
        <pt x="249" y="505" on="1"/>
        <pt x="380" y="505" on="1"/>
        <pt x="446" y="464" on="1"/>
        <pt x="522" y="505" on="1"/>
      </contour>
      <contour>
        <pt x="267" y="590" on="1"/>
        <pt x="374" y="718" on="1"/>
        <pt x="504" y="718" on="1"/>
        <pt x="347" y="590" on="1"/>
      </contour>
    </TTGlyph>
    <TTGlyph name="acircumflex" xMin="86" yMin="-5" xMax="548" yMax="728">
      <contour>
        <pt x="220" y="418" on="1"/>
        <pt x="185" y="82" on="1"/>
        <pt x="406" y="82" on="1"/>
        <pt x="441" y="418" on="1"/>
      </contour>
      <contour>
        <pt x="548" y="505" on="1"/>
        <pt x="494" y="-5" on="1"/>
        <pt x="468" y="-5" on="1"/>
        <pt x="401" y="36" on="1"/>
        <pt x="326" y="-5" on="1"/>
        <pt x="195" y="-5" on="1"/>
        <pt x="86" y="62" on="1"/>
        <pt x="126" y="438" on="1"/>
        <pt x="249" y="505" on="1"/>
        <pt x="380" y="505" on="1"/>
        <pt x="446" y="464" on="1"/>
        <pt x="522" y="505" on="1"/>
      </contour>
      <contour>
        <pt x="306" y="728" on="1"/>
        <pt x="416" y="728" on="1"/>
        <pt x="503" y="590" on="1"/>
        <pt x="428" y="590" on="1"/>
        <pt x="355" y="670" on="1"/>
        <pt x="267" y="590" on="1"/>
        <pt x="192" y="590" on="1"/>
      </contour>
    </TTGlyph>
    <TTGlyph name="acute" xMin="247" yMin="590" xMax="484" yMax="718">
      <contour>
        <pt x="247" y="590" on="1"/>
        <pt x="354" y="718" on="1"/>
        <pt x="484" y="718" on="1"/>
        <pt x="327" y="590" on="1"/>
      </contour>
    </TTGlyph>
    <TTGlyph name="acute.cap" xMin="247" yMin="790" xMax="484" yMax="918">
      <contour>
        <pt x="247" y="790" on="1"/>
        <pt x="354" y="918" on="1"/>
        <pt x="484" y="918" on="1"/>
        <pt x="327" y="790" on="1"/>
      </contour>
    </TTGlyph>
    <TTGlyph name="adieresis" xMin="86" yMin="-5" xMax="548" yMax="700">
      <contour>
        <pt x="220" y="418" on="1"/>
        <pt x="185" y="82" on="1"/>
        <pt x="406" y="82" on="1"/>
        <pt x="441" y="418" on="1"/>
      </contour>
      <contour>
        <pt x="548" y="505" on="1"/>
        <pt x="494" y="-5" on="1"/>
        <pt x="468" y="-5" on="1"/>
        <pt x="401" y="36" on="1"/>
        <pt x="326" y="-5" on="1"/>
        <pt x="195" y="-5" on="1"/>
        <pt x="86" y="62" on="1"/>
        <pt x="126" y="438" on="1"/>
        <pt x="249" y="505" on="1"/>
        <pt x="380" y="505" on="1"/>
        <pt x="446" y="464" on="1"/>
        <pt x="522" y="505" on="1"/>
      </contour>
      <contour>
        <pt x="192" y="595" on="1"/>
        <pt x="203" y="700" on="1"/>
        <pt x="308" y="700" on="1"/>
        <pt x="297" y="595" on="1"/>
      </contour>
      <contour>
        <pt x="411" y="595" on="1"/>
        <pt x="422" y="700" on="1"/>
        <pt x="527" y="700" on="1"/>
        <pt x="516" y="595" on="1"/>
      </contour>
    </TTGlyph>
    <TTGlyph name="ae" xMin="66" yMin="-5" xMax="799" yMax="505">
      <contour>
        <pt x="762" y="87" on="1"/>
        <pt x="753" y="0" on="1"/>
        <pt x="474" y="0" on="1"/>
        <pt x="389" y="52" on="1"/>
        <pt x="286" y="-5" on="1"/>
        <pt x="175" y="-5" on="1"/>
        <pt x="66" y="62" on="1"/>
        <pt x="83" y="225" on="1"/>
        <pt x="206" y="292" on="1"/>
        <pt x="388" y="292" on="1"/>
        <pt x="401" y="413" on="1"/>
        <pt x="153" y="413" on="1"/>
        <pt x="162" y="500" on="1"/>
        <pt x="391" y="500" on="1"/>
        <pt x="450" y="463" on="1"/>
        <pt x="527" y="505" on="1"/>
        <pt x="690" y="505" on="1"/>
        <pt x="799" y="438" on="1"/>
        <pt x="775" y="216" on="1"/>
        <pt x="477" y="216" on="1"/>
        <pt x="464" y="87" on="1"/>
      </contour>
      <contour>
        <pt x="178" y="205" on="1"/>
        <pt x="165" y="82" on="1"/>
        <pt x="366" y="82" on="1"/>
        <pt x="379" y="205" on="1"/>
      </contour>
      <contour>
        <pt x="498" y="418" on="1"/>
        <pt x="486" y="303" on="1"/>
        <pt x="687" y="303" on="1"/>
        <pt x="699" y="418" on="1"/>
      </contour>
    </TTGlyph>
    <TTGlyph name="agrave" xMin="86" yMin="-5" xMax="548" yMax="718">
      <contour>
        <pt x="220" y="418" on="1"/>
        <pt x="185" y="82" on="1"/>
        <pt x="406" y="82" on="1"/>
        <pt x="441" y="418" on="1"/>
      </contour>
      <contour>
        <pt x="548" y="505" on="1"/>
        <pt x="494" y="-5" on="1"/>
        <pt x="468" y="-5" on="1"/>
        <pt x="401" y="36" on="1"/>
        <pt x="326" y="-5" on="1"/>
        <pt x="195" y="-5" on="1"/>
        <pt x="86" y="62" on="1"/>
        <pt x="126" y="438" on="1"/>
        <pt x="249" y="505" on="1"/>
        <pt x="380" y="505" on="1"/>
        <pt x="446" y="464" on="1"/>
        <pt x="522" y="505" on="1"/>
      </contour>
      <contour>
        <pt x="360" y="718" on="1"/>
        <pt x="441" y="590" on="1"/>
        <pt x="361" y="590" on="1"/>
        <pt x="230" y="718" on="1"/>
      </contour>
    </TTGlyph>
    <TTGlyph name="ampersand" xMin="96" yMin="-5" xMax="667" yMax="705">
      <contour>
        <pt x="667" y="407" on="1"/>
        <pt x="658" y="317" on="1"/>
        <pt x="584" y="317" on="1"/>
        <pt x="557" y="62" on="1"/>
        <pt x="434" y="-5" on="1"/>
        <pt x="205" y="-5" on="1"/>
        <pt x="96" y="62" on="1"/>
        <pt x="122" y="311" on="1"/>
        <pt x="214" y="361" on="1"/>
        <pt x="215" y="363" on="1"/>
        <pt x="133" y="413" on="1"/>
        <pt x="157" y="638" on="1"/>
        <pt x="280" y="705" on="1"/>
        <pt x="469" y="705" on="1"/>
        <pt x="578" y="638" on="1"/>
        <pt x="566" y="525" on="1"/>
        <pt x="466" y="525" on="1"/>
        <pt x="475" y="615" on="1"/>
        <pt x="254" y="615" on="1"/>
        <pt x="232" y="407" on="1"/>
        <pt x="407" y="407" on="1"/>
        <pt x="398" y="317" on="1"/>
        <pt x="223" y="317" on="1"/>
        <pt x="198" y="85" on="1"/>
        <pt x="459" y="85" on="1"/>
        <pt x="486" y="340" on="1"/>
        <pt x="609" y="407" on="1"/>
      </contour>
    </TTGlyph>
    <TTGlyph name="apple" xMin="80" yMin="-23" xMax="778" yMax="811">
      <contour>
        <pt x="154" y="107" on="1"/>
        <pt x="80" y="235" on="0"/>
        <pt x="80" y="467" on="0"/>
        <pt x="187" y="618" on="0"/>
        <pt x="279" y="618" on="1"/>
        <pt x="314" y="618" on="0"/>
        <pt x="420" y="588" on="0"/>
        <pt x="457" y="588" on="0"/>
        <pt x="559" y="622" on="0"/>
        <pt x="595" y="622" on="1"/>
        <pt x="655" y="622" on="0"/>
        <pt x="702" y="590" on="1"/>
        <pt x="732" y="567" on="0"/>
        <pt x="754" y="540" on="1"/>
        <pt x="709" y="501" on="0"/>
        <pt x="664" y="429" on="0"/>
        <pt x="664" y="314" on="0"/>
        <pt x="732" y="216" on="0"/>
        <pt x="778" y="202" on="1"/>
        <pt x="757" y="138" on="0"/>
        <pt x="716" y="77" on="1"/>
        <pt x="651" y="-21" on="0"/>
        <pt x="587" y="-21" on="1"/>
        <pt x="561" y="-21" on="0"/>
        <pt x="475" y="11" on="0"/>
        <pt x="412" y="11" on="0"/>
        <pt x="328" y="-23" on="0"/>
        <pt x="304" y="-23" on="1"/>
        <pt x="227" y="-23" on="0"/>
      </contour>
      <contour>
        <pt x="589" y="790" on="1"/>
        <pt x="589" y="713" on="0"/>
        <pt x="528" y="652" on="1"/>
        <pt x="504" y="628" on="0"/>
        <pt x="465" y="612" on="0"/>
        <pt x="422" y="608" on="1"/>
        <pt x="424" y="773" on="0"/>
        <pt x="586" y="811" on="1"/>
        <pt x="589" y="802" on="0"/>
      </contour>
    </TTGlyph>
    <TTGlyph name="approxequal" xMin="95" yMin="51" xMax="680" yMax="458">
      <contour>
        <pt x="310" y="371" on="1"/>
        <pt x="215" y="371" on="1"/>
        <pt x="207" y="289" on="1"/>
        <pt x="120" y="289" on="1"/>
        <pt x="131" y="391" on="1"/>
        <pt x="254" y="458" on="1"/>
        <pt x="357" y="458" on="1"/>
        <pt x="489" y="376" on="1"/>
        <pt x="584" y="376" on="1"/>
        <pt x="593" y="458" on="1"/>
        <pt x="680" y="458" on="1"/>
        <pt x="669" y="356" on="1"/>
        <pt x="546" y="289" on="1"/>
        <pt x="443" y="289" on="1"/>
      </contour>
      <contour>
        <pt x="285" y="133" on="1"/>
        <pt x="190" y="133" on="1"/>
        <pt x="182" y="51" on="1"/>
        <pt x="95" y="51" on="1"/>
        <pt x="106" y="153" on="1"/>
        <pt x="229" y="220" on="1"/>
        <pt x="332" y="220" on="1"/>
        <pt x="464" y="138" on="1"/>
        <pt x="559" y="138" on="1"/>
        <pt x="568" y="220" on="1"/>
        <pt x="655" y="220" on="1"/>
        <pt x="644" y="118" on="1"/>
        <pt x="521" y="51" on="1"/>
        <pt x="418" y="51" on="1"/>
      </contour>
    </TTGlyph>
    <TTGlyph name="aring" xMin="86" yMin="-5" xMax="548" yMax="833">
      <contour>
        <pt x="220" y="418" on="1"/>
        <pt x="185" y="82" on="1"/>
        <pt x="406" y="82" on="1"/>
        <pt x="441" y="418" on="1"/>
      </contour>
      <contour>
        <pt x="548" y="505" on="1"/>
        <pt x="494" y="-5" on="1"/>
        <pt x="468" y="-5" on="1"/>
        <pt x="401" y="36" on="1"/>
        <pt x="326" y="-5" on="1"/>
        <pt x="195" y="-5" on="1"/>
        <pt x="86" y="62" on="1"/>
        <pt x="126" y="438" on="1"/>
        <pt x="249" y="505" on="1"/>
        <pt x="380" y="505" on="1"/>
        <pt x="446" y="464" on="1"/>
        <pt x="522" y="505" on="1"/>
      </contour>
      <contour>
        <pt x="488" y="617" on="1"/>
        <pt x="401" y="570" on="1"/>
        <pt x="280" y="570" on="1"/>
        <pt x="203" y="617" on="1"/>
        <pt x="221" y="786" on="1"/>
        <pt x="308" y="833" on="1"/>
        <pt x="429" y="833" on="1"/>
        <pt x="506" y="786" on="1"/>
      </contour>
      <contour>
        <pt x="294" y="768" on="1"/>
        <pt x="280" y="635" on="1"/>
        <pt x="415" y="635" on="1"/>
        <pt x="429" y="768" on="1"/>
      </contour>
    </TTGlyph>
    <TTGlyph name="asciicircum" xMin="89" yMin="380" xMax="591" yMax="700">
      <contour>
        <pt x="196" y="380" on="1"/>
        <pt x="89" y="380" on="1"/>
        <pt x="323" y="700" on="1"/>
        <pt x="425" y="700" on="1"/>
        <pt x="591" y="380" on="1"/>
        <pt x="484" y="380" on="1"/>
        <pt x="366" y="613" on="1"/>
        <pt x="365" y="613" on="1"/>
      </contour>
    </TTGlyph>
    <TTGlyph name="asciitilde" xMin="89" yMin="188" xMax="649" yMax="357">
      <contour>
        <pt x="280" y="270" on="1"/>
        <pt x="185" y="270" on="1"/>
        <pt x="176" y="188" on="1"/>
        <pt x="89" y="188" on="1"/>
        <pt x="100" y="290" on="1"/>
        <pt x="223" y="357" on="1"/>
        <pt x="326" y="357" on="1"/>
        <pt x="458" y="275" on="1"/>
        <pt x="553" y="275" on="1"/>
        <pt x="562" y="357" on="1"/>
        <pt x="649" y="357" on="1"/>
        <pt x="638" y="255" on="1"/>
        <pt x="515" y="188" on="1"/>
        <pt x="412" y="188" on="1"/>
      </contour>
    </TTGlyph>
    <TTGlyph name="asterisk" xMin="133" yMin="264" xMax="603" yMax="710">
      <contour>
        <pt x="336" y="524" on="1"/>
        <pt x="345" y="710" on="1"/>
        <pt x="433" y="710" on="1"/>
        <pt x="404" y="524" on="1"/>
        <pt x="584" y="591" on="1"/>
        <pt x="603" y="508" on="1"/>
        <pt x="419" y="460" on="1"/>
        <pt x="520" y="317" on="1"/>
        <pt x="443" y="264" on="1"/>
        <pt x="358" y="418" on="1"/>
        <pt x="241" y="264" on="1"/>
        <pt x="176" y="317" on="1"/>
        <pt x="307" y="460" on="1"/>
        <pt x="133" y="508" on="1"/>
        <pt x="170" y="591" on="1"/>
      </contour>
    </TTGlyph>
    <TTGlyph name="at" xMin="82" yMin="-141" xMax="987" yMax="705">
      <contour>
        <pt x="789" y="-141" on="1"/>
        <pt x="191" y="-141" on="1"/>
        <pt x="82" y="-74" on="1"/>
        <pt x="157" y="638" on="1"/>
        <pt x="280" y="705" on="1"/>
        <pt x="878" y="705" on="1"/>
        <pt x="987" y="638" on="1"/>
        <pt x="930" y="104" on="1"/>
        <pt x="807" y="37" on="1"/>
        <pt x="638" y="37" on="1"/>
        <pt x="577" y="78" on="1"/>
        <pt x="496" y="37" on="1"/>
        <pt x="395" y="37" on="1"/>
        <pt x="293" y="104" on="1"/>
        <pt x="371" y="470" on="1"/>
        <pt x="501" y="537" on="1"/>
        <pt x="602" y="537" on="1"/>
        <pt x="664" y="496" on="1"/>
        <pt x="744" y="537" on="1"/>
        <pt x="770" y="537" on="1"/>
        <pt x="682" y="117" on="1"/>
        <pt x="842" y="117" on="1"/>
        <pt x="895" y="625" on="1"/>
        <pt x="245" y="625" on="1"/>
        <pt x="173" y="-61" on="1"/>
        <pt x="797" y="-61" on="1"/>
      </contour>
      <contour>
        <pt x="464" y="450" on="1"/>
        <pt x="395" y="124" on="1"/>
        <pt x="586" y="124" on="1"/>
        <pt x="655" y="450" on="1"/>
      </contour>
    </TTGlyph>
    <TTGlyph name="atilde" xMin="86" yMin="-5" xMax="548" yMax="734">
      <contour>
        <pt x="220" y="418" on="1"/>
        <pt x="185" y="82" on="1"/>
        <pt x="406" y="82" on="1"/>
        <pt x="441" y="418" on="1"/>
      </contour>
      <contour>
        <pt x="548" y="505" on="1"/>
        <pt x="494" y="-5" on="1"/>
        <pt x="468" y="-5" on="1"/>
        <pt x="401" y="36" on="1"/>
        <pt x="326" y="-5" on="1"/>
        <pt x="195" y="-5" on="1"/>
        <pt x="86" y="62" on="1"/>
        <pt x="126" y="438" on="1"/>
        <pt x="249" y="505" on="1"/>
        <pt x="380" y="505" on="1"/>
        <pt x="446" y="464" on="1"/>
        <pt x="522" y="505" on="1"/>
      </contour>
      <contour>
        <pt x="270" y="667" on="1"/>
        <pt x="268" y="667" on="1"/>
        <pt x="259" y="585" on="1"/>
        <pt x="191" y="585" on="1"/>
        <pt x="201" y="679" on="1"/>
        <pt x="301" y="734" on="1"/>
        <pt x="434" y="652" on="1"/>
        <pt x="436" y="652" on="1"/>
        <pt x="445" y="734" on="1"/>
        <pt x="513" y="734" on="1"/>
        <pt x="503" y="640" on="1"/>
        <pt x="403" y="585" on="1"/>
      </contour>
    </TTGlyph>
    <TTGlyph name="b" xMin="79" yMin="-5" xMax="561" yMax="730">
      <contour>
        <pt x="301" y="505" on="1"/>
        <pt x="452" y="505" on="1"/>
        <pt x="561" y="438" on="1"/>
        <pt x="521" y="62" on="1"/>
        <pt x="398" y="-5" on="1"/>
        <pt x="247" y="-5" on="1"/>
        <pt x="180" y="36" on="1"/>
        <pt x="105" y="-5" on="1"/>
        <pt x="79" y="-5" on="1"/>
        <pt x="156" y="730" on="1"/>
        <pt x="253" y="730" on="1"/>
        <pt x="225" y="464" on="1"/>
      </contour>
      <contour>
        <pt x="220" y="418" on="1"/>
        <pt x="185" y="82" on="1"/>
        <pt x="426" y="82" on="1"/>
        <pt x="461" y="418" on="1"/>
      </contour>
    </TTGlyph>
    <TTGlyph name="backslash" xMin="105" yMin="-20" xMax="353" yMax="720">
      <contour>
        <pt x="195" y="720" on="1"/>
        <pt x="353" y="-20" on="1"/>
        <pt x="263" y="-20" on="1"/>
        <pt x="105" y="720" on="1"/>
      </contour>
    </TTGlyph>
    <TTGlyph name="bar" xMin="98" yMin="-200" xMax="286" yMax="730">
      <contour>
        <pt x="98" y="-200" on="1"/>
        <pt x="196" y="730" on="1"/>
        <pt x="286" y="730" on="1"/>
        <pt x="188" y="-200" on="1"/>
      </contour>
    </TTGlyph>
    <TTGlyph name="braceleft" xMin="64" yMin="-200" xMax="414" yMax="730">
      <contour>
        <pt x="228" y="225" on="1"/>
        <pt x="191" y="-130" on="1"/>
        <pt x="324" y="-130" on="1"/>
        <pt x="316" y="-200" on="1"/>
        <pt x="219" y="-200" on="1"/>
        <pt x="111" y="-133" on="1"/>
        <pt x="149" y="230" on="1"/>
        <pt x="64" y="230" on="1"/>
        <pt x="71" y="300" on="1"/>
        <pt x="156" y="300" on="1"/>
        <pt x="194" y="663" on="1"/>
        <pt x="317" y="730" on="1"/>
        <pt x="414" y="730" on="1"/>
        <pt x="407" y="660" on="1"/>
        <pt x="274" y="660" on="1"/>
        <pt x="237" y="305" on="1"/>
        <pt x="165" y="266" on="1"/>
        <pt x="165" y="264" on="1"/>
      </contour>
    </TTGlyph>
    <TTGlyph name="braceright" xMin="38" yMin="-200" xMax="389" yMax="730">
      <contour>
        <pt x="179" y="-130" on="1"/>
        <pt x="216" y="225" on="1"/>
        <pt x="287" y="264" on="1"/>
        <pt x="287" y="266" on="1"/>
        <pt x="225" y="305" on="1"/>
        <pt x="262" y="660" on="1"/>
        <pt x="129" y="660" on="1"/>
        <pt x="136" y="730" on="1"/>
        <pt x="233" y="730" on="1"/>
        <pt x="342" y="663" on="1"/>
        <pt x="304" y="300" on="1"/>
        <pt x="389" y="300" on="1"/>
        <pt x="382" y="230" on="1"/>
        <pt x="297" y="230" on="1"/>
        <pt x="259" y="-133" on="1"/>
        <pt x="135" y="-200" on="1"/>
        <pt x="38" y="-200" on="1"/>
        <pt x="46" y="-130" on="1"/>
      </contour>
    </TTGlyph>
    <TTGlyph name="bracketleft" xMin="68" yMin="-200" xMax="379" yMax="730">
      <contour>
        <pt x="239" y="660" on="1"/>
        <pt x="156" y="-130" on="1"/>
        <pt x="289" y="-130" on="1"/>
        <pt x="281" y="-200" on="1"/>
        <pt x="68" y="-200" on="1"/>
        <pt x="166" y="730" on="1"/>
        <pt x="379" y="730" on="1"/>
        <pt x="372" y="660" on="1"/>
      </contour>
    </TTGlyph>
    <TTGlyph name="bracketright" xMin="38" yMin="-200" xMax="349" yMax="730">
      <contour>
        <pt x="179" y="-130" on="1"/>
        <pt x="262" y="660" on="1"/>
        <pt x="129" y="660" on="1"/>
        <pt x="136" y="730" on="1"/>
        <pt x="349" y="730" on="1"/>
        <pt x="251" y="-200" on="1"/>
        <pt x="38" y="-200" on="1"/>
        <pt x="46" y="-130" on="1"/>
      </contour>
    </TTGlyph>
    <TTGlyph name="breve" xMin="187" yMin="580" xMax="484" yMax="736">
      <contour>
        <pt x="409" y="736" on="1"/>
        <pt x="484" y="736" on="1"/>
        <pt x="472" y="627" on="1"/>
        <pt x="385" y="580" on="1"/>
        <pt x="264" y="580" on="1"/>
        <pt x="187" y="627" on="1"/>
        <pt x="199" y="736" on="1"/>
        <pt x="274" y="736" on="1"/>
        <pt x="264" y="645" on="1"/>
        <pt x="399" y="645" on="1"/>
      </contour>
    </TTGlyph>
    <TTGlyph name="brokenbar" xMin="98" yMin="-200" xMax="286" yMax="730">
      <contour>
        <pt x="98" y="-200" on="1"/>
        <pt x="141" y="202" on="1"/>
        <pt x="231" y="202" on="1"/>
        <pt x="188" y="-200" on="1"/>
      </contour>
      <contour>
        <pt x="154" y="328" on="1"/>
        <pt x="196" y="730" on="1"/>
        <pt x="286" y="730" on="1"/>
        <pt x="244" y="328" on="1"/>
      </contour>
    </TTGlyph>
    <TTGlyph name="bullet" xMin="123" yMin="157" xMax="529" yMax="537">
      <contour>
        <pt x="503" y="224" on="1"/>
        <pt x="380" y="157" on="1"/>
        <pt x="232" y="157" on="1"/>
        <pt x="123" y="224" on="1"/>
        <pt x="149" y="470" on="1"/>
        <pt x="272" y="537" on="1"/>
        <pt x="420" y="537" on="1"/>
        <pt x="529" y="470" on="1"/>
      </contour>
    </TTGlyph>
    <TTGlyph name="c" xMin="87" yMin="0" xMax="507" yMax="500">
      <contour>
        <pt x="220" y="413" on="1"/>
        <pt x="186" y="87" on="1"/>
        <pt x="464" y="87" on="1"/>
        <pt x="455" y="0" on="1"/>
        <pt x="196" y="0" on="1"/>
        <pt x="87" y="67" on="1"/>
        <pt x="125" y="433" on="1"/>
        <pt x="248" y="500" on="1"/>
        <pt x="507" y="500" on="1"/>
        <pt x="498" y="413" on="1"/>
      </contour>
    </TTGlyph>
    <TTGlyph name="caron" xMin="186" yMin="590" xMax="497" yMax="728">
      <contour>
        <pt x="382" y="590" on="1"/>
        <pt x="272" y="590" on="1"/>
        <pt x="186" y="728" on="1"/>
        <pt x="261" y="728" on="1"/>
        <pt x="333" y="648" on="1"/>
        <pt x="422" y="728" on="1"/>
        <pt x="497" y="728" on="1"/>
      </contour>
    </TTGlyph>
    <TTGlyph name="caron.cap" xMin="186" yMin="790" xMax="497" yMax="928">
      <contour>
        <pt x="382" y="790" on="1"/>
        <pt x="272" y="790" on="1"/>
        <pt x="186" y="928" on="1"/>
        <pt x="261" y="928" on="1"/>
        <pt x="333" y="848" on="1"/>
        <pt x="422" y="928" on="1"/>
        <pt x="497" y="928" on="1"/>
      </contour>
    </TTGlyph>
    <TTGlyph name="ccedilla" xMin="87" yMin="-199" xMax="507" yMax="500">
      <contour>
        <pt x="269" y="0" on="1"/>
        <pt x="196" y="0" on="1"/>
        <pt x="87" y="67" on="1"/>
        <pt x="125" y="433" on="1"/>
        <pt x="248" y="500" on="1"/>
        <pt x="507" y="500" on="1"/>
        <pt x="498" y="413" on="1"/>
        <pt x="220" y="413" on="1"/>
        <pt x="186" y="87" on="1"/>
        <pt x="464" y="87" on="1"/>
        <pt x="455" y="0" on="1"/>
        <pt x="323" y="0" on="1"/>
        <pt x="297" y="-37" on="1"/>
        <pt x="359" y="-75" on="1"/>
        <pt x="351" y="-149" on="1"/>
        <pt x="260" y="-199" on="1"/>
        <pt x="190" y="-199" on="1"/>
        <pt x="195" y="-149" on="1"/>
        <pt x="294" y="-149" on="1"/>
        <pt x="301" y="-84" on="1"/>
        <pt x="212" y="-84" on="1"/>
      </contour>
    </TTGlyph>
    <TTGlyph name="cedilla" xMin="190" yMin="-199" xMax="359" yMax="0">
      <contour>
        <pt x="269" y="0" on="1"/>
        <pt x="323" y="0" on="1"/>
        <pt x="297" y="-37" on="1"/>
        <pt x="359" y="-75" on="1"/>
        <pt x="351" y="-149" on="1"/>
        <pt x="260" y="-199" on="1"/>
        <pt x="190" y="-199" on="1"/>
        <pt x="195" y="-149" on="1"/>
        <pt x="294" y="-149" on="1"/>
        <pt x="301" y="-84" on="1"/>
        <pt x="212" y="-84" on="1"/>
      </contour>
    </TTGlyph>
    <TTGlyph name="cent" xMin="87" yMin="-118" xMax="507" yMax="618">
      <contour>
        <pt x="415" y="500" on="1"/>
        <pt x="507" y="500" on="1"/>
        <pt x="498" y="413" on="1"/>
        <pt x="220" y="413" on="1"/>
        <pt x="186" y="87" on="1"/>
        <pt x="464" y="87" on="1"/>
        <pt x="455" y="0" on="1"/>
        <pt x="363" y="0" on="1"/>
        <pt x="350" y="-118" on="1"/>
        <pt x="254" y="-118" on="1"/>
        <pt x="267" y="0" on="1"/>
        <pt x="196" y="0" on="1"/>
        <pt x="87" y="67" on="1"/>
        <pt x="125" y="433" on="1"/>
        <pt x="248" y="500" on="1"/>
        <pt x="319" y="500" on="1"/>
        <pt x="331" y="618" on="1"/>
        <pt x="427" y="618" on="1"/>
      </contour>
    </TTGlyph>
    <TTGlyph name="circumflex" xMin="172" yMin="590" xMax="483" yMax="728">
      <contour>
        <pt x="286" y="728" on="1"/>
        <pt x="396" y="728" on="1"/>
        <pt x="483" y="590" on="1"/>
        <pt x="408" y="590" on="1"/>
        <pt x="335" y="670" on="1"/>
        <pt x="247" y="590" on="1"/>
        <pt x="172" y="590" on="1"/>
      </contour>
    </TTGlyph>
    <TTGlyph name="circumflex.cap" xMin="172" yMin="790" xMax="483" yMax="928">
      <contour>
        <pt x="286" y="928" on="1"/>
        <pt x="396" y="928" on="1"/>
        <pt x="483" y="790" on="1"/>
        <pt x="408" y="790" on="1"/>
        <pt x="335" y="870" on="1"/>
        <pt x="247" y="790" on="1"/>
        <pt x="172" y="790" on="1"/>
      </contour>
    </TTGlyph>
    <TTGlyph name="colon" xMin="100" yMin="0" xMax="302" yMax="500">
      <contour>
        <pt x="100" y="0" on="1"/>
        <pt x="115" y="150" on="1"/>
        <pt x="265" y="150" on="1"/>
        <pt x="250" y="0" on="1"/>
      </contour>
      <contour>
        <pt x="136" y="350" on="1"/>
        <pt x="152" y="500" on="1"/>
        <pt x="302" y="500" on="1"/>
        <pt x="286" y="350" on="1"/>
      </contour>
    </TTGlyph>
    <TTGlyph name="comma" xMin="78" yMin="-200" xMax="265" yMax="150">
      <contour>
        <pt x="78" y="-200" on="1"/>
        <pt x="115" y="150" on="1"/>
        <pt x="265" y="150" on="1"/>
        <pt x="261" y="108" on="1"/>
        <pt x="120" y="-200" on="1"/>
      </contour>
    </TTGlyph>
    <TTGlyph name="commaaccent" xMin="64" yMin="-335" xMax="214" yMax="-55">
      <contour>
        <pt x="64" y="-335" on="1"/>
        <pt x="94" y="-55" on="1"/>
        <pt x="214" y="-55" on="1"/>
        <pt x="210" y="-89" on="1"/>
        <pt x="98" y="-335" on="1"/>
      </contour>
    </TTGlyph>
    <TTGlyph name="copyright" xMin="96" yMin="-5" xMax="817" yMax="705">
      <contour>
        <pt x="756" y="62" on="1"/>
        <pt x="633" y="-5" on="1"/>
        <pt x="205" y="-5" on="1"/>
        <pt x="96" y="62" on="1"/>
        <pt x="157" y="638" on="1"/>
        <pt x="280" y="705" on="1"/>
        <pt x="708" y="705" on="1"/>
        <pt x="817" y="638" on="1"/>
      </contour>
      <contour>
        <pt x="236" y="635" on="1"/>
        <pt x="176" y="65" on="1"/>
        <pt x="676" y="65" on="1"/>
        <pt x="736" y="635" on="1"/>
      </contour>
      <contour>
        <pt x="543" y="251" on="1"/>
        <pt x="612" y="251" on="1"/>
        <pt x="604" y="177" on="1"/>
        <pt x="527" y="135" on="1"/>
        <pt x="341" y="135" on="1"/>
        <pt x="271" y="177" on="1"/>
        <pt x="307" y="523" on="1"/>
        <pt x="386" y="565" on="1"/>
        <pt x="572" y="565" on="1"/>
        <pt x="640" y="523" on="1"/>
        <pt x="633" y="449" on="1"/>
        <pt x="564" y="449" on="1"/>
        <pt x="569" y="502" on="1"/>
        <pt x="374" y="502" on="1"/>
        <pt x="342" y="198" on="1"/>
        <pt x="537" y="198" on="1"/>
      </contour>
    </TTGlyph>
    <TTGlyph name="ct" xMin="87" yMin="0" xMax="861" yMax="640">
      <contour>
        <pt x="220" y="413" on="1"/>
        <pt x="186" y="87" on="1"/>
        <pt x="464" y="87" on="1"/>
        <pt x="455" y="0" on="1"/>
        <pt x="196" y="0" on="1"/>
        <pt x="87" y="67" on="1"/>
        <pt x="125" y="433" on="1"/>
        <pt x="248" y="500" on="1"/>
        <pt x="644" y="500" on="1"/>
        <pt x="653" y="584" on="1"/>
        <pt x="756" y="640" on="1"/>
        <pt x="741" y="500" on="1"/>
        <pt x="861" y="500" on="1"/>
        <pt x="852" y="413" on="1"/>
        <pt x="732" y="413" on="1"/>
        <pt x="698" y="87" on="1"/>
        <pt x="818" y="87" on="1"/>
        <pt x="809" y="0" on="1"/>
        <pt x="708" y="0" on="1"/>
        <pt x="599" y="67" on="1"/>
        <pt x="635" y="413" on="1"/>
      </contour>
    </TTGlyph>
    <TTGlyph name="d" xMin="86" yMin="-5" xMax="591" yMax="730">
      <contour>
        <pt x="249" y="505" on="1"/>
        <pt x="400" y="505" on="1"/>
        <pt x="466" y="464" on="1"/>
        <pt x="494" y="730" on="1"/>
        <pt x="591" y="730" on="1"/>
        <pt x="514" y="-5" on="1"/>
        <pt x="441" y="-5" on="1"/>
        <pt x="421" y="36" on="1"/>
        <pt x="346" y="-5" on="1"/>
        <pt x="195" y="-5" on="1"/>
        <pt x="86" y="62" on="1"/>
        <pt x="126" y="438" on="1"/>
      </contour>
      <contour>
        <pt x="426" y="82" on="1"/>
        <pt x="461" y="418" on="1"/>
        <pt x="220" y="418" on="1"/>
        <pt x="185" y="82" on="1"/>
      </contour>
    </TTGlyph>
    <TTGlyph name="dagger" xMin="105" yMin="-200" xMax="577" yMax="731">
      <contour>
        <pt x="370" y="444" on="1"/>
        <pt x="312" y="-200" on="1"/>
        <pt x="227" y="-200" on="1"/>
        <pt x="305" y="444" on="1"/>
        <pt x="105" y="434" on="1"/>
        <pt x="114" y="519" on="1"/>
        <pt x="312" y="509" on="1"/>
        <pt x="325" y="731" on="1"/>
        <pt x="410" y="731" on="1"/>
        <pt x="377" y="509" on="1"/>
        <pt x="577" y="519" on="1"/>
        <pt x="568" y="434" on="1"/>
      </contour>
    </TTGlyph>
    <TTGlyph name="daggerdbl" xMin="61" yMin="-200" xMax="577" yMax="731">
      <contour>
        <pt x="358" y="266" on="1"/>
        <pt x="333" y="87" on="1"/>
        <pt x="533" y="97" on="1"/>
        <pt x="524" y="12" on="1"/>
        <pt x="326" y="22" on="1"/>
        <pt x="312" y="-200" on="1"/>
        <pt x="227" y="-200" on="1"/>
        <pt x="261" y="22" on="1"/>
        <pt x="61" y="12" on="1"/>
        <pt x="70" y="97" on="1"/>
        <pt x="268" y="87" on="1"/>
        <pt x="279" y="266" on="1"/>
        <pt x="305" y="444" on="1"/>
        <pt x="105" y="434" on="1"/>
        <pt x="114" y="519" on="1"/>
        <pt x="312" y="509" on="1"/>
        <pt x="325" y="731" on="1"/>
        <pt x="410" y="731" on="1"/>
        <pt x="377" y="509" on="1"/>
        <pt x="577" y="519" on="1"/>
        <pt x="568" y="434" on="1"/>
        <pt x="370" y="444" on="1"/>
      </contour>
    </TTGlyph>
    <TTGlyph name="degree" xMin="124" yMin="357" xMax="492" yMax="710">
      <contour>
        <pt x="469" y="424" on="1"/>
        <pt x="346" y="357" on="1"/>
        <pt x="233" y="357" on="1"/>
        <pt x="124" y="424" on="1"/>
        <pt x="147" y="643" on="1"/>
        <pt x="270" y="710" on="1"/>
        <pt x="383" y="710" on="1"/>
        <pt x="492" y="643" on="1"/>
      </contour>
      <contour>
        <pt x="237" y="629" on="1"/>
        <pt x="217" y="438" on="1"/>
        <pt x="380" y="438" on="1"/>
        <pt x="400" y="629" on="1"/>
      </contour>
    </TTGlyph>
    <TTGlyph name="dieresis" xMin="172" yMin="595" xMax="507" yMax="700">
      <contour>
        <pt x="172" y="595" on="1"/>
        <pt x="183" y="700" on="1"/>
        <pt x="288" y="700" on="1"/>
        <pt x="277" y="595" on="1"/>
      </contour>
      <contour>
        <pt x="391" y="595" on="1"/>
        <pt x="402" y="700" on="1"/>
        <pt x="507" y="700" on="1"/>
        <pt x="496" y="595" on="1"/>
      </contour>
    </TTGlyph>
    <TTGlyph name="dieresis.cap" xMin="172" yMin="795" xMax="507" yMax="900">
      <contour>
        <pt x="172" y="795" on="1"/>
        <pt x="183" y="900" on="1"/>
        <pt x="288" y="900" on="1"/>
        <pt x="277" y="795" on="1"/>
      </contour>
      <contour>
        <pt x="391" y="795" on="1"/>
        <pt x="402" y="900" on="1"/>
        <pt x="507" y="900" on="1"/>
        <pt x="496" y="795" on="1"/>
      </contour>
    </TTGlyph>
    <TTGlyph name="divide" xMin="71" yMin="-10" xMax="581" yMax="510">
      <contour>
        <pt x="581" y="297" on="1"/>
        <pt x="571" y="203" on="1"/>
        <pt x="71" y="203" on="1"/>
        <pt x="81" y="297" on="1"/>
      </contour>
      <contour>
        <pt x="233" y="-10" on="1"/>
        <pt x="247" y="120" on="1"/>
        <pt x="377" y="120" on="1"/>
        <pt x="363" y="-10" on="1"/>
      </contour>
      <contour>
        <pt x="274" y="380" on="1"/>
        <pt x="288" y="510" on="1"/>
        <pt x="418" y="510" on="1"/>
        <pt x="404" y="380" on="1"/>
      </contour>
    </TTGlyph>
    <TTGlyph name="dollar" xMin="86" yMin="-123" xMax="622" yMax="823">
      <contour>
        <pt x="263" y="-123" on="1"/>
        <pt x="275" y="-5" on="1"/>
        <pt x="195" y="-5" on="1"/>
        <pt x="86" y="62" on="1"/>
        <pt x="97" y="165" on="1"/>
        <pt x="197" y="165" on="1"/>
        <pt x="188" y="85" on="1"/>
        <pt x="463" y="85" on="1"/>
        <pt x="486" y="303" on="1"/>
        <pt x="237" y="303" on="1"/>
        <pt x="128" y="370" on="1"/>
        <pt x="157" y="638" on="1"/>
        <pt x="280" y="705" on="1"/>
        <pt x="350" y="705" on="1"/>
        <pt x="362" y="823" on="1"/>
        <pt x="462" y="823" on="1"/>
        <pt x="450" y="705" on="1"/>
        <pt x="513" y="705" on="1"/>
        <pt x="622" y="638" on="1"/>
        <pt x="611" y="535" on="1"/>
        <pt x="511" y="535" on="1"/>
        <pt x="519" y="615" on="1"/>
        <pt x="254" y="615" on="1"/>
        <pt x="232" y="403" on="1"/>
        <pt x="481" y="403" on="1"/>
        <pt x="590" y="336" on="1"/>
        <pt x="561" y="62" on="1"/>
        <pt x="438" y="-5" on="1"/>
        <pt x="375" y="-5" on="1"/>
        <pt x="363" y="-123" on="1"/>
      </contour>
    </TTGlyph>
    <TTGlyph name="dotaccent" xMin="162" yMin="591" xMax="327" yMax="741">
      <contour>
        <pt x="162" y="591" on="1"/>
        <pt x="177" y="741" on="1"/>
        <pt x="327" y="741" on="1"/>
        <pt x="312" y="591" on="1"/>
      </contour>
    </TTGlyph>
    <TTGlyph name="dotlessi" xMin="80" yMin="0" xMax="229" yMax="500">
      <contour>
        <pt x="229" y="500" on="1"/>
        <pt x="177" y="0" on="1"/>
        <pt x="80" y="0" on="1"/>
        <pt x="132" y="500" on="1"/>
      </contour>
    </TTGlyph>
    <TTGlyph name="dotlessj" xMin="-61" yMin="-200" xMax="229" yMax="500">
      <contour>
        <pt x="229" y="500" on="1"/>
        <pt x="163" y="-133" on="1"/>
        <pt x="39" y="-200" on="1"/>
        <pt x="-61" y="-200" on="1"/>
        <pt x="-51" y="-113" on="1"/>
        <pt x="68" y="-113" on="1"/>
        <pt x="132" y="500" on="1"/>
      </contour>
    </TTGlyph>
    <TTGlyph name="e" xMin="87" yMin="0" xMax="521" yMax="505">
      <contour>
        <pt x="484" y="87" on="1"/>
        <pt x="475" y="0" on="1"/>
        <pt x="196" y="0" on="1"/>
        <pt x="87" y="67" on="1"/>
        <pt x="126" y="438" on="1"/>
        <pt x="249" y="505" on="1"/>
        <pt x="412" y="505" on="1"/>
        <pt x="521" y="438" on="1"/>
        <pt x="497" y="216" on="1"/>
        <pt x="199" y="216" on="1"/>
        <pt x="186" y="87" on="1"/>
      </contour>
      <contour>
        <pt x="220" y="418" on="1"/>
        <pt x="208" y="303" on="1"/>
        <pt x="409" y="303" on="1"/>
        <pt x="421" y="418" on="1"/>
      </contour>
    </TTGlyph>
    <TTGlyph name="eacute" xMin="87" yMin="0" xMax="521" yMax="718">
      <contour>
        <pt x="484" y="87" on="1"/>
        <pt x="475" y="0" on="1"/>
        <pt x="196" y="0" on="1"/>
        <pt x="87" y="67" on="1"/>
        <pt x="126" y="438" on="1"/>
        <pt x="249" y="505" on="1"/>
        <pt x="412" y="505" on="1"/>
        <pt x="521" y="438" on="1"/>
        <pt x="497" y="216" on="1"/>
        <pt x="199" y="216" on="1"/>
        <pt x="186" y="87" on="1"/>
      </contour>
      <contour>
        <pt x="220" y="418" on="1"/>
        <pt x="208" y="303" on="1"/>
        <pt x="409" y="303" on="1"/>
        <pt x="421" y="418" on="1"/>
      </contour>
      <contour>
        <pt x="247" y="590" on="1"/>
        <pt x="354" y="718" on="1"/>
        <pt x="484" y="718" on="1"/>
        <pt x="327" y="590" on="1"/>
      </contour>
    </TTGlyph>
    <TTGlyph name="ecircumflex" xMin="87" yMin="0" xMax="521" yMax="728">
      <contour>
        <pt x="484" y="87" on="1"/>
        <pt x="475" y="0" on="1"/>
        <pt x="196" y="0" on="1"/>
        <pt x="87" y="67" on="1"/>
        <pt x="126" y="438" on="1"/>
        <pt x="249" y="505" on="1"/>
        <pt x="412" y="505" on="1"/>
        <pt x="521" y="438" on="1"/>
        <pt x="497" y="216" on="1"/>
        <pt x="199" y="216" on="1"/>
        <pt x="186" y="87" on="1"/>
      </contour>
      <contour>
        <pt x="220" y="418" on="1"/>
        <pt x="208" y="303" on="1"/>
        <pt x="409" y="303" on="1"/>
        <pt x="421" y="418" on="1"/>
      </contour>
      <contour>
        <pt x="303" y="728" on="1"/>
        <pt x="413" y="728" on="1"/>
        <pt x="500" y="590" on="1"/>
        <pt x="425" y="590" on="1"/>
        <pt x="352" y="670" on="1"/>
        <pt x="264" y="590" on="1"/>
        <pt x="189" y="590" on="1"/>
      </contour>
    </TTGlyph>
    <TTGlyph name="edieresis" xMin="87" yMin="0" xMax="521" yMax="700">
      <contour>
        <pt x="484" y="87" on="1"/>
        <pt x="475" y="0" on="1"/>
        <pt x="196" y="0" on="1"/>
        <pt x="87" y="67" on="1"/>
        <pt x="126" y="438" on="1"/>
        <pt x="249" y="505" on="1"/>
        <pt x="412" y="505" on="1"/>
        <pt x="521" y="438" on="1"/>
        <pt x="497" y="216" on="1"/>
        <pt x="199" y="216" on="1"/>
        <pt x="186" y="87" on="1"/>
      </contour>
      <contour>
        <pt x="220" y="418" on="1"/>
        <pt x="208" y="303" on="1"/>
        <pt x="409" y="303" on="1"/>
        <pt x="421" y="418" on="1"/>
      </contour>
      <contour>
        <pt x="175" y="595" on="1"/>
        <pt x="186" y="700" on="1"/>
        <pt x="291" y="700" on="1"/>
        <pt x="280" y="595" on="1"/>
      </contour>
      <contour>
        <pt x="394" y="595" on="1"/>
        <pt x="405" y="700" on="1"/>
        <pt x="510" y="700" on="1"/>
        <pt x="499" y="595" on="1"/>
      </contour>
    </TTGlyph>
    <TTGlyph name="egrave" xMin="87" yMin="0" xMax="521" yMax="718">
      <contour>
        <pt x="484" y="87" on="1"/>
        <pt x="475" y="0" on="1"/>
        <pt x="196" y="0" on="1"/>
        <pt x="87" y="67" on="1"/>
        <pt x="126" y="438" on="1"/>
        <pt x="249" y="505" on="1"/>
        <pt x="412" y="505" on="1"/>
        <pt x="521" y="438" on="1"/>
        <pt x="497" y="216" on="1"/>
        <pt x="199" y="216" on="1"/>
        <pt x="186" y="87" on="1"/>
      </contour>
      <contour>
        <pt x="220" y="418" on="1"/>
        <pt x="208" y="303" on="1"/>
        <pt x="409" y="303" on="1"/>
        <pt x="421" y="418" on="1"/>
      </contour>
      <contour>
        <pt x="360" y="718" on="1"/>
        <pt x="441" y="590" on="1"/>
        <pt x="361" y="590" on="1"/>
        <pt x="230" y="718" on="1"/>
      </contour>
    </TTGlyph>
    <TTGlyph name="eight" xMin="96" yMin="-5" xMax="622" yMax="705">
      <contour>
        <pt x="198" y="85" on="1"/>
        <pt x="463" y="85" on="1"/>
        <pt x="488" y="317" on="1"/>
        <pt x="223" y="317" on="1"/>
      </contour>
      <contour>
        <pt x="232" y="407" on="1"/>
        <pt x="497" y="407" on="1"/>
        <pt x="519" y="615" on="1"/>
        <pt x="254" y="615" on="1"/>
      </contour>
      <contour>
        <pt x="438" y="-5" on="1"/>
        <pt x="189" y="-5" on="1"/>
        <pt x="96" y="62" on="1"/>
        <pt x="122" y="311" on="1"/>
        <pt x="214" y="361" on="1"/>
        <pt x="215" y="363" on="1"/>
        <pt x="133" y="413" on="1"/>
        <pt x="157" y="638" on="1"/>
        <pt x="280" y="705" on="1"/>
        <pt x="513" y="705" on="1"/>
        <pt x="622" y="638" on="1"/>
        <pt x="598" y="413" on="1"/>
        <pt x="506" y="363" on="1"/>
        <pt x="505" y="361" on="1"/>
        <pt x="587" y="311" on="1"/>
        <pt x="561" y="62" on="1"/>
      </contour>
    </TTGlyph>
    <TTGlyph name="ellipsis" xMin="100" yMin="0" xMax="885" yMax="150">
      <contour>
        <pt x="100" y="0" on="1"/>
        <pt x="115" y="150" on="1"/>
        <pt x="265" y="150" on="1"/>
        <pt x="250" y="0" on="1"/>
      </contour>
      <contour>
        <pt x="410" y="0" on="1"/>
        <pt x="425" y="150" on="1"/>
        <pt x="575" y="150" on="1"/>
        <pt x="560" y="0" on="1"/>
      </contour>
      <contour>
        <pt x="720" y="0" on="1"/>
        <pt x="735" y="150" on="1"/>
        <pt x="885" y="150" on="1"/>
        <pt x="870" y="0" on="1"/>
      </contour>
    </TTGlyph>
    <TTGlyph name="emdash" xMin="92" yMin="218" xMax="936" yMax="305">
      <contour>
        <pt x="92" y="218" on="1"/>
        <pt x="102" y="305" on="1"/>
        <pt x="936" y="305" on="1"/>
        <pt x="926" y="218" on="1"/>
      </contour>
    </TTGlyph>
    <TTGlyph name="endash" xMin="92" yMin="218" xMax="658" yMax="305">
      <contour>
        <pt x="92" y="218" on="1"/>
        <pt x="102" y="305" on="1"/>
        <pt x="658" y="305" on="1"/>
        <pt x="648" y="218" on="1"/>
      </contour>
    </TTGlyph>
    <TTGlyph name="equal" xMin="99" yMin="89" xMax="633" yMax="411">
      <contour>
        <pt x="609" y="183" on="1"/>
        <pt x="599" y="89" on="1"/>
        <pt x="99" y="89" on="1"/>
        <pt x="109" y="183" on="1"/>
      </contour>
      <contour>
        <pt x="633" y="411" on="1"/>
        <pt x="623" y="317" on="1"/>
        <pt x="123" y="317" on="1"/>
        <pt x="133" y="411" on="1"/>
      </contour>
    </TTGlyph>
    <TTGlyph name="eth" xMin="97" yMin="-5" xMax="674" yMax="705">
      <contour>
        <pt x="391" y="487" on="1"/>
        <pt x="398" y="561" on="1"/>
        <pt x="504" y="561" on="1"/>
        <pt x="510" y="615" on="1"/>
        <pt x="271" y="615" on="1"/>
        <pt x="281" y="705" on="1"/>
        <pt x="504" y="705" on="1"/>
        <pt x="613" y="638" on="1"/>
        <pt x="604" y="561" on="1"/>
        <pt x="674" y="561" on="1"/>
        <pt x="667" y="487" on="1"/>
        <pt x="597" y="487" on="1"/>
        <pt x="552" y="62" on="1"/>
        <pt x="429" y="-5" on="1"/>
        <pt x="206" y="-5" on="1"/>
        <pt x="97" y="62" on="1"/>
        <pt x="129" y="363" on="1"/>
        <pt x="252" y="430" on="1"/>
        <pt x="420" y="430" on="1"/>
        <pt x="486" y="389" on="1"/>
        <pt x="497" y="487" on="1"/>
      </contour>
      <contour>
        <pt x="454" y="85" on="1"/>
        <pt x="481" y="340" on="1"/>
        <pt x="226" y="340" on="1"/>
        <pt x="199" y="85" on="1"/>
      </contour>
    </TTGlyph>
    <TTGlyph name="exclam" xMin="100" yMin="0" xMax="317" yMax="730">
      <contour>
        <pt x="100" y="0" on="1"/>
        <pt x="115" y="150" on="1"/>
        <pt x="265" y="150" on="1"/>
        <pt x="250" y="0" on="1"/>
      </contour>
      <contour>
        <pt x="163" y="268" on="1"/>
        <pt x="185" y="730" on="1"/>
        <pt x="317" y="730" on="1"/>
        <pt x="243" y="268" on="1"/>
      </contour>
    </TTGlyph>
    <TTGlyph name="exclamdown" xMin="84" yMin="-230" xMax="302" yMax="500">
      <contour>
        <pt x="136" y="350" on="1"/>
        <pt x="152" y="500" on="1"/>
        <pt x="302" y="500" on="1"/>
        <pt x="286" y="350" on="1"/>
      </contour>
      <contour>
        <pt x="84" y="-230" on="1"/>
        <pt x="159" y="232" on="1"/>
        <pt x="239" y="232" on="1"/>
        <pt x="216" y="-230" on="1"/>
      </contour>
    </TTGlyph>
    <TTGlyph name="f" xMin="83" yMin="0" xMax="425" yMax="730">
      <contour>
        <pt x="83" y="413" on="1"/>
        <pt x="92" y="500" on="1"/>
        <pt x="184" y="500" on="1"/>
        <pt x="201" y="663" on="1"/>
        <pt x="324" y="730" on="1"/>
        <pt x="425" y="730" on="1"/>
        <pt x="416" y="643" on="1"/>
        <pt x="296" y="643" on="1"/>
        <pt x="281" y="500" on="1"/>
        <pt x="401" y="500" on="1"/>
        <pt x="392" y="413" on="1"/>
        <pt x="272" y="413" on="1"/>
        <pt x="229" y="0" on="1"/>
        <pt x="132" y="0" on="1"/>
        <pt x="175" y="413" on="1"/>
      </contour>
    </TTGlyph>
    <TTGlyph name="ffi" xMin="83" yMin="0" xMax="1036" yMax="730">
      <contour>
        <pt x="272" y="413" on="1"/>
        <pt x="229" y="0" on="1"/>
        <pt x="132" y="0" on="1"/>
        <pt x="175" y="413" on="1"/>
        <pt x="83" y="413" on="1"/>
        <pt x="92" y="500" on="1"/>
        <pt x="184" y="500" on="1"/>
        <pt x="201" y="663" on="1"/>
        <pt x="324" y="730" on="1"/>
        <pt x="465" y="730" on="1"/>
        <pt x="456" y="643" on="1"/>
        <pt x="296" y="643" on="1"/>
        <pt x="281" y="500" on="1"/>
        <pt x="553" y="500" on="1"/>
        <pt x="570" y="663" on="1"/>
        <pt x="693" y="730" on="1"/>
        <pt x="1036" y="730" on="1"/>
        <pt x="1027" y="643" on="1"/>
        <pt x="665" y="643" on="1"/>
        <pt x="650" y="500" on="1"/>
        <pt x="810" y="500" on="1"/>
        <pt x="801" y="413" on="1"/>
        <pt x="641" y="413" on="1"/>
        <pt x="598" y="0" on="1"/>
        <pt x="501" y="0" on="1"/>
        <pt x="544" y="413" on="1"/>
      </contour>
      <contour>
        <pt x="1007" y="500" on="1"/>
        <pt x="955" y="0" on="1"/>
        <pt x="858" y="0" on="1"/>
        <pt x="910" y="500" on="1"/>
      </contour>
    </TTGlyph>
    <TTGlyph name="ffl" xMin="83" yMin="0" xMax="1084" yMax="730">
      <contour>
        <pt x="83" y="413" on="1"/>
        <pt x="92" y="500" on="1"/>
        <pt x="184" y="500" on="1"/>
        <pt x="201" y="663" on="1"/>
        <pt x="324" y="730" on="1"/>
        <pt x="495" y="730" on="1"/>
        <pt x="486" y="643" on="1"/>
        <pt x="296" y="643" on="1"/>
        <pt x="281" y="500" on="1"/>
        <pt x="573" y="500" on="1"/>
        <pt x="590" y="663" on="1"/>
        <pt x="713" y="730" on="1"/>
        <pt x="1031" y="730" on="1"/>
        <pt x="964" y="87" on="1"/>
        <pt x="1084" y="87" on="1"/>
        <pt x="1075" y="0" on="1"/>
        <pt x="974" y="0" on="1"/>
        <pt x="865" y="67" on="1"/>
        <pt x="925" y="643" on="1"/>
        <pt x="685" y="643" on="1"/>
        <pt x="670" y="500" on="1"/>
        <pt x="820" y="500" on="1"/>
        <pt x="811" y="413" on="1"/>
        <pt x="661" y="413" on="1"/>
        <pt x="618" y="0" on="1"/>
        <pt x="521" y="0" on="1"/>
        <pt x="564" y="413" on="1"/>
        <pt x="272" y="413" on="1"/>
        <pt x="229" y="0" on="1"/>
        <pt x="132" y="0" on="1"/>
        <pt x="175" y="413" on="1"/>
      </contour>
    </TTGlyph>
    <TTGlyph name="fi" xMin="83" yMin="0" xMax="637" yMax="730">
      <contour>
        <pt x="83" y="413" on="1"/>
        <pt x="92" y="500" on="1"/>
        <pt x="184" y="500" on="1"/>
        <pt x="201" y="663" on="1"/>
        <pt x="324" y="730" on="1"/>
        <pt x="637" y="730" on="1"/>
        <pt x="628" y="643" on="1"/>
        <pt x="296" y="643" on="1"/>
        <pt x="281" y="500" on="1"/>
        <pt x="421" y="500" on="1"/>
        <pt x="412" y="413" on="1"/>
        <pt x="272" y="413" on="1"/>
        <pt x="229" y="0" on="1"/>
        <pt x="132" y="0" on="1"/>
        <pt x="175" y="413" on="1"/>
      </contour>
      <contour>
        <pt x="608" y="500" on="1"/>
        <pt x="556" y="0" on="1"/>
        <pt x="459" y="0" on="1"/>
        <pt x="511" y="500" on="1"/>
      </contour>
    </TTGlyph>
    <TTGlyph name="five" xMin="96" yMin="-5" xMax="618" yMax="700">
      <contour>
        <pt x="274" y="610" on="1"/>
        <pt x="255" y="431" on="1"/>
        <pt x="484" y="431" on="1"/>
        <pt x="593" y="364" on="1"/>
        <pt x="561" y="62" on="1"/>
        <pt x="438" y="-5" on="1"/>
        <pt x="205" y="-5" on="1"/>
        <pt x="96" y="62" on="1"/>
        <pt x="108" y="175" on="1"/>
        <pt x="208" y="175" on="1"/>
        <pt x="198" y="85" on="1"/>
        <pt x="463" y="85" on="1"/>
        <pt x="490" y="341" on="1"/>
        <pt x="145" y="341" on="1"/>
        <pt x="183" y="700" on="1"/>
        <pt x="618" y="700" on="1"/>
        <pt x="609" y="610" on="1"/>
      </contour>
    </TTGlyph>
    <TTGlyph name="fj" xMin="83" yMin="-200" xMax="637" yMax="730">
      <contour>
        <pt x="83" y="413" on="1"/>
        <pt x="92" y="500" on="1"/>
        <pt x="184" y="500" on="1"/>
        <pt x="201" y="663" on="1"/>
        <pt x="324" y="730" on="1"/>
        <pt x="637" y="730" on="1"/>
        <pt x="628" y="643" on="1"/>
        <pt x="296" y="643" on="1"/>
        <pt x="281" y="500" on="1"/>
        <pt x="401" y="500" on="1"/>
        <pt x="392" y="413" on="1"/>
        <pt x="272" y="413" on="1"/>
        <pt x="229" y="0" on="1"/>
        <pt x="132" y="0" on="1"/>
        <pt x="175" y="413" on="1"/>
      </contour>
      <contour>
        <pt x="608" y="500" on="1"/>
        <pt x="542" y="-133" on="1"/>
        <pt x="418" y="-200" on="1"/>
        <pt x="317" y="-200" on="1"/>
        <pt x="327" y="-113" on="1"/>
        <pt x="447" y="-113" on="1"/>
        <pt x="511" y="500" on="1"/>
      </contour>
    </TTGlyph>
    <TTGlyph name="fl" xMin="83" yMin="0" xMax="695" yMax="730">
      <contour>
        <pt x="585" y="0" on="1"/>
        <pt x="476" y="67" on="1"/>
        <pt x="536" y="643" on="1"/>
        <pt x="296" y="643" on="1"/>
        <pt x="281" y="500" on="1"/>
        <pt x="431" y="500" on="1"/>
        <pt x="422" y="413" on="1"/>
        <pt x="272" y="413" on="1"/>
        <pt x="229" y="0" on="1"/>
        <pt x="132" y="0" on="1"/>
        <pt x="175" y="413" on="1"/>
        <pt x="83" y="413" on="1"/>
        <pt x="92" y="500" on="1"/>
        <pt x="184" y="500" on="1"/>
        <pt x="201" y="663" on="1"/>
        <pt x="324" y="730" on="1"/>
        <pt x="642" y="730" on="1"/>
        <pt x="575" y="87" on="1"/>
        <pt x="695" y="87" on="1"/>
        <pt x="686" y="0" on="1"/>
      </contour>
    </TTGlyph>
    <TTGlyph name="florin" xMin="-9" yMin="-200" xMax="425" yMax="730">
      <contour>
        <pt x="272" y="413" on="1"/>
        <pt x="215" y="-133" on="1"/>
        <pt x="91" y="-200" on="1"/>
        <pt x="-9" y="-200" on="1"/>
        <pt x="0" y="-113" on="1"/>
        <pt x="120" y="-113" on="1"/>
        <pt x="175" y="413" on="1"/>
        <pt x="83" y="413" on="1"/>
        <pt x="92" y="500" on="1"/>
        <pt x="184" y="500" on="1"/>
        <pt x="201" y="663" on="1"/>
        <pt x="324" y="730" on="1"/>
        <pt x="425" y="730" on="1"/>
        <pt x="416" y="643" on="1"/>
        <pt x="296" y="643" on="1"/>
        <pt x="281" y="500" on="1"/>
        <pt x="401" y="500" on="1"/>
        <pt x="392" y="413" on="1"/>
      </contour>
    </TTGlyph>
    <TTGlyph name="four" xMin="57" yMin="0" xMax="600" yMax="700">
      <contour>
        <pt x="501" y="162" on="1"/>
        <pt x="484" y="0" on="1"/>
        <pt x="386" y="0" on="1"/>
        <pt x="403" y="162" on="1"/>
        <pt x="57" y="162" on="1"/>
        <pt x="66" y="248" on="1"/>
        <pt x="465" y="700" on="1"/>
        <pt x="557" y="700" on="1"/>
        <pt x="510" y="249" on="1"/>
        <pt x="600" y="249" on="1"/>
        <pt x="591" y="162" on="1"/>
      </contour>
      <contour>
        <pt x="170" y="249" on="1"/>
        <pt x="412" y="249" on="1"/>
        <pt x="444" y="557" on="1"/>
        <pt x="442" y="557" on="1"/>
        <pt x="170" y="251" on="1"/>
      </contour>
    </TTGlyph>
    <TTGlyph name="fraction" xMin="8" yMin="-10" xMax="727" yMax="710">
      <contour>
        <pt x="637" y="710" on="1"/>
        <pt x="727" y="710" on="1"/>
        <pt x="98" y="-10" on="1"/>
        <pt x="8" y="-10" on="1"/>
      </contour>
    </TTGlyph>
    <TTGlyph name="g" xMin="88" yMin="-200" xMax="558" yMax="505">
      <contour>
        <pt x="532" y="505" on="1"/>
        <pt x="558" y="505" on="1"/>
        <pt x="491" y="-133" on="1"/>
        <pt x="367" y="-200" on="1"/>
        <pt x="108" y="-200" on="1"/>
        <pt x="118" y="-113" on="1"/>
        <pt x="396" y="-113" on="1"/>
        <pt x="413" y="52" on="1"/>
        <pt x="338" y="11" on="1"/>
        <pt x="197" y="11" on="1"/>
        <pt x="88" y="78" on="1"/>
        <pt x="126" y="438" on="1"/>
        <pt x="249" y="505" on="1"/>
        <pt x="390" y="505" on="1"/>
        <pt x="456" y="464" on="1"/>
      </contour>
      <contour>
        <pt x="187" y="98" on="1"/>
        <pt x="418" y="98" on="1"/>
        <pt x="451" y="418" on="1"/>
        <pt x="220" y="418" on="1"/>
      </contour>
    </TTGlyph>
    <TTGlyph name="g.alt" xMin="45" yMin="-205" xMax="567" yMax="500">
      <contour>
        <pt x="177" y="0" on="1"/>
        <pt x="85" y="56" on="1"/>
        <pt x="95" y="146" on="1"/>
        <pt x="170" y="187" on="1"/>
        <pt x="103" y="228" on="1"/>
        <pt x="125" y="433" on="1"/>
        <pt x="248" y="500" on="1"/>
        <pt x="567" y="500" on="1"/>
        <pt x="563" y="466" on="1"/>
        <pt x="467" y="413" on="1"/>
        <pt x="524" y="377" on="1"/>
        <pt x="510" y="239" on="1"/>
        <pt x="387" y="172" on="1"/>
        <pt x="195" y="172" on="1"/>
        <pt x="186" y="87" on="1"/>
        <pt x="408" y="87" on="1"/>
        <pt x="517" y="20" on="1"/>
        <pt x="500" y="-138" on="1"/>
        <pt x="377" y="-205" on="1"/>
        <pt x="154" y="-205" on="1"/>
        <pt x="45" y="-138" on="1"/>
        <pt x="52" y="-76" on="1"/>
        <pt x="154" y="-20" on="1"/>
        <pt x="144" y="-120" on="1"/>
        <pt x="405" y="-120" on="1"/>
        <pt x="418" y="0" on="1"/>
      </contour>
      <contour>
        <pt x="220" y="415" on="1"/>
        <pt x="204" y="257" on="1"/>
        <pt x="415" y="257" on="1"/>
        <pt x="431" y="415" on="1"/>
      </contour>
    </TTGlyph>
    <TTGlyph name="germandbls" xMin="63" yMin="-200" xMax="621" yMax="700">
      <contour>
        <pt x="63" y="317" on="1"/>
        <pt x="72" y="407" on="1"/>
        <pt x="162" y="407" on="1"/>
        <pt x="186" y="633" on="1"/>
        <pt x="309" y="700" on="1"/>
        <pt x="512" y="700" on="1"/>
        <pt x="621" y="633" on="1"/>
        <pt x="598" y="413" on="1"/>
        <pt x="519" y="370" on="1"/>
        <pt x="617" y="311" on="1"/>
        <pt x="592" y="67" on="1"/>
        <pt x="469" y="0" on="1"/>
        <pt x="293" y="0" on="1"/>
        <pt x="302" y="90" on="1"/>
        <pt x="494" y="90" on="1"/>
        <pt x="518" y="317" on="1"/>
        <pt x="326" y="317" on="1"/>
        <pt x="335" y="407" on="1"/>
        <pt x="497" y="407" on="1"/>
        <pt x="519" y="610" on="1"/>
        <pt x="284" y="610" on="1"/>
        <pt x="198" y="-200" on="1"/>
        <pt x="98" y="-200" on="1"/>
        <pt x="153" y="317" on="1"/>
      </contour>
    </TTGlyph>
    <TTGlyph name="grave" xMin="260" yMin="590" xMax="471" yMax="718">
      <contour>
        <pt x="390" y="718" on="1"/>
        <pt x="471" y="590" on="1"/>
        <pt x="391" y="590" on="1"/>
        <pt x="260" y="718" on="1"/>
      </contour>
    </TTGlyph>
    <TTGlyph name="grave.cap" xMin="260" yMin="790" xMax="471" yMax="918">
      <contour>
        <pt x="390" y="918" on="1"/>
        <pt x="471" y="790" on="1"/>
        <pt x="391" y="790" on="1"/>
        <pt x="260" y="918" on="1"/>
      </contour>
    </TTGlyph>
    <TTGlyph name="greater" xMin="89" yMin="-1" xMax="621" yMax="501">
      <contour>
        <pt x="132" y="407" on="1"/>
        <pt x="142" y="501" on="1"/>
        <pt x="621" y="301" on="1"/>
        <pt x="610" y="199" on="1"/>
        <pt x="89" y="-1" on="1"/>
        <pt x="99" y="93" on="1"/>
        <pt x="519" y="249" on="1"/>
        <pt x="519" y="251" on="1"/>
      </contour>
    </TTGlyph>
    <TTGlyph name="greaterequal" xMin="90" yMin="0" xMax="628" yMax="501">
      <contour>
        <pt x="133" y="410" on="1"/>
        <pt x="142" y="501" on="1"/>
        <pt x="628" y="371" on="1"/>
        <pt x="618" y="269" on="1"/>
        <pt x="104" y="139" on="1"/>
        <pt x="114" y="230" on="1"/>
        <pt x="487" y="319" on="1"/>
        <pt x="487" y="321" on="1"/>
      </contour>
      <contour>
        <pt x="90" y="0" on="1"/>
        <pt x="99" y="94" on="1"/>
        <pt x="599" y="94" on="1"/>
        <pt x="590" y="0" on="1"/>
      </contour>
    </TTGlyph>
    <TTGlyph name="guillemotleft" xMin="111" yMin="0" xMax="642" yMax="502">
      <contour>
        <pt x="351" y="107" on="1"/>
        <pt x="340" y="0" on="1"/>
        <pt x="111" y="200" on="1"/>
        <pt x="121" y="302" on="1"/>
        <pt x="392" y="502" on="1"/>
        <pt x="381" y="395" on="1"/>
        <pt x="183" y="252" on="1"/>
        <pt x="183" y="251" on="1"/>
      </contour>
      <contour>
        <pt x="601" y="107" on="1"/>
        <pt x="590" y="0" on="1"/>
        <pt x="361" y="200" on="1"/>
        <pt x="371" y="302" on="1"/>
        <pt x="642" y="502" on="1"/>
        <pt x="631" y="395" on="1"/>
        <pt x="433" y="252" on="1"/>
        <pt x="433" y="251" on="1"/>
      </contour>
    </TTGlyph>
    <TTGlyph name="guillemotright" xMin="90" yMin="0" xMax="621" yMax="502">
      <contour>
        <pt x="340" y="0" on="1"/>
        <pt x="351" y="107" on="1"/>
        <pt x="549" y="251" on="1"/>
        <pt x="549" y="252" on="1"/>
        <pt x="381" y="395" on="1"/>
        <pt x="392" y="502" on="1"/>
        <pt x="621" y="302" on="1"/>
        <pt x="611" y="200" on="1"/>
      </contour>
      <contour>
        <pt x="90" y="0" on="1"/>
        <pt x="101" y="107" on="1"/>
        <pt x="299" y="251" on="1"/>
        <pt x="299" y="252" on="1"/>
        <pt x="131" y="395" on="1"/>
        <pt x="142" y="502" on="1"/>
        <pt x="371" y="302" on="1"/>
        <pt x="361" y="200" on="1"/>
      </contour>
    </TTGlyph>
    <TTGlyph name="guilsinglleft" xMin="111" yMin="0" xMax="392" yMax="502">
      <contour>
        <pt x="351" y="107" on="1"/>
        <pt x="340" y="0" on="1"/>
        <pt x="111" y="200" on="1"/>
        <pt x="121" y="302" on="1"/>
        <pt x="392" y="502" on="1"/>
        <pt x="381" y="395" on="1"/>
        <pt x="183" y="252" on="1"/>
        <pt x="183" y="251" on="1"/>
      </contour>
    </TTGlyph>
    <TTGlyph name="guilsinglright" xMin="90" yMin="0" xMax="371" yMax="502">
      <contour>
        <pt x="90" y="0" on="1"/>
        <pt x="101" y="107" on="1"/>
        <pt x="299" y="251" on="1"/>
        <pt x="299" y="252" on="1"/>
        <pt x="131" y="395" on="1"/>
        <pt x="142" y="502" on="1"/>
        <pt x="371" y="302" on="1"/>
        <pt x="361" y="200" on="1"/>
      </contour>
    </TTGlyph>
    <TTGlyph name="h" xMin="80" yMin="0" xMax="561" yMax="730">
      <contour>
        <pt x="177" y="0" on="1"/>
        <pt x="80" y="0" on="1"/>
        <pt x="156" y="730" on="1"/>
        <pt x="253" y="730" on="1"/>
        <pt x="225" y="464" on="1"/>
        <pt x="301" y="505" on="1"/>
        <pt x="452" y="505" on="1"/>
        <pt x="561" y="438" on="1"/>
        <pt x="515" y="0" on="1"/>
        <pt x="418" y="0" on="1"/>
        <pt x="461" y="418" on="1"/>
        <pt x="220" y="418" on="1"/>
      </contour>
    </TTGlyph>
    <TTGlyph name="hbar" xMin="71" yMin="0" xMax="561" yMax="730">
      <contour>
        <pt x="177" y="0" on="1"/>
        <pt x="80" y="0" on="1"/>
        <pt x="141" y="585" on="1"/>
        <pt x="71" y="585" on="1"/>
        <pt x="79" y="659" on="1"/>
        <pt x="148" y="659" on="1"/>
        <pt x="156" y="730" on="1"/>
        <pt x="253" y="730" on="1"/>
        <pt x="245" y="659" on="1"/>
        <pt x="395" y="659" on="1"/>
        <pt x="387" y="585" on="1"/>
        <pt x="237" y="585" on="1"/>
        <pt x="225" y="464" on="1"/>
        <pt x="301" y="505" on="1"/>
        <pt x="452" y="505" on="1"/>
        <pt x="561" y="438" on="1"/>
        <pt x="515" y="0" on="1"/>
        <pt x="418" y="0" on="1"/>
        <pt x="461" y="418" on="1"/>
        <pt x="220" y="418" on="1"/>
      </contour>
    </TTGlyph>
    <TTGlyph name="hungarumlaut" xMin="128" yMin="590" xMax="544" yMax="718">
      <contour>
        <pt x="307" y="590" on="1"/>
        <pt x="414" y="718" on="1"/>
        <pt x="544" y="718" on="1"/>
        <pt x="387" y="590" on="1"/>
      </contour>
      <contour>
        <pt x="128" y="590" on="1"/>
        <pt x="235" y="718" on="1"/>
        <pt x="365" y="718" on="1"/>
        <pt x="208" y="590" on="1"/>
      </contour>
    </TTGlyph>
    <TTGlyph name="hyphen" xMin="92" yMin="218" xMax="400" yMax="305">
      <contour>
        <pt x="92" y="218" on="1"/>
        <pt x="102" y="305" on="1"/>
        <pt x="400" y="305" on="1"/>
        <pt x="390" y="218" on="1"/>
      </contour>
    </TTGlyph>
    <TTGlyph name="i" xMin="80" yMin="0" xMax="258" yMax="730">
      <contour>
        <pt x="229" y="500" on="1"/>
        <pt x="177" y="0" on="1"/>
        <pt x="80" y="0" on="1"/>
        <pt x="132" y="500" on="1"/>
      </contour>
      <contour>
        <pt x="140" y="623" on="1"/>
        <pt x="151" y="730" on="1"/>
        <pt x="258" y="730" on="1"/>
        <pt x="247" y="623" on="1"/>
      </contour>
    </TTGlyph>
    <TTGlyph name="iacute" xMin="80" yMin="0" xMax="359" yMax="718">
      <contour>
        <pt x="229" y="500" on="1"/>
        <pt x="177" y="0" on="1"/>
        <pt x="80" y="0" on="1"/>
        <pt x="132" y="500" on="1"/>
      </contour>
      <contour>
        <pt x="122" y="590" on="1"/>
        <pt x="229" y="718" on="1"/>
        <pt x="359" y="718" on="1"/>
        <pt x="202" y="590" on="1"/>
      </contour>
    </TTGlyph>
    <TTGlyph name="icircumflex" xMin="35" yMin="0" xMax="346" yMax="728">
      <contour>
        <pt x="229" y="500" on="1"/>
        <pt x="177" y="0" on="1"/>
        <pt x="80" y="0" on="1"/>
        <pt x="132" y="500" on="1"/>
      </contour>
      <contour>
        <pt x="149" y="728" on="1"/>
        <pt x="259" y="728" on="1"/>
        <pt x="346" y="590" on="1"/>
        <pt x="271" y="590" on="1"/>
        <pt x="198" y="670" on="1"/>
        <pt x="110" y="590" on="1"/>
        <pt x="35" y="590" on="1"/>
      </contour>
    </TTGlyph>
    <TTGlyph name="idieresis" xMin="29" yMin="0" xMax="364" yMax="700">
      <contour>
        <pt x="229" y="500" on="1"/>
        <pt x="177" y="0" on="1"/>
        <pt x="80" y="0" on="1"/>
        <pt x="132" y="500" on="1"/>
      </contour>
      <contour>
        <pt x="29" y="595" on="1"/>
        <pt x="40" y="700" on="1"/>
        <pt x="145" y="700" on="1"/>
        <pt x="134" y="595" on="1"/>
      </contour>
      <contour>
        <pt x="248" y="595" on="1"/>
        <pt x="259" y="700" on="1"/>
        <pt x="364" y="700" on="1"/>
        <pt x="353" y="595" on="1"/>
      </contour>
    </TTGlyph>
    <TTGlyph name="igrave" xMin="48" yMin="0" xMax="259" yMax="718">
      <contour>
        <pt x="229" y="500" on="1"/>
        <pt x="177" y="0" on="1"/>
        <pt x="80" y="0" on="1"/>
        <pt x="132" y="500" on="1"/>
      </contour>
      <contour>
        <pt x="178" y="718" on="1"/>
        <pt x="259" y="590" on="1"/>
        <pt x="179" y="590" on="1"/>
        <pt x="48" y="718" on="1"/>
      </contour>
    </TTGlyph>
    <TTGlyph name="ij" xMin="80" yMin="-200" xMax="515" yMax="730">
      <contour>
        <pt x="229" y="500" on="1"/>
        <pt x="177" y="0" on="1"/>
        <pt x="80" y="0" on="1"/>
        <pt x="132" y="500" on="1"/>
      </contour>
      <contour>
        <pt x="140" y="623" on="1"/>
        <pt x="151" y="730" on="1"/>
        <pt x="258" y="730" on="1"/>
        <pt x="247" y="623" on="1"/>
      </contour>
      <contour>
        <pt x="397" y="623" on="1"/>
        <pt x="408" y="730" on="1"/>
        <pt x="515" y="730" on="1"/>
        <pt x="504" y="623" on="1"/>
      </contour>
      <contour>
        <pt x="486" y="500" on="1"/>
        <pt x="420" y="-133" on="1"/>
        <pt x="296" y="-200" on="1"/>
        <pt x="196" y="-200" on="1"/>
        <pt x="206" y="-113" on="1"/>
        <pt x="325" y="-113" on="1"/>
        <pt x="389" y="500" on="1"/>
      </contour>
    </TTGlyph>
    <TTGlyph name="infinity" xMin="107" yMin="103" xMax="847" yMax="518">
      <contour>
        <pt x="234" y="428" on="1"/>
        <pt x="210" y="193" on="1"/>
        <pt x="415" y="193" on="1"/>
        <pt x="439" y="428" on="1"/>
      </contour>
      <contour>
        <pt x="539" y="428" on="1"/>
        <pt x="515" y="193" on="1"/>
        <pt x="720" y="193" on="1"/>
        <pt x="744" y="428" on="1"/>
      </contour>
      <contour>
        <pt x="817" y="170" on="1"/>
        <pt x="694" y="103" on="1"/>
        <pt x="571" y="103" on="1"/>
        <pt x="462" y="170" on="1"/>
        <pt x="339" y="103" on="1"/>
        <pt x="216" y="103" on="1"/>
        <pt x="107" y="170" on="1"/>
        <pt x="137" y="451" on="1"/>
        <pt x="260" y="518" on="1"/>
        <pt x="383" y="518" on="1"/>
        <pt x="492" y="451" on="1"/>
        <pt x="615" y="518" on="1"/>
        <pt x="738" y="518" on="1"/>
        <pt x="847" y="451" on="1"/>
      </contour>
    </TTGlyph>
    <TTGlyph name="itilde" xMin="37" yMin="0" xMax="359" yMax="734">
      <contour>
        <pt x="229" y="500" on="1"/>
        <pt x="177" y="0" on="1"/>
        <pt x="80" y="0" on="1"/>
        <pt x="132" y="500" on="1"/>
      </contour>
      <contour>
        <pt x="116" y="667" on="1"/>
        <pt x="114" y="667" on="1"/>
        <pt x="105" y="585" on="1"/>
        <pt x="37" y="585" on="1"/>
        <pt x="47" y="679" on="1"/>
        <pt x="147" y="734" on="1"/>
        <pt x="280" y="652" on="1"/>
        <pt x="282" y="652" on="1"/>
        <pt x="291" y="734" on="1"/>
        <pt x="359" y="734" on="1"/>
        <pt x="349" y="640" on="1"/>
        <pt x="249" y="585" on="1"/>
      </contour>
    </TTGlyph>
    <TTGlyph name="j" xMin="-61" yMin="-200" xMax="258" yMax="730">
      <contour>
        <pt x="140" y="623" on="1"/>
        <pt x="151" y="730" on="1"/>
        <pt x="258" y="730" on="1"/>
        <pt x="247" y="623" on="1"/>
      </contour>
      <contour>
        <pt x="229" y="500" on="1"/>
        <pt x="163" y="-133" on="1"/>
        <pt x="39" y="-200" on="1"/>
        <pt x="-61" y="-200" on="1"/>
        <pt x="-51" y="-113" on="1"/>
        <pt x="68" y="-113" on="1"/>
        <pt x="132" y="500" on="1"/>
      </contour>
    </TTGlyph>
    <TTGlyph name="jcircumflex" xMin="-40" yMin="-200" xMax="346" yMax="728">
      <contour>
        <pt x="177" y="500" on="1"/>
        <pt x="177" y="-133" on="1"/>
        <pt x="61" y="-200" on="1"/>
        <pt x="-40" y="-200" on="1"/>
        <pt x="-40" y="-113" on="1"/>
        <pt x="80" y="-113" on="1"/>
        <pt x="80" y="500" on="1"/>
      </contour>
      <contour>
        <pt x="149" y="728" on="1"/>
        <pt x="259" y="728" on="1"/>
        <pt x="346" y="590" on="1"/>
        <pt x="271" y="590" on="1"/>
        <pt x="198" y="670" on="1"/>
        <pt x="110" y="590" on="1"/>
        <pt x="35" y="590" on="1"/>
      </contour>
    </TTGlyph>
    <TTGlyph name="k" xMin="80" yMin="0" xMax="553" yMax="730">
      <contour>
        <pt x="253" y="730" on="1"/>
        <pt x="203" y="251" on="1"/>
        <pt x="205" y="251" on="1"/>
        <pt x="437" y="500" on="1"/>
        <pt x="553" y="500" on="1"/>
        <pt x="336" y="274" on="1"/>
        <pt x="531" y="0" on="1"/>
        <pt x="412" y="0" on="1"/>
        <pt x="271" y="205" on="1"/>
        <pt x="189" y="119" on="1"/>
        <pt x="177" y="0" on="1"/>
        <pt x="80" y="0" on="1"/>
        <pt x="156" y="730" on="1"/>
      </contour>
    </TTGlyph>
    <TTGlyph name="kcommaaccent" xMin="80" yMin="-335" xMax="553" yMax="730">
      <contour>
        <pt x="253" y="730" on="1"/>
        <pt x="203" y="251" on="1"/>
        <pt x="205" y="251" on="1"/>
        <pt x="437" y="500" on="1"/>
        <pt x="553" y="500" on="1"/>
        <pt x="336" y="274" on="1"/>
        <pt x="531" y="0" on="1"/>
        <pt x="412" y="0" on="1"/>
        <pt x="271" y="205" on="1"/>
        <pt x="189" y="119" on="1"/>
        <pt x="177" y="0" on="1"/>
        <pt x="80" y="0" on="1"/>
        <pt x="156" y="730" on="1"/>
      </contour>
      <contour>
        <pt x="194" y="-335" on="1"/>
        <pt x="224" y="-55" on="1"/>
        <pt x="344" y="-55" on="1"/>
        <pt x="340" y="-89" on="1"/>
        <pt x="228" y="-335" on="1"/>
      </contour>
    </TTGlyph>
    <TTGlyph name="kgreenlandic" xMin="80" yMin="0" xMax="553" yMax="500">
      <contour>
        <pt x="229" y="500" on="1"/>
        <pt x="203" y="251" on="1"/>
        <pt x="205" y="251" on="1"/>
        <pt x="437" y="500" on="1"/>
        <pt x="553" y="500" on="1"/>
        <pt x="336" y="274" on="1"/>
        <pt x="531" y="0" on="1"/>
        <pt x="412" y="0" on="1"/>
        <pt x="271" y="205" on="1"/>
        <pt x="189" y="119" on="1"/>
        <pt x="177" y="0" on="1"/>
        <pt x="80" y="0" on="1"/>
        <pt x="132" y="500" on="1"/>
      </contour>
    </TTGlyph>
    <TTGlyph name="l" xMin="87" yMin="0" xMax="306" yMax="730">
      <contour>
        <pt x="196" y="0" on="1"/>
        <pt x="87" y="67" on="1"/>
        <pt x="156" y="730" on="1"/>
        <pt x="253" y="730" on="1"/>
        <pt x="186" y="87" on="1"/>
        <pt x="306" y="87" on="1"/>
        <pt x="297" y="0" on="1"/>
      </contour>
    </TTGlyph>
    <TTGlyph name="l.alt" xMin="80" yMin="0" xMax="253" yMax="730">
      <contour>
        <pt x="177" y="0" on="1"/>
        <pt x="80" y="0" on="1"/>
        <pt x="156" y="730" on="1"/>
        <pt x="253" y="730" on="1"/>
      </contour>
    </TTGlyph>
    <TTGlyph name="ldot" xMin="87" yMin="0" xMax="421" yMax="730">
      <contour>
        <pt x="196" y="0" on="1"/>
        <pt x="87" y="67" on="1"/>
        <pt x="156" y="730" on="1"/>
        <pt x="253" y="730" on="1"/>
        <pt x="186" y="87" on="1"/>
        <pt x="306" y="87" on="1"/>
        <pt x="297" y="0" on="1"/>
      </contour>
      <contour>
        <pt x="289" y="239" on="1"/>
        <pt x="301" y="359" on="1"/>
        <pt x="421" y="359" on="1"/>
        <pt x="409" y="239" on="1"/>
      </contour>
    </TTGlyph>
    <TTGlyph name="less" xMin="80" yMin="-1" xMax="612" yMax="501">
      <contour>
        <pt x="612" y="501" on="1"/>
        <pt x="602" y="407" on="1"/>
        <pt x="183" y="251" on="1"/>
        <pt x="183" y="249" on="1"/>
        <pt x="569" y="93" on="1"/>
        <pt x="559" y="-1" on="1"/>
        <pt x="80" y="199" on="1"/>
        <pt x="91" y="301" on="1"/>
      </contour>
    </TTGlyph>
    <TTGlyph name="lessequal" xMin="90" yMin="0" xMax="642" yMax="501">
      <contour>
        <pt x="642" y="501" on="1"/>
        <pt x="633" y="410" on="1"/>
        <pt x="259" y="321" on="1"/>
        <pt x="259" y="319" on="1"/>
        <pt x="614" y="230" on="1"/>
        <pt x="604" y="139" on="1"/>
        <pt x="118" y="269" on="1"/>
        <pt x="128" y="371" on="1"/>
      </contour>
      <contour>
        <pt x="599" y="94" on="1"/>
        <pt x="590" y="0" on="1"/>
        <pt x="90" y="0" on="1"/>
        <pt x="99" y="94" on="1"/>
      </contour>
    </TTGlyph>
    <TTGlyph name="lslash" xMin="50" yMin="0" xMax="322" yMax="730">
      <contour>
        <pt x="50" y="291" on="1"/>
        <pt x="58" y="365" on="1"/>
        <pt x="120" y="381" on="1"/>
        <pt x="156" y="730" on="1"/>
        <pt x="253" y="730" on="1"/>
        <pt x="219" y="408" on="1"/>
        <pt x="322" y="435" on="1"/>
        <pt x="314" y="361" on="1"/>
        <pt x="212" y="334" on="1"/>
        <pt x="186" y="87" on="1"/>
        <pt x="306" y="87" on="1"/>
        <pt x="297" y="0" on="1"/>
        <pt x="196" y="0" on="1"/>
        <pt x="87" y="67" on="1"/>
        <pt x="112" y="307" on="1"/>
      </contour>
    </TTGlyph>
    <TTGlyph name="m" xMin="80" yMin="0" xMax="799" yMax="505">
      <contour>
        <pt x="799" y="438" on="1"/>
        <pt x="753" y="0" on="1"/>
        <pt x="656" y="0" on="1"/>
        <pt x="699" y="418" on="1"/>
        <pt x="508" y="418" on="1"/>
        <pt x="465" y="0" on="1"/>
        <pt x="368" y="0" on="1"/>
        <pt x="411" y="418" on="1"/>
        <pt x="220" y="418" on="1"/>
        <pt x="177" y="0" on="1"/>
        <pt x="80" y="0" on="1"/>
        <pt x="133" y="505" on="1"/>
        <pt x="206" y="505" on="1"/>
        <pt x="225" y="464" on="1"/>
        <pt x="301" y="505" on="1"/>
        <pt x="402" y="505" on="1"/>
        <pt x="489" y="451" on="1"/>
        <pt x="589" y="505" on="1"/>
        <pt x="690" y="505" on="1"/>
      </contour>
    </TTGlyph>
    <TTGlyph name="macron" xMin="207" yMin="600" xMax="525" yMax="667">
      <contour>
        <pt x="207" y="600" on="1"/>
        <pt x="214" y="667" on="1"/>
        <pt x="525" y="667" on="1"/>
        <pt x="518" y="600" on="1"/>
      </contour>
    </TTGlyph>
    <TTGlyph name="madslug" xMin="80" yMin="-9" xMax="816" yMax="730">
      <contour>
        <pt x="650" y="51" on="1"/>
        <pt x="554" y="-9" on="0"/>
        <pt x="447" y="-9" on="1"/>
        <pt x="295" y="-9" on="0"/>
        <pt x="80" y="207" on="0"/>
        <pt x="80" y="361" on="1"/>
        <pt x="80" y="458" on="0"/>
        <pt x="167" y="611" on="0"/>
        <pt x="263" y="611" on="0"/>
        <pt x="263" y="560" on="1"/>
        <pt x="263" y="527" on="0"/>
        <pt x="204" y="267" on="0"/>
        <pt x="204" y="265" on="1"/>
        <pt x="204" y="254" on="0"/>
        <pt x="240" y="254" on="0"/>
        <pt x="317" y="272" on="0"/>
        <pt x="321" y="280" on="1"/>
        <pt x="321" y="282" on="0"/>
        <pt x="351" y="414" on="0"/>
        <pt x="360" y="456" on="1"/>
        <pt x="380" y="557" on="0"/>
        <pt x="380" y="628" on="0"/>
        <pt x="316" y="669" on="0"/>
        <pt x="267" y="669" on="1"/>
        <pt x="248" y="667" on="1"/>
        <pt x="246" y="670" on="1"/>
        <pt x="340" y="730" on="0"/>
        <pt x="447" y="730" on="1"/>
        <pt x="601" y="730" on="0"/>
        <pt x="816" y="514" on="0"/>
        <pt x="816" y="360" on="1"/>
        <pt x="816" y="263" on="0"/>
        <pt x="729" y="110" on="0"/>
        <pt x="633" y="110" on="0"/>
        <pt x="633" y="161" on="1"/>
        <pt x="633" y="194" on="0"/>
        <pt x="692" y="454" on="0"/>
        <pt x="692" y="455" on="1"/>
        <pt x="692" y="467" on="0"/>
        <pt x="656" y="467" on="0"/>
        <pt x="579" y="449" on="0"/>
        <pt x="575" y="441" on="1"/>
        <pt x="575" y="439" on="0"/>
        <pt x="545" y="307" on="0"/>
        <pt x="536" y="265" on="1"/>
        <pt x="516" y="164" on="0"/>
        <pt x="516" y="93" on="0"/>
        <pt x="580" y="52" on="0"/>
        <pt x="629" y="52" on="1"/>
        <pt x="648" y="53" on="1"/>
      </contour>
      <contour>
        <pt x="476" y="234" on="1"/>
        <pt x="489" y="287" on="0"/>
        <pt x="533" y="494" on="0"/>
        <pt x="533" y="511" on="0"/>
        <pt x="498" y="511" on="0"/>
        <pt x="433" y="497" on="0"/>
        <pt x="420" y="487" on="1"/>
        <pt x="407" y="434" on="0"/>
        <pt x="363" y="227" on="0"/>
        <pt x="363" y="209" on="0"/>
        <pt x="397" y="209" on="0"/>
        <pt x="463" y="224" on="0"/>
      </contour>
    </TTGlyph>
    <TTGlyph name="minus" xMin="71" yMin="203" xMax="581" yMax="297">
      <contour>
        <pt x="581" y="297" on="1"/>
        <pt x="571" y="203" on="1"/>
        <pt x="71" y="203" on="1"/>
        <pt x="81" y="297" on="1"/>
      </contour>
    </TTGlyph>
    <TTGlyph name="mu" xMin="80" yMin="-158" xMax="617" yMax="500">
      <contour>
        <pt x="448" y="0" on="1"/>
        <pt x="428" y="41" on="1"/>
        <pt x="353" y="0" on="1"/>
        <pt x="193" y="0" on="1"/>
        <pt x="177" y="-158" on="1"/>
        <pt x="80" y="-158" on="1"/>
        <pt x="149" y="500" on="1"/>
        <pt x="246" y="500" on="1"/>
        <pt x="202" y="87" on="1"/>
        <pt x="433" y="87" on="1"/>
        <pt x="477" y="500" on="1"/>
        <pt x="574" y="500" on="1"/>
        <pt x="530" y="87" on="1"/>
        <pt x="617" y="87" on="1"/>
        <pt x="608" y="0" on="1"/>
      </contour>
    </TTGlyph>
    <TTGlyph name="multiply" xMin="67" yMin="5" xMax="595" yMax="495">
      <contour>
        <pt x="178" y="495" on="1"/>
        <pt x="338" y="316" on="1"/>
        <pt x="536" y="495" on="1"/>
        <pt x="595" y="429" on="1"/>
        <pt x="397" y="250" on="1"/>
        <pt x="557" y="71" on="1"/>
        <pt x="484" y="5" on="1"/>
        <pt x="324" y="184" on="1"/>
        <pt x="126" y="5" on="1"/>
        <pt x="67" y="71" on="1"/>
        <pt x="265" y="250" on="1"/>
        <pt x="105" y="429" on="1"/>
      </contour>
    </TTGlyph>
    <TTGlyph name="n" xMin="80" yMin="0" xMax="551" yMax="505">
      <contour>
        <pt x="551" y="438" on="1"/>
        <pt x="505" y="0" on="1"/>
        <pt x="408" y="0" on="1"/>
        <pt x="451" y="418" on="1"/>
        <pt x="220" y="418" on="1"/>
        <pt x="177" y="0" on="1"/>
        <pt x="80" y="0" on="1"/>
        <pt x="133" y="505" on="1"/>
        <pt x="206" y="505" on="1"/>
        <pt x="225" y="464" on="1"/>
        <pt x="301" y="505" on="1"/>
        <pt x="442" y="505" on="1"/>
      </contour>
    </TTGlyph>
    <TTGlyph name="nacute" xMin="80" yMin="0" xMax="551" yMax="718">
      <contour>
        <pt x="551" y="438" on="1"/>
        <pt x="505" y="0" on="1"/>
        <pt x="408" y="0" on="1"/>
        <pt x="451" y="418" on="1"/>
        <pt x="220" y="418" on="1"/>
        <pt x="177" y="0" on="1"/>
        <pt x="80" y="0" on="1"/>
        <pt x="133" y="505" on="1"/>
        <pt x="206" y="505" on="1"/>
        <pt x="225" y="464" on="1"/>
        <pt x="301" y="505" on="1"/>
        <pt x="442" y="505" on="1"/>
      </contour>
      <contour>
        <pt x="263" y="590" on="1"/>
        <pt x="370" y="718" on="1"/>
        <pt x="500" y="718" on="1"/>
        <pt x="343" y="590" on="1"/>
      </contour>
    </TTGlyph>
    <TTGlyph name="nine" xMin="96" yMin="-5" xMax="612" yMax="705">
      <contour>
        <pt x="453" y="85" on="1"/>
        <pt x="479" y="331" on="1"/>
        <pt x="404" y="290" on="1"/>
        <pt x="236" y="290" on="1"/>
        <pt x="127" y="357" on="1"/>
        <pt x="157" y="638" on="1"/>
        <pt x="280" y="705" on="1"/>
        <pt x="503" y="705" on="1"/>
        <pt x="612" y="638" on="1"/>
        <pt x="551" y="62" on="1"/>
        <pt x="428" y="-5" on="1"/>
        <pt x="205" y="-5" on="1"/>
        <pt x="96" y="62" on="1"/>
        <pt x="108" y="175" on="1"/>
        <pt x="208" y="175" on="1"/>
        <pt x="198" y="85" on="1"/>
      </contour>
      <contour>
        <pt x="484" y="380" on="1"/>
        <pt x="509" y="615" on="1"/>
        <pt x="254" y="615" on="1"/>
        <pt x="229" y="380" on="1"/>
      </contour>
    </TTGlyph>
    <TTGlyph name="notequal" xMin="88" yMin="-11" xMax="643" yMax="511">
      <contour>
        <pt x="633" y="411" on="1"/>
        <pt x="623" y="317" on="1"/>
        <pt x="470" y="317" on="1"/>
        <pt x="351" y="183" on="1"/>
        <pt x="609" y="183" on="1"/>
        <pt x="599" y="89" on="1"/>
        <pt x="267" y="89" on="1"/>
        <pt x="178" y="-11" on="1"/>
        <pt x="88" y="-11" on="1"/>
        <pt x="177" y="89" on="1"/>
        <pt x="99" y="89" on="1"/>
        <pt x="109" y="183" on="1"/>
        <pt x="261" y="183" on="1"/>
        <pt x="380" y="317" on="1"/>
        <pt x="123" y="317" on="1"/>
        <pt x="133" y="411" on="1"/>
        <pt x="464" y="411" on="1"/>
        <pt x="553" y="511" on="1"/>
        <pt x="643" y="511" on="1"/>
        <pt x="554" y="411" on="1"/>
      </contour>
    </TTGlyph>
    <TTGlyph name="ntilde" xMin="80" yMin="0" xMax="551" yMax="734">
      <contour>
        <pt x="551" y="438" on="1"/>
        <pt x="505" y="0" on="1"/>
        <pt x="408" y="0" on="1"/>
        <pt x="451" y="418" on="1"/>
        <pt x="220" y="418" on="1"/>
        <pt x="177" y="0" on="1"/>
        <pt x="80" y="0" on="1"/>
        <pt x="133" y="505" on="1"/>
        <pt x="206" y="505" on="1"/>
        <pt x="225" y="464" on="1"/>
        <pt x="301" y="505" on="1"/>
        <pt x="442" y="505" on="1"/>
      </contour>
      <contour>
        <pt x="279" y="667" on="1"/>
        <pt x="277" y="667" on="1"/>
        <pt x="268" y="585" on="1"/>
        <pt x="200" y="585" on="1"/>
        <pt x="210" y="679" on="1"/>
        <pt x="310" y="734" on="1"/>
        <pt x="443" y="652" on="1"/>
        <pt x="445" y="652" on="1"/>
        <pt x="454" y="734" on="1"/>
        <pt x="522" y="734" on="1"/>
        <pt x="512" y="640" on="1"/>
        <pt x="412" y="585" on="1"/>
      </contour>
    </TTGlyph>
    <TTGlyph name="numbersign" xMin="78" yMin="-20" xMax="752" yMax="720">
      <contour>
        <pt x="423" y="-20" on="1"/>
        <pt x="461" y="172" on="1"/>
        <pt x="285" y="172" on="1"/>
        <pt x="247" y="-20" on="1"/>
        <pt x="164" y="-20" on="1"/>
        <pt x="202" y="172" on="1"/>
        <pt x="78" y="172" on="1"/>
        <pt x="86" y="248" on="1"/>
        <pt x="217" y="248" on="1"/>
        <pt x="258" y="460" on="1"/>
        <pt x="108" y="460" on="1"/>
        <pt x="116" y="536" on="1"/>
        <pt x="273" y="536" on="1"/>
        <pt x="309" y="720" on="1"/>
        <pt x="392" y="720" on="1"/>
        <pt x="356" y="536" on="1"/>
        <pt x="532" y="536" on="1"/>
        <pt x="568" y="720" on="1"/>
        <pt x="651" y="720" on="1"/>
        <pt x="615" y="536" on="1"/>
        <pt x="752" y="536" on="1"/>
        <pt x="744" y="460" on="1"/>
        <pt x="600" y="460" on="1"/>
        <pt x="559" y="248" on="1"/>
        <pt x="722" y="248" on="1"/>
        <pt x="714" y="172" on="1"/>
        <pt x="544" y="172" on="1"/>
        <pt x="506" y="-20" on="1"/>
      </contour>
      <contour>
        <pt x="341" y="460" on="1"/>
        <pt x="300" y="248" on="1"/>
        <pt x="476" y="248" on="1"/>
        <pt x="517" y="460" on="1"/>
      </contour>
    </TTGlyph>
    <TTGlyph name="o" xMin="86" yMin="-5" xMax="551" yMax="505">
      <contour>
        <pt x="511" y="62" on="1"/>
        <pt x="388" y="-5" on="1"/>
        <pt x="195" y="-5" on="1"/>
        <pt x="86" y="62" on="1"/>
        <pt x="126" y="438" on="1"/>
        <pt x="249" y="505" on="1"/>
        <pt x="442" y="505" on="1"/>
        <pt x="551" y="438" on="1"/>
      </contour>
      <contour>
        <pt x="220" y="418" on="1"/>
        <pt x="185" y="82" on="1"/>
        <pt x="416" y="82" on="1"/>
        <pt x="451" y="418" on="1"/>
      </contour>
    </TTGlyph>
    <TTGlyph name="oacute" xMin="86" yMin="-5" xMax="551" yMax="718">
      <contour>
        <pt x="511" y="62" on="1"/>
        <pt x="388" y="-5" on="1"/>
        <pt x="195" y="-5" on="1"/>
        <pt x="86" y="62" on="1"/>
        <pt x="126" y="438" on="1"/>
        <pt x="249" y="505" on="1"/>
        <pt x="442" y="505" on="1"/>
        <pt x="551" y="438" on="1"/>
      </contour>
      <contour>
        <pt x="220" y="418" on="1"/>
        <pt x="185" y="82" on="1"/>
        <pt x="416" y="82" on="1"/>
        <pt x="451" y="418" on="1"/>
      </contour>
      <contour>
        <pt x="280" y="590" on="1"/>
        <pt x="387" y="718" on="1"/>
        <pt x="517" y="718" on="1"/>
        <pt x="360" y="590" on="1"/>
      </contour>
    </TTGlyph>
    <TTGlyph name="ocircumflex" xMin="86" yMin="-5" xMax="551" yMax="728">
      <contour>
        <pt x="511" y="62" on="1"/>
        <pt x="388" y="-5" on="1"/>
        <pt x="195" y="-5" on="1"/>
        <pt x="86" y="62" on="1"/>
        <pt x="126" y="438" on="1"/>
        <pt x="249" y="505" on="1"/>
        <pt x="442" y="505" on="1"/>
        <pt x="551" y="438" on="1"/>
      </contour>
      <contour>
        <pt x="220" y="418" on="1"/>
        <pt x="185" y="82" on="1"/>
        <pt x="416" y="82" on="1"/>
        <pt x="451" y="418" on="1"/>
      </contour>
      <contour>
        <pt x="316" y="728" on="1"/>
        <pt x="426" y="728" on="1"/>
        <pt x="513" y="590" on="1"/>
        <pt x="438" y="590" on="1"/>
        <pt x="365" y="670" on="1"/>
        <pt x="277" y="590" on="1"/>
        <pt x="202" y="590" on="1"/>
      </contour>
    </TTGlyph>
    <TTGlyph name="odieresis" xMin="86" yMin="-5" xMax="551" yMax="700">
      <contour>
        <pt x="511" y="62" on="1"/>
        <pt x="388" y="-5" on="1"/>
        <pt x="195" y="-5" on="1"/>
        <pt x="86" y="62" on="1"/>
        <pt x="126" y="438" on="1"/>
        <pt x="249" y="505" on="1"/>
        <pt x="442" y="505" on="1"/>
        <pt x="551" y="438" on="1"/>
      </contour>
      <contour>
        <pt x="220" y="418" on="1"/>
        <pt x="185" y="82" on="1"/>
        <pt x="416" y="82" on="1"/>
        <pt x="451" y="418" on="1"/>
      </contour>
      <contour>
        <pt x="193" y="595" on="1"/>
        <pt x="204" y="700" on="1"/>
        <pt x="309" y="700" on="1"/>
        <pt x="298" y="595" on="1"/>
      </contour>
      <contour>
        <pt x="412" y="595" on="1"/>
        <pt x="423" y="700" on="1"/>
        <pt x="528" y="700" on="1"/>
        <pt x="517" y="595" on="1"/>
      </contour>
    </TTGlyph>
    <TTGlyph name="oe" xMin="86" yMin="-5" xMax="849" yMax="505">
      <contour>
        <pt x="812" y="87" on="1"/>
        <pt x="803" y="0" on="1"/>
        <pt x="524" y="0" on="1"/>
        <pt x="464" y="36" on="1"/>
        <pt x="388" y="-5" on="1"/>
        <pt x="195" y="-5" on="1"/>
        <pt x="86" y="62" on="1"/>
        <pt x="126" y="438" on="1"/>
        <pt x="249" y="505" on="1"/>
        <pt x="442" y="505" on="1"/>
        <pt x="504" y="466" on="1"/>
        <pt x="577" y="505" on="1"/>
        <pt x="740" y="505" on="1"/>
        <pt x="849" y="438" on="1"/>
        <pt x="825" y="216" on="1"/>
        <pt x="527" y="216" on="1"/>
        <pt x="514" y="87" on="1"/>
      </contour>
      <contour>
        <pt x="220" y="418" on="1"/>
        <pt x="185" y="82" on="1"/>
        <pt x="416" y="82" on="1"/>
        <pt x="451" y="418" on="1"/>
      </contour>
      <contour>
        <pt x="548" y="418" on="1"/>
        <pt x="536" y="303" on="1"/>
        <pt x="737" y="303" on="1"/>
        <pt x="749" y="418" on="1"/>
      </contour>
    </TTGlyph>
    <TTGlyph name="ogonek" xMin="166" yMin="-198" xMax="326" yMax="0">
      <contour>
        <pt x="247" y="0" on="1"/>
        <pt x="233" y="-131" on="1"/>
        <pt x="326" y="-131" on="1"/>
        <pt x="319" y="-198" on="1"/>
        <pt x="275" y="-198" on="1"/>
        <pt x="166" y="-131" on="1"/>
        <pt x="180" y="0" on="1"/>
      </contour>
    </TTGlyph>
    <TTGlyph name="ograve" xMin="86" yMin="-5" xMax="551" yMax="718">
      <contour>
        <pt x="511" y="62" on="1"/>
        <pt x="388" y="-5" on="1"/>
        <pt x="195" y="-5" on="1"/>
        <pt x="86" y="62" on="1"/>
        <pt x="126" y="438" on="1"/>
        <pt x="249" y="505" on="1"/>
        <pt x="442" y="505" on="1"/>
        <pt x="551" y="438" on="1"/>
      </contour>
      <contour>
        <pt x="220" y="418" on="1"/>
        <pt x="185" y="82" on="1"/>
        <pt x="416" y="82" on="1"/>
        <pt x="451" y="418" on="1"/>
      </contour>
      <contour>
        <pt x="367" y="718" on="1"/>
        <pt x="448" y="590" on="1"/>
        <pt x="368" y="590" on="1"/>
        <pt x="237" y="718" on="1"/>
      </contour>
    </TTGlyph>
    <TTGlyph name="one" xMin="90" yMin="0" xMax="539" yMax="700">
      <contour>
        <pt x="141" y="490" on="1"/>
        <pt x="152" y="591" on="1"/>
        <pt x="353" y="700" on="1"/>
        <pt x="433" y="700" on="1"/>
        <pt x="369" y="90" on="1"/>
        <pt x="539" y="90" on="1"/>
        <pt x="530" y="0" on="1"/>
        <pt x="90" y="0" on="1"/>
        <pt x="99" y="90" on="1"/>
        <pt x="269" y="90" on="1"/>
        <pt x="321" y="588" on="1"/>
      </contour>
    </TTGlyph>
    <TTGlyph name="ordfeminine" xMin="90" yMin="0" xMax="578" yMax="700">
      <contour>
        <pt x="90" y="0" on="1"/>
        <pt x="99" y="87" on="1"/>
        <pt x="514" y="87" on="1"/>
        <pt x="505" y="0" on="1"/>
      </contour>
      <contour>
        <pt x="251" y="613" on="1"/>
        <pt x="216" y="277" on="1"/>
        <pt x="437" y="277" on="1"/>
        <pt x="472" y="613" on="1"/>
      </contour>
      <contour>
        <pt x="578" y="700" on="1"/>
        <pt x="524" y="190" on="1"/>
        <pt x="498" y="190" on="1"/>
        <pt x="432" y="231" on="1"/>
        <pt x="356" y="190" on="1"/>
        <pt x="225" y="190" on="1"/>
        <pt x="117" y="257" on="1"/>
        <pt x="156" y="633" on="1"/>
        <pt x="279" y="700" on="1"/>
        <pt x="410" y="700" on="1"/>
        <pt x="477" y="659" on="1"/>
        <pt x="552" y="700" on="1"/>
      </contour>
    </TTGlyph>
    <TTGlyph name="ordmasculine" xMin="90" yMin="0" xMax="582" yMax="705">
      <contour>
        <pt x="542" y="262" on="1"/>
        <pt x="419" y="195" on="1"/>
        <pt x="226" y="195" on="1"/>
        <pt x="117" y="262" on="1"/>
        <pt x="157" y="638" on="1"/>
        <pt x="280" y="705" on="1"/>
        <pt x="473" y="705" on="1"/>
        <pt x="582" y="638" on="1"/>
      </contour>
      <contour>
        <pt x="251" y="618" on="1"/>
        <pt x="216" y="282" on="1"/>
        <pt x="447" y="282" on="1"/>
        <pt x="482" y="618" on="1"/>
      </contour>
      <contour>
        <pt x="90" y="0" on="1"/>
        <pt x="99" y="87" on="1"/>
        <pt x="524" y="87" on="1"/>
        <pt x="515" y="0" on="1"/>
      </contour>
    </TTGlyph>
    <TTGlyph name="oslash" xMin="86" yMin="-5" xMax="551" yMax="505">
      <contour>
        <pt x="511" y="62" on="1"/>
        <pt x="388" y="-5" on="1"/>
        <pt x="195" y="-5" on="1"/>
        <pt x="86" y="62" on="1"/>
        <pt x="126" y="438" on="1"/>
        <pt x="249" y="505" on="1"/>
        <pt x="442" y="505" on="1"/>
        <pt x="551" y="438" on="1"/>
      </contour>
      <contour>
        <pt x="220" y="418" on="1"/>
        <pt x="191" y="140" on="1"/>
        <pt x="411" y="418" on="1"/>
      </contour>
      <contour>
        <pt x="225" y="82" on="1"/>
        <pt x="416" y="82" on="1"/>
        <pt x="445" y="360" on="1"/>
      </contour>
    </TTGlyph>
    <TTGlyph name="otilde" xMin="86" yMin="-5" xMax="551" yMax="734">
      <contour>
        <pt x="511" y="62" on="1"/>
        <pt x="388" y="-5" on="1"/>
        <pt x="195" y="-5" on="1"/>
        <pt x="86" y="62" on="1"/>
        <pt x="126" y="438" on="1"/>
        <pt x="249" y="505" on="1"/>
        <pt x="442" y="505" on="1"/>
        <pt x="551" y="438" on="1"/>
      </contour>
      <contour>
        <pt x="220" y="418" on="1"/>
        <pt x="185" y="82" on="1"/>
        <pt x="416" y="82" on="1"/>
        <pt x="451" y="418" on="1"/>
      </contour>
      <contour>
        <pt x="283" y="667" on="1"/>
        <pt x="281" y="667" on="1"/>
        <pt x="272" y="585" on="1"/>
        <pt x="204" y="585" on="1"/>
        <pt x="214" y="679" on="1"/>
        <pt x="314" y="734" on="1"/>
        <pt x="447" y="652" on="1"/>
        <pt x="449" y="652" on="1"/>
        <pt x="458" y="734" on="1"/>
        <pt x="526" y="734" on="1"/>
        <pt x="516" y="640" on="1"/>
        <pt x="416" y="585" on="1"/>
      </contour>
    </TTGlyph>
    <TTGlyph name="p" xMin="58" yMin="-200" xMax="561" yMax="505">
      <contour>
        <pt x="398" y="-5" on="1"/>
        <pt x="247" y="-5" on="1"/>
        <pt x="180" y="36" on="1"/>
        <pt x="155" y="-200" on="1"/>
        <pt x="58" y="-200" on="1"/>
        <pt x="133" y="505" on="1"/>
        <pt x="206" y="505" on="1"/>
        <pt x="225" y="464" on="1"/>
        <pt x="301" y="505" on="1"/>
        <pt x="452" y="505" on="1"/>
        <pt x="561" y="438" on="1"/>
        <pt x="521" y="62" on="1"/>
      </contour>
      <contour>
        <pt x="220" y="418" on="1"/>
        <pt x="185" y="82" on="1"/>
        <pt x="426" y="82" on="1"/>
        <pt x="461" y="418" on="1"/>
      </contour>
    </TTGlyph>
    <TTGlyph name="paragraph" xMin="93" yMin="-200" xMax="668" yMax="700">
      <contour>
        <pt x="476" y="-200" on="1"/>
        <pt x="562" y="613" on="1"/>
        <pt x="465" y="613" on="1"/>
        <pt x="379" y="-200" on="1"/>
        <pt x="282" y="-200" on="1"/>
        <pt x="330" y="249" on="1"/>
        <pt x="202" y="249" on="1"/>
        <pt x="93" y="316" on="1"/>
        <pt x="126" y="633" on="1"/>
        <pt x="249" y="700" on="1"/>
        <pt x="668" y="700" on="1"/>
        <pt x="573" y="-200" on="1"/>
      </contour>
    </TTGlyph>
    <TTGlyph name="parenleft" xMin="76" yMin="-200" xMax="379" yMax="730">
      <contour>
        <pt x="239" y="660" on="1"/>
        <pt x="156" y="-130" on="1"/>
        <pt x="289" y="-130" on="1"/>
        <pt x="281" y="-200" on="1"/>
        <pt x="184" y="-200" on="1"/>
        <pt x="76" y="-133" on="1"/>
        <pt x="159" y="663" on="1"/>
        <pt x="282" y="730" on="1"/>
        <pt x="379" y="730" on="1"/>
        <pt x="372" y="660" on="1"/>
      </contour>
    </TTGlyph>
    <TTGlyph name="parenright" xMin="38" yMin="-200" xMax="342" yMax="730">
      <contour>
        <pt x="179" y="-130" on="1"/>
        <pt x="262" y="660" on="1"/>
        <pt x="129" y="660" on="1"/>
        <pt x="136" y="730" on="1"/>
        <pt x="233" y="730" on="1"/>
        <pt x="342" y="663" on="1"/>
        <pt x="259" y="-133" on="1"/>
        <pt x="135" y="-200" on="1"/>
        <pt x="38" y="-200" on="1"/>
        <pt x="46" y="-130" on="1"/>
      </contour>
    </TTGlyph>
    <TTGlyph name="partialdiff" xMin="96" yMin="-5" xMax="612" yMax="705">
      <contour>
        <pt x="509" y="615" on="1"/>
        <pt x="270" y="615" on="1"/>
        <pt x="280" y="705" on="1"/>
        <pt x="503" y="705" on="1"/>
        <pt x="612" y="638" on="1"/>
        <pt x="551" y="62" on="1"/>
        <pt x="428" y="-5" on="1"/>
        <pt x="205" y="-5" on="1"/>
        <pt x="96" y="62" on="1"/>
        <pt x="128" y="363" on="1"/>
        <pt x="251" y="430" on="1"/>
        <pt x="419" y="430" on="1"/>
        <pt x="485" y="389" on="1"/>
      </contour>
      <contour>
        <pt x="453" y="85" on="1"/>
        <pt x="480" y="340" on="1"/>
        <pt x="225" y="340" on="1"/>
        <pt x="198" y="85" on="1"/>
      </contour>
    </TTGlyph>
    <TTGlyph name="percent" xMin="124" yMin="-10" xMax="940" yMax="710">
      <contour>
        <pt x="469" y="424" on="1"/>
        <pt x="346" y="357" on="1"/>
        <pt x="233" y="357" on="1"/>
        <pt x="124" y="424" on="1"/>
        <pt x="147" y="643" on="1"/>
        <pt x="270" y="710" on="1"/>
        <pt x="383" y="710" on="1"/>
        <pt x="492" y="643" on="1"/>
      </contour>
      <contour>
        <pt x="237" y="629" on="1"/>
        <pt x="217" y="438" on="1"/>
        <pt x="380" y="438" on="1"/>
        <pt x="400" y="629" on="1"/>
      </contour>
      <contour>
        <pt x="781" y="710" on="1"/>
        <pt x="871" y="710" on="1"/>
        <pt x="282" y="-10" on="1"/>
        <pt x="192" y="-10" on="1"/>
      </contour>
      <contour>
        <pt x="595" y="276" on="1"/>
        <pt x="718" y="343" on="1"/>
        <pt x="831" y="343" on="1"/>
        <pt x="940" y="276" on="1"/>
        <pt x="916" y="57" on="1"/>
        <pt x="793" y="-10" on="1"/>
        <pt x="680" y="-10" on="1"/>
        <pt x="571" y="57" on="1"/>
      </contour>
      <contour>
        <pt x="827" y="71" on="1"/>
        <pt x="847" y="262" on="1"/>
        <pt x="684" y="262" on="1"/>
        <pt x="664" y="71" on="1"/>
      </contour>
    </TTGlyph>
    <TTGlyph name="period" xMin="100" yMin="0" xMax="265" yMax="150">
      <contour>
        <pt x="100" y="0" on="1"/>
        <pt x="115" y="150" on="1"/>
        <pt x="265" y="150" on="1"/>
        <pt x="250" y="0" on="1"/>
      </contour>
    </TTGlyph>
    <TTGlyph name="periodcentered" xMin="129" yMin="284" xMax="295" yMax="434">
      <contour>
        <pt x="129" y="284" on="1"/>
        <pt x="145" y="434" on="1"/>
        <pt x="295" y="434" on="1"/>
        <pt x="279" y="284" on="1"/>
      </contour>
    </TTGlyph>
    <TTGlyph name="perthousand" xMin="124" yMin="-10" xMax="1375" yMax="710">
      <contour>
        <pt x="781" y="710" on="1"/>
        <pt x="871" y="710" on="1"/>
        <pt x="282" y="-10" on="1"/>
        <pt x="192" y="-10" on="1"/>
      </contour>
      <contour>
        <pt x="469" y="424" on="1"/>
        <pt x="346" y="357" on="1"/>
        <pt x="233" y="357" on="1"/>
        <pt x="124" y="424" on="1"/>
        <pt x="147" y="643" on="1"/>
        <pt x="270" y="710" on="1"/>
        <pt x="383" y="710" on="1"/>
        <pt x="492" y="643" on="1"/>
      </contour>
      <contour>
        <pt x="237" y="629" on="1"/>
        <pt x="217" y="438" on="1"/>
        <pt x="380" y="438" on="1"/>
        <pt x="400" y="629" on="1"/>
      </contour>
      <contour>
        <pt x="595" y="276" on="1"/>
        <pt x="718" y="343" on="1"/>
        <pt x="831" y="343" on="1"/>
        <pt x="940" y="276" on="1"/>
        <pt x="916" y="57" on="1"/>
        <pt x="793" y="-10" on="1"/>
        <pt x="680" y="-10" on="1"/>
        <pt x="571" y="57" on="1"/>
      </contour>
      <contour>
        <pt x="827" y="71" on="1"/>
        <pt x="847" y="262" on="1"/>
        <pt x="684" y="262" on="1"/>
        <pt x="664" y="71" on="1"/>
      </contour>
      <contour>
        <pt x="1030" y="276" on="1"/>
        <pt x="1153" y="343" on="1"/>
        <pt x="1266" y="343" on="1"/>
        <pt x="1375" y="276" on="1"/>
        <pt x="1351" y="57" on="1"/>
        <pt x="1228" y="-10" on="1"/>
        <pt x="1115" y="-10" on="1"/>
        <pt x="1006" y="57" on="1"/>
      </contour>
      <contour>
        <pt x="1262" y="71" on="1"/>
        <pt x="1282" y="262" on="1"/>
        <pt x="1119" y="262" on="1"/>
        <pt x="1099" y="71" on="1"/>
      </contour>
    </TTGlyph>
    <TTGlyph name="plus" xMin="71" yMin="0" xMax="581" yMax="500">
      <contour>
        <pt x="81" y="297" on="1"/>
        <pt x="284" y="297" on="1"/>
        <pt x="305" y="500" on="1"/>
        <pt x="399" y="500" on="1"/>
        <pt x="378" y="297" on="1"/>
        <pt x="581" y="297" on="1"/>
        <pt x="571" y="203" on="1"/>
        <pt x="368" y="203" on="1"/>
        <pt x="347" y="0" on="1"/>
        <pt x="253" y="0" on="1"/>
        <pt x="274" y="203" on="1"/>
        <pt x="71" y="203" on="1"/>
      </contour>
    </TTGlyph>
    <TTGlyph name="plusminus" xMin="90" yMin="0" xMax="628" yMax="500">
      <contour>
        <pt x="128" y="367" on="1"/>
        <pt x="331" y="367" on="1"/>
        <pt x="345" y="500" on="1"/>
        <pt x="439" y="500" on="1"/>
        <pt x="425" y="367" on="1"/>
        <pt x="628" y="367" on="1"/>
        <pt x="618" y="273" on="1"/>
        <pt x="415" y="273" on="1"/>
        <pt x="401" y="140" on="1"/>
        <pt x="307" y="140" on="1"/>
        <pt x="321" y="273" on="1"/>
        <pt x="118" y="273" on="1"/>
      </contour>
      <contour>
        <pt x="599" y="94" on="1"/>
        <pt x="590" y="0" on="1"/>
        <pt x="90" y="0" on="1"/>
        <pt x="99" y="94" on="1"/>
      </contour>
    </TTGlyph>
    <TTGlyph name="q" xMin="86" yMin="-200" xMax="568" yMax="505">
      <contour>
        <pt x="346" y="-5" on="1"/>
        <pt x="195" y="-5" on="1"/>
        <pt x="86" y="62" on="1"/>
        <pt x="126" y="438" on="1"/>
        <pt x="249" y="505" on="1"/>
        <pt x="400" y="505" on="1"/>
        <pt x="466" y="464" on="1"/>
        <pt x="542" y="505" on="1"/>
        <pt x="568" y="505" on="1"/>
        <pt x="493" y="-200" on="1"/>
        <pt x="396" y="-200" on="1"/>
        <pt x="421" y="36" on="1"/>
      </contour>
      <contour>
        <pt x="426" y="82" on="1"/>
        <pt x="461" y="418" on="1"/>
        <pt x="220" y="418" on="1"/>
        <pt x="185" y="82" on="1"/>
      </contour>
    </TTGlyph>
    <TTGlyph name="question" xMin="147" yMin="0" xMax="559" yMax="730">
      <contour>
        <pt x="338" y="391" on="1"/>
        <pt x="316" y="268" on="1"/>
        <pt x="236" y="268" on="1"/>
        <pt x="241" y="414" on="1"/>
        <pt x="364" y="481" on="1"/>
        <pt x="440" y="481" on="1"/>
        <pt x="457" y="640" on="1"/>
        <pt x="257" y="640" on="1"/>
        <pt x="247" y="550" on="1"/>
        <pt x="147" y="550" on="1"/>
        <pt x="159" y="663" on="1"/>
        <pt x="282" y="730" on="1"/>
        <pt x="450" y="730" on="1"/>
        <pt x="559" y="663" on="1"/>
        <pt x="538" y="458" on="1"/>
        <pt x="415" y="391" on="1"/>
      </contour>
      <contour>
        <pt x="173" y="0" on="1"/>
        <pt x="188" y="150" on="1"/>
        <pt x="338" y="150" on="1"/>
        <pt x="323" y="0" on="1"/>
      </contour>
    </TTGlyph>
    <TTGlyph name="questiondown" xMin="72" yMin="-230" xMax="484" yMax="500">
      <contour>
        <pt x="294" y="109" on="1"/>
        <pt x="316" y="232" on="1"/>
        <pt x="396" y="232" on="1"/>
        <pt x="391" y="86" on="1"/>
        <pt x="267" y="19" on="1"/>
        <pt x="191" y="19" on="1"/>
        <pt x="175" y="-140" on="1"/>
        <pt x="375" y="-140" on="1"/>
        <pt x="384" y="-50" on="1"/>
        <pt x="484" y="-50" on="1"/>
        <pt x="472" y="-163" on="1"/>
        <pt x="349" y="-230" on="1"/>
        <pt x="181" y="-230" on="1"/>
        <pt x="72" y="-163" on="1"/>
        <pt x="94" y="42" on="1"/>
        <pt x="217" y="109" on="1"/>
      </contour>
      <contour>
        <pt x="459" y="500" on="1"/>
        <pt x="443" y="350" on="1"/>
        <pt x="293" y="350" on="1"/>
        <pt x="309" y="500" on="1"/>
      </contour>
    </TTGlyph>
    <TTGlyph name="quotedbl" xMin="136" yMin="438" xMax="436" yMax="730">
      <contour>
        <pt x="136" y="438" on="1"/>
        <pt x="146" y="730" on="1"/>
        <pt x="256" y="730" on="1"/>
        <pt x="206" y="438" on="1"/>
      </contour>
      <contour>
        <pt x="316" y="438" on="1"/>
        <pt x="326" y="730" on="1"/>
        <pt x="436" y="730" on="1"/>
        <pt x="386" y="438" on="1"/>
      </contour>
    </TTGlyph>
    <TTGlyph name="quotedblbase" xMin="78" yMin="-200" xMax="505" yMax="150">
      <contour>
        <pt x="78" y="-200" on="1"/>
        <pt x="115" y="150" on="1"/>
        <pt x="265" y="150" on="1"/>
        <pt x="261" y="108" on="1"/>
        <pt x="120" y="-200" on="1"/>
      </contour>
      <contour>
        <pt x="318" y="-200" on="1"/>
        <pt x="355" y="150" on="1"/>
        <pt x="505" y="150" on="1"/>
        <pt x="501" y="108" on="1"/>
        <pt x="360" y="-200" on="1"/>
      </contour>
    </TTGlyph>
    <TTGlyph name="quotedblleft" xMin="129" yMin="380" xMax="556" yMax="730">
      <contour>
        <pt x="556" y="730" on="1"/>
        <pt x="519" y="380" on="1"/>
        <pt x="369" y="380" on="1"/>
        <pt x="374" y="422" on="1"/>
        <pt x="514" y="730" on="1"/>
      </contour>
      <contour>
        <pt x="316" y="730" on="1"/>
        <pt x="279" y="380" on="1"/>
        <pt x="129" y="380" on="1"/>
        <pt x="134" y="422" on="1"/>
        <pt x="274" y="730" on="1"/>
      </contour>
    </TTGlyph>
    <TTGlyph name="quotedblright" xMin="129" yMin="380" xMax="556" yMax="730">
      <contour>
        <pt x="129" y="380" on="1"/>
        <pt x="166" y="730" on="1"/>
        <pt x="316" y="730" on="1"/>
        <pt x="312" y="688" on="1"/>
        <pt x="171" y="380" on="1"/>
      </contour>
      <contour>
        <pt x="369" y="380" on="1"/>
        <pt x="406" y="730" on="1"/>
        <pt x="556" y="730" on="1"/>
        <pt x="552" y="688" on="1"/>
        <pt x="411" y="380" on="1"/>
      </contour>
    </TTGlyph>
    <TTGlyph name="quoteleft" xMin="129" yMin="380" xMax="316" yMax="730">
      <contour>
        <pt x="316" y="730" on="1"/>
        <pt x="279" y="380" on="1"/>
        <pt x="129" y="380" on="1"/>
        <pt x="134" y="422" on="1"/>
        <pt x="274" y="730" on="1"/>
      </contour>
    </TTGlyph>
    <TTGlyph name="quoteright" xMin="129" yMin="380" xMax="316" yMax="730">
      <contour>
        <pt x="129" y="380" on="1"/>
        <pt x="166" y="730" on="1"/>
        <pt x="316" y="730" on="1"/>
        <pt x="312" y="688" on="1"/>
        <pt x="171" y="380" on="1"/>
      </contour>
    </TTGlyph>
    <TTGlyph name="quotesinglbase" xMin="78" yMin="-200" xMax="265" yMax="150">
      <contour>
        <pt x="78" y="-200" on="1"/>
        <pt x="115" y="150" on="1"/>
        <pt x="265" y="150" on="1"/>
        <pt x="261" y="108" on="1"/>
        <pt x="120" y="-200" on="1"/>
      </contour>
    </TTGlyph>
    <TTGlyph name="quotesingle" xMin="136" yMin="438" xMax="256" yMax="730">
      <contour>
        <pt x="136" y="438" on="1"/>
        <pt x="146" y="730" on="1"/>
        <pt x="256" y="730" on="1"/>
        <pt x="206" y="438" on="1"/>
      </contour>
    </TTGlyph>
    <TTGlyph name="r" xMin="80" yMin="0" xMax="411" yMax="500">
      <contour>
        <pt x="402" y="413" on="1"/>
        <pt x="220" y="413" on="1"/>
        <pt x="177" y="0" on="1"/>
        <pt x="80" y="0" on="1"/>
        <pt x="132" y="500" on="1"/>
        <pt x="205" y="500" on="1"/>
        <pt x="225" y="459" on="1"/>
        <pt x="300" y="500" on="1"/>
        <pt x="411" y="500" on="1"/>
      </contour>
    </TTGlyph>
    <TTGlyph name="rcaron" xMin="80" yMin="0" xMax="426" yMax="728">
      <contour>
        <pt x="402" y="413" on="1"/>
        <pt x="220" y="413" on="1"/>
        <pt x="177" y="0" on="1"/>
        <pt x="80" y="0" on="1"/>
        <pt x="132" y="500" on="1"/>
        <pt x="205" y="500" on="1"/>
        <pt x="225" y="459" on="1"/>
        <pt x="300" y="500" on="1"/>
        <pt x="411" y="500" on="1"/>
      </contour>
      <contour>
        <pt x="311" y="590" on="1"/>
        <pt x="201" y="590" on="1"/>
        <pt x="115" y="728" on="1"/>
        <pt x="190" y="728" on="1"/>
        <pt x="262" y="648" on="1"/>
        <pt x="351" y="728" on="1"/>
        <pt x="426" y="728" on="1"/>
      </contour>
    </TTGlyph>
    <TTGlyph name="rcommaaccent" xMin="80" yMin="-335" xMax="411" yMax="500">
      <contour>
        <pt x="402" y="413" on="1"/>
        <pt x="220" y="413" on="1"/>
        <pt x="177" y="0" on="1"/>
        <pt x="80" y="0" on="1"/>
        <pt x="132" y="500" on="1"/>
        <pt x="205" y="500" on="1"/>
        <pt x="225" y="459" on="1"/>
        <pt x="300" y="500" on="1"/>
        <pt x="411" y="500" on="1"/>
      </contour>
      <contour>
        <pt x="113" y="-335" on="1"/>
        <pt x="143" y="-55" on="1"/>
        <pt x="263" y="-55" on="1"/>
        <pt x="259" y="-89" on="1"/>
        <pt x="147" y="-335" on="1"/>
      </contour>
    </TTGlyph>
    <TTGlyph name="registered" xMin="96" yMin="-5" xMax="817" yMax="705">
      <contour>
        <pt x="756" y="62" on="1"/>
        <pt x="633" y="-5" on="1"/>
        <pt x="205" y="-5" on="1"/>
        <pt x="96" y="62" on="1"/>
        <pt x="157" y="638" on="1"/>
        <pt x="280" y="705" on="1"/>
        <pt x="708" y="705" on="1"/>
        <pt x="817" y="638" on="1"/>
      </contour>
      <contour>
        <pt x="236" y="635" on="1"/>
        <pt x="176" y="65" on="1"/>
        <pt x="676" y="65" on="1"/>
        <pt x="736" y="635" on="1"/>
      </contour>
      <contour>
        <pt x="468" y="303" on="1"/>
        <pt x="362" y="303" on="1"/>
        <pt x="345" y="138" on="1"/>
        <pt x="276" y="138" on="1"/>
        <pt x="321" y="562" on="1"/>
        <pt x="562" y="562" on="1"/>
        <pt x="631" y="520" on="1"/>
        <pt x="613" y="346" on="1"/>
        <pt x="541" y="306" on="1"/>
        <pt x="622" y="138" on="1"/>
        <pt x="545" y="138" on="1"/>
      </contour>
      <contour>
        <pt x="383" y="499" on="1"/>
        <pt x="369" y="366" on="1"/>
        <pt x="546" y="366" on="1"/>
        <pt x="560" y="499" on="1"/>
      </contour>
    </TTGlyph>
    <TTGlyph name="ring" xMin="186" yMin="570" xMax="489" yMax="833">
      <contour>
        <pt x="471" y="617" on="1"/>
        <pt x="384" y="570" on="1"/>
        <pt x="263" y="570" on="1"/>
        <pt x="186" y="617" on="1"/>
        <pt x="204" y="786" on="1"/>
        <pt x="291" y="833" on="1"/>
        <pt x="412" y="833" on="1"/>
        <pt x="489" y="786" on="1"/>
      </contour>
      <contour>
        <pt x="277" y="768" on="1"/>
        <pt x="263" y="635" on="1"/>
        <pt x="398" y="635" on="1"/>
        <pt x="412" y="768" on="1"/>
      </contour>
    </TTGlyph>
    <TTGlyph name="ring.cap" xMin="186" yMin="770" xMax="489" yMax="1033">
      <contour>
        <pt x="471" y="817" on="1"/>
        <pt x="384" y="770" on="1"/>
        <pt x="263" y="770" on="1"/>
        <pt x="186" y="817" on="1"/>
        <pt x="204" y="986" on="1"/>
        <pt x="291" y="1033" on="1"/>
        <pt x="412" y="1033" on="1"/>
        <pt x="489" y="986" on="1"/>
      </contour>
      <contour>
        <pt x="277" y="968" on="1"/>
        <pt x="263" y="835" on="1"/>
        <pt x="398" y="835" on="1"/>
        <pt x="412" y="968" on="1"/>
      </contour>
    </TTGlyph>
    <TTGlyph name="s" xMin="80" yMin="0" xMax="498" yMax="500">
      <contour>
        <pt x="480" y="230" on="1"/>
        <pt x="463" y="67" on="1"/>
        <pt x="340" y="0" on="1"/>
        <pt x="80" y="0" on="1"/>
        <pt x="89" y="87" on="1"/>
        <pt x="368" y="87" on="1"/>
        <pt x="381" y="210" on="1"/>
        <pt x="218" y="210" on="1"/>
        <pt x="109" y="277" on="1"/>
        <pt x="125" y="433" on="1"/>
        <pt x="248" y="500" on="1"/>
        <pt x="498" y="500" on="1"/>
        <pt x="489" y="413" on="1"/>
        <pt x="220" y="413" on="1"/>
        <pt x="208" y="297" on="1"/>
        <pt x="371" y="297" on="1"/>
      </contour>
    </TTGlyph>
    <TTGlyph name="scaron" xMin="80" yMin="0" xMax="500" yMax="728">
      <contour>
        <pt x="480" y="230" on="1"/>
        <pt x="463" y="67" on="1"/>
        <pt x="340" y="0" on="1"/>
        <pt x="80" y="0" on="1"/>
        <pt x="89" y="87" on="1"/>
        <pt x="368" y="87" on="1"/>
        <pt x="381" y="210" on="1"/>
        <pt x="218" y="210" on="1"/>
        <pt x="109" y="277" on="1"/>
        <pt x="125" y="433" on="1"/>
        <pt x="248" y="500" on="1"/>
        <pt x="498" y="500" on="1"/>
        <pt x="489" y="413" on="1"/>
        <pt x="220" y="413" on="1"/>
        <pt x="208" y="297" on="1"/>
        <pt x="371" y="297" on="1"/>
      </contour>
      <contour>
        <pt x="385" y="590" on="1"/>
        <pt x="275" y="590" on="1"/>
        <pt x="189" y="728" on="1"/>
        <pt x="264" y="728" on="1"/>
        <pt x="336" y="648" on="1"/>
        <pt x="425" y="728" on="1"/>
        <pt x="500" y="728" on="1"/>
      </contour>
    </TTGlyph>
    <TTGlyph name="section" xMin="76" yMin="-200" xMax="630" yMax="705">
      <contour>
        <pt x="462" y="163" on="1"/>
        <pt x="480" y="342" on="1"/>
        <pt x="253" y="342" on="1"/>
        <pt x="235" y="163" on="1"/>
      </contour>
      <contour>
        <pt x="153" y="336" on="1"/>
        <pt x="245" y="386" on="1"/>
        <pt x="245" y="388" on="1"/>
        <pt x="164" y="438" on="1"/>
        <pt x="185" y="638" on="1"/>
        <pt x="308" y="705" on="1"/>
        <pt x="521" y="705" on="1"/>
        <pt x="630" y="638" on="1"/>
        <pt x="619" y="535" on="1"/>
        <pt x="519" y="535" on="1"/>
        <pt x="527" y="615" on="1"/>
        <pt x="282" y="615" on="1"/>
        <pt x="263" y="432" on="1"/>
        <pt x="474" y="432" on="1"/>
        <pt x="583" y="365" on="1"/>
        <pt x="562" y="169" on="1"/>
        <pt x="470" y="119" on="1"/>
        <pt x="470" y="117" on="1"/>
        <pt x="552" y="67" on="1"/>
        <pt x="531" y="-133" on="1"/>
        <pt x="407" y="-200" on="1"/>
        <pt x="184" y="-200" on="1"/>
        <pt x="76" y="-133" on="1"/>
        <pt x="86" y="-30" on="1"/>
        <pt x="186" y="-30" on="1"/>
        <pt x="178" y="-110" on="1"/>
        <pt x="433" y="-110" on="1"/>
        <pt x="452" y="73" on="1"/>
        <pt x="241" y="73" on="1"/>
        <pt x="132" y="140" on="1"/>
      </contour>
    </TTGlyph>
    <TTGlyph name="semicolon" xMin="78" yMin="-200" xMax="302" yMax="500">
      <contour>
        <pt x="136" y="350" on="1"/>
        <pt x="152" y="500" on="1"/>
        <pt x="302" y="500" on="1"/>
        <pt x="286" y="350" on="1"/>
      </contour>
      <contour>
        <pt x="78" y="-200" on="1"/>
        <pt x="115" y="150" on="1"/>
        <pt x="265" y="150" on="1"/>
        <pt x="261" y="108" on="1"/>
        <pt x="120" y="-200" on="1"/>
      </contour>
    </TTGlyph>
    <TTGlyph name="seven" xMin="114" yMin="0" xMax="638" yMax="700">
      <contour>
        <pt x="273" y="0" on="1"/>
        <pt x="167" y="0" on="1"/>
        <pt x="509" y="608" on="1"/>
        <pt x="510" y="610" on="1"/>
        <pt x="224" y="610" on="1"/>
        <pt x="214" y="520" on="1"/>
        <pt x="114" y="520" on="1"/>
        <pt x="133" y="700" on="1"/>
        <pt x="638" y="700" on="1"/>
        <pt x="632" y="640" on="1"/>
      </contour>
    </TTGlyph>
    <TTGlyph name="six" xMin="96" yMin="-5" xMax="612" yMax="705">
      <contour>
        <pt x="254" y="615" on="1"/>
        <pt x="228" y="369" on="1"/>
        <pt x="304" y="410" on="1"/>
        <pt x="472" y="410" on="1"/>
        <pt x="581" y="343" on="1"/>
        <pt x="551" y="62" on="1"/>
        <pt x="428" y="-5" on="1"/>
        <pt x="205" y="-5" on="1"/>
        <pt x="96" y="62" on="1"/>
        <pt x="157" y="638" on="1"/>
        <pt x="280" y="705" on="1"/>
        <pt x="503" y="705" on="1"/>
        <pt x="612" y="638" on="1"/>
        <pt x="600" y="525" on="1"/>
        <pt x="500" y="525" on="1"/>
        <pt x="509" y="615" on="1"/>
      </contour>
      <contour>
        <pt x="223" y="320" on="1"/>
        <pt x="198" y="85" on="1"/>
        <pt x="453" y="85" on="1"/>
        <pt x="478" y="320" on="1"/>
      </contour>
    </TTGlyph>
    <TTGlyph name="slash" xMin="27" yMin="-20" xMax="431" yMax="720">
      <contour>
        <pt x="27" y="-20" on="1"/>
        <pt x="341" y="720" on="1"/>
        <pt x="431" y="720" on="1"/>
        <pt x="117" y="-20" on="1"/>
      </contour>
    </TTGlyph>
    <TTGlyph name="st" xMin="80" yMin="0" xMax="901" yMax="640">
      <contour>
        <pt x="220" y="413" on="1"/>
        <pt x="208" y="297" on="1"/>
        <pt x="371" y="297" on="1"/>
        <pt x="480" y="230" on="1"/>
        <pt x="463" y="67" on="1"/>
        <pt x="340" y="0" on="1"/>
        <pt x="80" y="0" on="1"/>
        <pt x="89" y="87" on="1"/>
        <pt x="368" y="87" on="1"/>
        <pt x="381" y="210" on="1"/>
        <pt x="218" y="210" on="1"/>
        <pt x="109" y="277" on="1"/>
        <pt x="125" y="433" on="1"/>
        <pt x="248" y="500" on="1"/>
        <pt x="684" y="500" on="1"/>
        <pt x="693" y="584" on="1"/>
        <pt x="796" y="640" on="1"/>
        <pt x="781" y="500" on="1"/>
        <pt x="901" y="500" on="1"/>
        <pt x="892" y="413" on="1"/>
        <pt x="772" y="413" on="1"/>
        <pt x="738" y="87" on="1"/>
        <pt x="858" y="87" on="1"/>
        <pt x="849" y="0" on="1"/>
        <pt x="748" y="0" on="1"/>
        <pt x="639" y="67" on="1"/>
        <pt x="675" y="413" on="1"/>
      </contour>
    </TTGlyph>
    <TTGlyph name="sterling" xMin="70" yMin="0" xMax="610" yMax="705">
      <contour>
        <pt x="394" y="365" on="1"/>
        <pt x="386" y="291" on="1"/>
        <pt x="247" y="291" on="1"/>
        <pt x="226" y="90" on="1"/>
        <pt x="501" y="90" on="1"/>
        <pt x="510" y="180" on="1"/>
        <pt x="610" y="180" on="1"/>
        <pt x="599" y="67" on="1"/>
        <pt x="476" y="0" on="1"/>
        <pt x="117" y="0" on="1"/>
        <pt x="147" y="291" on="1"/>
        <pt x="70" y="291" on="1"/>
        <pt x="78" y="365" on="1"/>
        <pt x="155" y="365" on="1"/>
        <pt x="184" y="638" on="1"/>
        <pt x="307" y="705" on="1"/>
        <pt x="500" y="705" on="1"/>
        <pt x="609" y="638" on="1"/>
        <pt x="597" y="525" on="1"/>
        <pt x="497" y="525" on="1"/>
        <pt x="506" y="615" on="1"/>
        <pt x="281" y="615" on="1"/>
        <pt x="255" y="365" on="1"/>
      </contour>
    </TTGlyph>
    <TTGlyph name="t" xMin="83" yMin="0" xMax="401" yMax="640">
      <contour>
        <pt x="83" y="413" on="1"/>
        <pt x="92" y="500" on="1"/>
        <pt x="184" y="500" on="1"/>
        <pt x="193" y="584" on="1"/>
        <pt x="296" y="640" on="1"/>
        <pt x="281" y="500" on="1"/>
        <pt x="401" y="500" on="1"/>
        <pt x="392" y="413" on="1"/>
        <pt x="272" y="413" on="1"/>
        <pt x="238" y="87" on="1"/>
        <pt x="358" y="87" on="1"/>
        <pt x="349" y="0" on="1"/>
        <pt x="248" y="0" on="1"/>
        <pt x="139" y="67" on="1"/>
        <pt x="175" y="413" on="1"/>
      </contour>
    </TTGlyph>
    <TTGlyph name="thorn" xMin="58" yMin="-200" xMax="561" yMax="730">
      <contour>
        <pt x="156" y="730" on="1"/>
        <pt x="253" y="730" on="1"/>
        <pt x="225" y="464" on="1"/>
        <pt x="301" y="505" on="1"/>
        <pt x="452" y="505" on="1"/>
        <pt x="561" y="438" on="1"/>
        <pt x="521" y="62" on="1"/>
        <pt x="398" y="-5" on="1"/>
        <pt x="247" y="-5" on="1"/>
        <pt x="180" y="36" on="1"/>
        <pt x="155" y="-200" on="1"/>
        <pt x="58" y="-200" on="1"/>
      </contour>
      <contour>
        <pt x="220" y="418" on="1"/>
        <pt x="185" y="82" on="1"/>
        <pt x="426" y="82" on="1"/>
        <pt x="461" y="418" on="1"/>
      </contour>
    </TTGlyph>
    <TTGlyph name="three" xMin="96" yMin="-5" xMax="628" yMax="705">
      <contour>
        <pt x="444" y="-5" on="1"/>
        <pt x="205" y="-5" on="1"/>
        <pt x="96" y="62" on="1"/>
        <pt x="108" y="175" on="1"/>
        <pt x="208" y="175" on="1"/>
        <pt x="198" y="85" on="1"/>
        <pt x="469" y="85" on="1"/>
        <pt x="494" y="317" on="1"/>
        <pt x="289" y="317" on="1"/>
        <pt x="298" y="407" on="1"/>
        <pt x="503" y="407" on="1"/>
        <pt x="525" y="615" on="1"/>
        <pt x="254" y="615" on="1"/>
        <pt x="245" y="525" on="1"/>
        <pt x="145" y="525" on="1"/>
        <pt x="157" y="638" on="1"/>
        <pt x="280" y="705" on="1"/>
        <pt x="519" y="705" on="1"/>
        <pt x="628" y="638" on="1"/>
        <pt x="604" y="413" on="1"/>
        <pt x="512" y="363" on="1"/>
        <pt x="511" y="361" on="1"/>
        <pt x="593" y="311" on="1"/>
        <pt x="567" y="62" on="1"/>
      </contour>
    </TTGlyph>
    <TTGlyph name="tilde" xMin="161" yMin="585" xMax="483" yMax="734">
      <contour>
        <pt x="240" y="667" on="1"/>
        <pt x="238" y="667" on="1"/>
        <pt x="229" y="585" on="1"/>
        <pt x="161" y="585" on="1"/>
        <pt x="171" y="679" on="1"/>
        <pt x="271" y="734" on="1"/>
        <pt x="404" y="652" on="1"/>
        <pt x="406" y="652" on="1"/>
        <pt x="415" y="734" on="1"/>
        <pt x="483" y="734" on="1"/>
        <pt x="473" y="640" on="1"/>
        <pt x="373" y="585" on="1"/>
      </contour>
    </TTGlyph>
    <TTGlyph name="tilde.cap" xMin="161" yMin="785" xMax="483" yMax="934">
      <contour>
        <pt x="240" y="867" on="1"/>
        <pt x="238" y="867" on="1"/>
        <pt x="229" y="785" on="1"/>
        <pt x="161" y="785" on="1"/>
        <pt x="171" y="879" on="1"/>
        <pt x="271" y="934" on="1"/>
        <pt x="404" y="852" on="1"/>
        <pt x="406" y="852" on="1"/>
        <pt x="415" y="934" on="1"/>
        <pt x="483" y="934" on="1"/>
        <pt x="473" y="840" on="1"/>
        <pt x="373" y="785" on="1"/>
      </contour>
    </TTGlyph>
    <TTGlyph name="trademark" xMin="136" yMin="340" xMax="828" yMax="700">
      <contour>
        <pt x="724" y="340" on="1"/>
        <pt x="750" y="583" on="1"/>
        <pt x="748" y="583" on="1"/>
        <pt x="638" y="340" on="1"/>
        <pt x="577" y="340" on="1"/>
        <pt x="521" y="583" on="1"/>
        <pt x="519" y="583" on="1"/>
        <pt x="493" y="340" on="1"/>
        <pt x="427" y="340" on="1"/>
        <pt x="465" y="700" on="1"/>
        <pt x="550" y="700" on="1"/>
        <pt x="618" y="435" on="1"/>
        <pt x="620" y="435" on="1"/>
        <pt x="743" y="700" on="1"/>
        <pt x="828" y="700" on="1"/>
        <pt x="790" y="340" on="1"/>
      </contour>
      <contour>
        <pt x="301" y="637" on="1"/>
        <pt x="270" y="340" on="1"/>
        <pt x="202" y="340" on="1"/>
        <pt x="233" y="637" on="1"/>
        <pt x="136" y="637" on="1"/>
        <pt x="143" y="700" on="1"/>
        <pt x="404" y="700" on="1"/>
        <pt x="397" y="637" on="1"/>
      </contour>
    </TTGlyph>
    <TTGlyph name="two" xMin="90" yMin="0" xMax="606" yMax="700">
      <contour>
        <pt x="199" y="90" on="1"/>
        <pt x="549" y="90" on="1"/>
        <pt x="540" y="0" on="1"/>
        <pt x="90" y="0" on="1"/>
        <pt x="123" y="314" on="1"/>
        <pt x="246" y="381" on="1"/>
        <pt x="480" y="381" on="1"/>
        <pt x="504" y="610" on="1"/>
        <pt x="254" y="610" on="1"/>
        <pt x="244" y="520" on="1"/>
        <pt x="144" y="520" on="1"/>
        <pt x="156" y="633" on="1"/>
        <pt x="279" y="700" on="1"/>
        <pt x="497" y="700" on="1"/>
        <pt x="606" y="633" on="1"/>
        <pt x="577" y="358" on="1"/>
        <pt x="454" y="291" on="1"/>
        <pt x="220" y="291" on="1"/>
      </contour>
    </TTGlyph>
    <TTGlyph name="u" xMin="86" yMin="-5" xMax="557" yMax="500">
      <contour>
        <pt x="86" y="62" on="1"/>
        <pt x="132" y="500" on="1"/>
        <pt x="229" y="500" on="1"/>
        <pt x="185" y="82" on="1"/>
        <pt x="416" y="82" on="1"/>
        <pt x="460" y="500" on="1"/>
        <pt x="557" y="500" on="1"/>
        <pt x="504" y="-5" on="1"/>
        <pt x="431" y="-5" on="1"/>
        <pt x="411" y="36" on="1"/>
        <pt x="336" y="-5" on="1"/>
        <pt x="195" y="-5" on="1"/>
      </contour>
    </TTGlyph>
    <TTGlyph name="uacute" xMin="86" yMin="-5" xMax="557" yMax="718">
      <contour>
        <pt x="86" y="62" on="1"/>
        <pt x="132" y="500" on="1"/>
        <pt x="229" y="500" on="1"/>
        <pt x="185" y="82" on="1"/>
        <pt x="416" y="82" on="1"/>
        <pt x="460" y="500" on="1"/>
        <pt x="557" y="500" on="1"/>
        <pt x="504" y="-5" on="1"/>
        <pt x="431" y="-5" on="1"/>
        <pt x="411" y="36" on="1"/>
        <pt x="336" y="-5" on="1"/>
        <pt x="195" y="-5" on="1"/>
      </contour>
      <contour>
        <pt x="297" y="590" on="1"/>
        <pt x="404" y="718" on="1"/>
        <pt x="534" y="718" on="1"/>
        <pt x="377" y="590" on="1"/>
      </contour>
    </TTGlyph>
    <TTGlyph name="ucircumflex" xMin="86" yMin="-5" xMax="557" yMax="728">
      <contour>
        <pt x="86" y="62" on="1"/>
        <pt x="132" y="500" on="1"/>
        <pt x="229" y="500" on="1"/>
        <pt x="185" y="82" on="1"/>
        <pt x="416" y="82" on="1"/>
        <pt x="460" y="500" on="1"/>
        <pt x="557" y="500" on="1"/>
        <pt x="504" y="-5" on="1"/>
        <pt x="431" y="-5" on="1"/>
        <pt x="411" y="36" on="1"/>
        <pt x="336" y="-5" on="1"/>
        <pt x="195" y="-5" on="1"/>
      </contour>
      <contour>
        <pt x="314" y="728" on="1"/>
        <pt x="424" y="728" on="1"/>
        <pt x="511" y="590" on="1"/>
        <pt x="436" y="590" on="1"/>
        <pt x="363" y="670" on="1"/>
        <pt x="275" y="590" on="1"/>
        <pt x="200" y="590" on="1"/>
      </contour>
    </TTGlyph>
    <TTGlyph name="udieresis" xMin="86" yMin="-5" xMax="557" yMax="700">
      <contour>
        <pt x="86" y="62" on="1"/>
        <pt x="132" y="500" on="1"/>
        <pt x="229" y="500" on="1"/>
        <pt x="185" y="82" on="1"/>
        <pt x="416" y="82" on="1"/>
        <pt x="460" y="500" on="1"/>
        <pt x="557" y="500" on="1"/>
        <pt x="504" y="-5" on="1"/>
        <pt x="431" y="-5" on="1"/>
        <pt x="411" y="36" on="1"/>
        <pt x="336" y="-5" on="1"/>
        <pt x="195" y="-5" on="1"/>
      </contour>
      <contour>
        <pt x="192" y="595" on="1"/>
        <pt x="203" y="700" on="1"/>
        <pt x="308" y="700" on="1"/>
        <pt x="297" y="595" on="1"/>
      </contour>
      <contour>
        <pt x="411" y="595" on="1"/>
        <pt x="422" y="700" on="1"/>
        <pt x="527" y="700" on="1"/>
        <pt x="516" y="595" on="1"/>
      </contour>
    </TTGlyph>
    <TTGlyph name="ugrave" xMin="86" yMin="-5" xMax="557" yMax="718">
      <contour>
        <pt x="86" y="62" on="1"/>
        <pt x="132" y="500" on="1"/>
        <pt x="229" y="500" on="1"/>
        <pt x="185" y="82" on="1"/>
        <pt x="416" y="82" on="1"/>
        <pt x="460" y="500" on="1"/>
        <pt x="557" y="500" on="1"/>
        <pt x="504" y="-5" on="1"/>
        <pt x="431" y="-5" on="1"/>
        <pt x="411" y="36" on="1"/>
        <pt x="336" y="-5" on="1"/>
        <pt x="195" y="-5" on="1"/>
      </contour>
      <contour>
        <pt x="350" y="718" on="1"/>
        <pt x="431" y="590" on="1"/>
        <pt x="351" y="590" on="1"/>
        <pt x="220" y="718" on="1"/>
      </contour>
    </TTGlyph>
    <TTGlyph name="underscore" xMin="-41" yMin="-200" xMax="619" yMax="-116">
      <contour>
        <pt x="619" y="-116" on="1"/>
        <pt x="610" y="-200" on="1"/>
        <pt x="-41" y="-200" on="1"/>
        <pt x="-32" y="-116" on="1"/>
      </contour>
    </TTGlyph>
    <TTGlyph name="v" xMin="72" yMin="0" xMax="559" yMax="500">
      <contour>
        <pt x="167" y="500" on="1"/>
        <pt x="271" y="92" on="1"/>
        <pt x="273" y="92" on="1"/>
        <pt x="464" y="500" on="1"/>
        <pt x="559" y="500" on="1"/>
        <pt x="322" y="0" on="1"/>
        <pt x="205" y="0" on="1"/>
        <pt x="72" y="500" on="1"/>
      </contour>
    </TTGlyph>
    <TTGlyph name="w" xMin="82" yMin="0" xMax="779" yMax="500">
      <contour>
        <pt x="487" y="0" on="1"/>
        <pt x="419" y="382" on="1"/>
        <pt x="417" y="382" on="1"/>
        <pt x="270" y="0" on="1"/>
        <pt x="155" y="0" on="1"/>
        <pt x="82" y="500" on="1"/>
        <pt x="172" y="500" on="1"/>
        <pt x="226" y="109" on="1"/>
        <pt x="228" y="109" on="1"/>
        <pt x="379" y="500" on="1"/>
        <pt x="482" y="500" on="1"/>
        <pt x="551" y="109" on="1"/>
        <pt x="553" y="109" on="1"/>
        <pt x="689" y="500" on="1"/>
        <pt x="779" y="500" on="1"/>
        <pt x="602" y="0" on="1"/>
      </contour>
    </TTGlyph>
    <TTGlyph name="x" xMin="20" yMin="0" xMax="526" yMax="500">
      <contour>
        <pt x="20" y="0" on="1"/>
        <pt x="225" y="255" on="1"/>
        <pt x="78" y="500" on="1"/>
        <pt x="186" y="500" on="1"/>
        <pt x="284" y="328" on="1"/>
        <pt x="418" y="500" on="1"/>
        <pt x="526" y="500" on="1"/>
        <pt x="326" y="255" on="1"/>
        <pt x="480" y="0" on="1"/>
        <pt x="375" y="0" on="1"/>
        <pt x="269" y="183" on="1"/>
        <pt x="125" y="0" on="1"/>
      </contour>
    </TTGlyph>
    <TTGlyph name="y" xMin="72" yMin="-200" xMax="551" yMax="500">
      <contour>
        <pt x="104" y="-200" on="1"/>
        <pt x="215" y="23" on="1"/>
        <pt x="72" y="500" on="1"/>
        <pt x="169" y="500" on="1"/>
        <pt x="274" y="144" on="1"/>
        <pt x="276" y="144" on="1"/>
        <pt x="454" y="500" on="1"/>
        <pt x="551" y="500" on="1"/>
        <pt x="199" y="-200" on="1"/>
      </contour>
    </TTGlyph>
    <TTGlyph name="yacute" xMin="72" yMin="-200" xMax="551" yMax="718">
      <contour>
        <pt x="104" y="-200" on="1"/>
        <pt x="215" y="23" on="1"/>
        <pt x="72" y="500" on="1"/>
        <pt x="169" y="500" on="1"/>
        <pt x="274" y="144" on="1"/>
        <pt x="276" y="144" on="1"/>
        <pt x="454" y="500" on="1"/>
        <pt x="551" y="500" on="1"/>
        <pt x="199" y="-200" on="1"/>
      </contour>
      <contour>
        <pt x="257" y="590" on="1"/>
        <pt x="364" y="718" on="1"/>
        <pt x="494" y="718" on="1"/>
        <pt x="337" y="590" on="1"/>
      </contour>
    </TTGlyph>
    <TTGlyph name="ydieresis" xMin="72" yMin="-200" xMax="551" yMax="700">
      <contour>
        <pt x="104" y="-200" on="1"/>
        <pt x="215" y="23" on="1"/>
        <pt x="72" y="500" on="1"/>
        <pt x="169" y="500" on="1"/>
        <pt x="274" y="144" on="1"/>
        <pt x="276" y="144" on="1"/>
        <pt x="454" y="500" on="1"/>
        <pt x="551" y="500" on="1"/>
        <pt x="199" y="-200" on="1"/>
      </contour>
      <contour>
        <pt x="160" y="595" on="1"/>
        <pt x="171" y="700" on="1"/>
        <pt x="276" y="700" on="1"/>
        <pt x="265" y="595" on="1"/>
      </contour>
      <contour>
        <pt x="379" y="595" on="1"/>
        <pt x="390" y="700" on="1"/>
        <pt x="495" y="700" on="1"/>
        <pt x="484" y="595" on="1"/>
      </contour>
    </TTGlyph>
    <TTGlyph name="yen" xMin="92" yMin="0" xMax="684" yMax="700">
      <contour>
        <pt x="108" y="303" on="1"/>
        <pt x="116" y="377" on="1"/>
        <pt x="273" y="377" on="1"/>
        <pt x="113" y="700" on="1"/>
        <pt x="225" y="700" on="1"/>
        <pt x="366" y="402" on="1"/>
        <pt x="368" y="402" on="1"/>
        <pt x="572" y="700" on="1"/>
        <pt x="684" y="700" on="1"/>
        <pt x="455" y="377" on="1"/>
        <pt x="612" y="377" on="1"/>
        <pt x="604" y="303" on="1"/>
        <pt x="406" y="303" on="1"/>
        <pt x="398" y="222" on="1"/>
        <pt x="596" y="222" on="1"/>
        <pt x="588" y="148" on="1"/>
        <pt x="390" y="148" on="1"/>
        <pt x="375" y="0" on="1"/>
        <pt x="275" y="0" on="1"/>
        <pt x="290" y="148" on="1"/>
        <pt x="92" y="148" on="1"/>
        <pt x="100" y="222" on="1"/>
        <pt x="298" y="222" on="1"/>
        <pt x="306" y="303" on="1"/>
      </contour>
    </TTGlyph>
    <TTGlyph name="z" xMin="40" yMin="0" xMax="468" yMax="500">
      <contour>
        <pt x="46" y="66" on="1"/>
        <pt x="335" y="411" on="1"/>
        <pt x="335" y="413" on="1"/>
        <pt x="93" y="413" on="1"/>
        <pt x="102" y="500" on="1"/>
        <pt x="468" y="500" on="1"/>
        <pt x="461" y="434" on="1"/>
        <pt x="173" y="89" on="1"/>
        <pt x="173" y="87" on="1"/>
        <pt x="425" y="87" on="1"/>
        <pt x="416" y="0" on="1"/>
        <pt x="40" y="0" on="1"/>
      </contour>
    </TTGlyph>
    <TTGlyph name="zcaron" xMin="40" yMin="0" xMax="468" yMax="728">
      <contour>
        <pt x="46" y="66" on="1"/>
        <pt x="335" y="411" on="1"/>
        <pt x="335" y="413" on="1"/>
        <pt x="93" y="413" on="1"/>
        <pt x="102" y="500" on="1"/>
        <pt x="468" y="500" on="1"/>
        <pt x="461" y="434" on="1"/>
        <pt x="173" y="89" on="1"/>
        <pt x="173" y="87" on="1"/>
        <pt x="425" y="87" on="1"/>
        <pt x="416" y="0" on="1"/>
        <pt x="40" y="0" on="1"/>
      </contour>
      <contour>
        <pt x="342" y="590" on="1"/>
        <pt x="232" y="590" on="1"/>
        <pt x="146" y="728" on="1"/>
        <pt x="221" y="728" on="1"/>
        <pt x="293" y="648" on="1"/>
        <pt x="382" y="728" on="1"/>
        <pt x="457" y="728" on="1"/>
      </contour>
    </TTGlyph>
    <TTGlyph name="zero" xMin="96" yMin="-5" xMax="642" yMax="705">
      <contour>
        <pt x="581" y="62" on="1"/>
        <pt x="458" y="-5" on="1"/>
        <pt x="205" y="-5" on="1"/>
        <pt x="96" y="62" on="1"/>
        <pt x="157" y="638" on="1"/>
        <pt x="280" y="705" on="1"/>
        <pt x="533" y="705" on="1"/>
        <pt x="642" y="638" on="1"/>
      </contour>
      <contour>
        <pt x="254" y="615" on="1"/>
        <pt x="198" y="85" on="1"/>
        <pt x="483" y="85" on="1"/>
        <pt x="539" y="615" on="1"/>
      </contour>
    </TTGlyph>
</ttFont>
